<svg width="109" height="74" viewBox="0 0 109 74" fill="none" xmlns="http://www.w3.org/2000/svg">
<path id="Bags" d="M29.12 51.904C28.864 51.904 28.608 51.8827 28.352 51.84C28.096 51.84 27.8187 51.8187 27.52 51.776C27.4773 51.776 27.3707 51.712 27.2 51.584C27.0293 51.4987 26.9013 51.456 26.816 51.456C26.56 51.456 26.2827 51.4347 25.984 51.392C25.728 51.392 25.4507 51.3707 25.152 51.328C25.1093 51.2853 25.0667 51.2213 25.024 51.136C25.024 51.0933 24.9813 51.072 24.896 51.072C24.8533 51.072 24.832 51.072 24.832 51.072C24.8747 51.1147 24.8747 51.136 24.832 51.136C24.7893 51.136 24.6827 51.0933 24.512 51.008C24.384 50.9227 24.2773 50.8587 24.192 50.816V50.688C24.0213 50.6453 23.9147 50.5813 23.872 50.496C23.8293 50.4533 23.7867 50.432 23.744 50.432H23.616C23.5307 50.432 23.488 50.4107 23.488 50.368C23.3173 50.2827 23.104 50.1547 22.848 49.984C22.592 49.856 22.4213 49.728 22.336 49.6C22.1653 49.5573 22.0587 49.4933 22.016 49.408C21.9733 49.3653 21.9093 49.3013 21.824 49.216C21.7813 49.1307 21.7387 49.088 21.696 49.088C21.696 49.1307 21.6747 49.1307 21.632 49.088C21.4613 48.832 21.248 48.6187 20.992 48.448C20.992 48.4053 20.9707 48.3627 20.928 48.32C20.928 48.32 20.928 48.2987 20.928 48.256C20.8427 48.256 20.7787 48.2347 20.736 48.192C20.6933 48.1067 20.672 48.0427 20.672 48C20.672 47.9147 20.6293 47.872 20.544 47.872C20.5013 47.6587 20.4373 47.5093 20.352 47.424C20.2667 47.3387 20.1813 47.2107 20.096 47.04C20.0533 46.9547 20.032 46.8693 20.032 46.784C20.032 46.656 19.9893 46.592 19.904 46.592V46.528C19.9467 46.4427 19.8827 46.208 19.712 45.824C19.584 45.3973 19.52 45.0347 19.52 44.736L19.392 44.672C19.264 44.4587 19.1787 44.2027 19.136 43.904C19.136 43.6053 19.1573 43.3067 19.2 43.008C19.2853 42.6667 19.2853 42.5173 19.2 42.56C19.1147 42.6027 19.1147 42.3893 19.2 41.92L19.648 41.024C19.648 40.9387 19.6267 40.8533 19.584 40.768C19.5413 40.6827 19.52 40.6187 19.52 40.576C19.52 40.5333 19.5413 40.4907 19.584 40.448C19.6267 40.4053 19.648 40.3627 19.648 40.32C19.6907 40.2347 19.712 40.1067 19.712 39.936C19.712 39.7653 19.7333 39.6587 19.776 39.616C19.8187 39.5307 19.8827 39.4667 19.968 39.424C20.0533 39.3387 20.1173 39.2747 20.16 39.232L20.48 38.464C20.5653 38.3787 20.6293 38.3147 20.672 38.272C20.7573 38.1867 20.8213 38.1013 20.864 38.016C20.9493 37.888 21.0133 37.7813 21.056 37.696C21.0987 37.568 21.1627 37.44 21.248 37.312C21.2907 37.2267 21.3547 37.1413 21.44 37.056C21.568 36.9707 21.6533 36.9067 21.696 36.864C21.9093 36.736 22.08 36.672 22.208 36.672C22.3787 36.672 22.4853 36.8427 22.528 37.184L22.464 37.504C22.2933 37.7173 22.1227 37.9093 21.952 38.08C21.7813 38.208 21.5893 38.3573 21.376 38.528C21.376 38.5707 21.3547 38.6347 21.312 38.72C21.312 38.7627 21.312 38.8267 21.312 38.912C21.2267 38.912 21.184 38.9547 21.184 39.04C21.184 39.0827 21.1627 39.1467 21.12 39.232C21.12 39.2747 21.056 39.36 20.928 39.488C20.8853 39.5733 20.8427 39.68 20.8 39.808C20.8 39.8933 20.7787 39.9787 20.736 40.064L20.544 40.192L20.48 41.728C20.5227 41.7707 20.5653 41.7707 20.608 41.728C20.6507 41.8133 20.672 41.9413 20.672 42.112V42.176L20.608 42.24V42.752C20.5653 42.7947 20.544 42.8373 20.544 42.88C20.544 42.9227 20.5653 42.9867 20.608 43.072C20.6507 43.1147 20.672 43.1787 20.672 43.264C20.6293 43.3067 20.608 43.3707 20.608 43.456C20.608 43.5413 20.6507 43.6267 20.736 43.712V43.904C20.8213 44.032 20.928 44.16 21.056 44.288C21.184 44.3733 21.2907 44.4587 21.376 44.544L21.888 44.736C22.656 45.2907 23.232 45.6747 23.616 45.888C24 46.1013 24.64 46.336 25.536 46.592C25.8773 46.6773 26.2187 46.784 26.56 46.912C26.9013 46.9973 27.2427 47.04 27.584 47.04C27.6267 47.04 27.648 47.0613 27.648 47.104C27.648 47.104 27.6693 47.104 27.712 47.104C27.8827 47.104 28.032 47.1253 28.16 47.168C28.3307 47.2107 28.5013 47.232 28.672 47.232C28.7147 47.232 28.7573 47.232 28.8 47.232C28.8427 47.1893 28.8853 47.168 28.928 47.168C29.0133 47.168 29.0773 47.1893 29.12 47.232C29.1627 47.232 29.2053 47.232 29.248 47.232C29.5893 47.232 29.9307 47.232 30.272 47.232C30.6133 47.232 30.9333 47.2107 31.232 47.168C31.5733 47.168 31.9147 47.1253 32.256 47.04C32.5973 46.9547 32.9173 46.912 33.216 46.912C33.8133 46.8693 34.3893 46.7627 34.944 46.592C35.5413 46.3787 36.1173 46.1867 36.672 46.016C36.7147 45.9733 37.0773 45.824 37.76 45.568C38.4853 45.2693 39.232 44.9493 40 44.608C40.1707 44.096 40.256 43.4773 40.256 42.752C40.256 41.5573 40 40.4907 39.488 39.552C39.488 39.552 39.3813 39.488 39.168 39.36C38.9547 39.1893 38.8267 39.104 38.784 39.104V38.976C38.784 38.7627 38.6773 38.656 38.464 38.656C38.2507 38.6133 38.0587 38.4853 37.888 38.272C37.8027 38.144 37.696 38.0373 37.568 37.952V37.888C37.44 37.8027 37.4187 37.7387 37.504 37.696C37.632 37.6107 37.7173 37.5467 37.76 37.504L37.632 37.376H37.568C37.4827 37.2907 37.376 37.2267 37.248 37.184C37.12 37.1413 37.0133 37.056 36.928 36.928L36.608 36.672C36.5653 36.5867 36.48 36.544 36.352 36.544C36.224 36.544 36.1173 36.5227 36.032 36.48C35.8613 36.352 35.6693 36.2027 35.456 36.032C35.2427 35.8613 35.0293 35.7333 34.816 35.648H34.752C34.5813 35.5627 34.4107 35.456 34.24 35.328C34.112 35.2 33.9413 35.0933 33.728 35.008C33.6853 34.9227 33.6213 34.9227 33.536 35.008C33.4933 35.0507 33.4507 35.0507 33.408 35.008C33.2373 34.9227 33.088 34.7947 32.96 34.624C32.832 34.4107 32.6613 34.304 32.448 34.304H32.384C32.256 34.2187 32.1493 34.0907 32.064 33.92C32.0213 33.7067 31.9573 33.5573 31.872 33.472C31.488 33.2587 31.104 33.1093 30.72 33.024C30.336 32.9387 29.952 32.832 29.568 32.704C29.312 32.576 28.992 32.512 28.608 32.512C28.2667 32.4693 27.9893 32.4267 27.776 32.384C27.52 32.2987 27.392 32.1707 27.392 32C27.392 31.7867 27.6053 31.5733 28.032 31.36C28.2027 31.2747 28.3947 31.232 28.608 31.232C28.8213 31.1893 29.0133 31.168 29.184 31.168C29.6533 31.168 30.3787 31.04 31.36 30.784C32.384 30.528 33.536 30.1867 34.816 29.76C36.096 29.2907 37.3333 28.8 38.528 28.288C38.784 28.2027 38.976 28.1173 39.104 28.032C39.2747 27.9467 39.4027 27.968 39.488 28.096C39.4027 28.096 39.36 28.16 39.36 28.288C39.5733 28.288 39.7013 28.224 39.744 28.096C39.8293 27.9253 39.9147 27.7547 40 27.584H40.064L41.28 26.944C41.4507 26.9013 41.6 26.9227 41.728 27.008C41.8987 27.0507 42.048 27.0293 42.176 26.944C42.1333 26.8587 42.0693 26.7947 41.984 26.752C41.9413 26.6667 41.984 26.5813 42.112 26.496C42.1973 26.4107 42.2613 26.368 42.304 26.368C42.56 26.1973 42.7947 26.0907 43.008 26.048C43.264 25.9627 43.456 25.792 43.584 25.536C44.2667 25.0667 44.8427 24.576 45.312 24.064C45.7813 23.5093 46.016 22.9973 46.016 22.528C46.016 21.9307 45.5893 21.4187 44.736 20.992C43.9253 20.5227 42.4533 20.1387 40.32 19.84C40.2347 19.84 40.1493 19.84 40.064 19.84C39.9787 19.7973 39.8933 19.776 39.808 19.776C39.2533 19.776 38.72 19.648 38.208 19.392C38.2507 19.5627 38.1653 19.648 37.952 19.648C37.3547 19.6053 36.7573 19.584 36.16 19.584C35.5627 19.5413 34.9867 19.52 34.432 19.52C33.4933 19.52 32.6187 19.5413 31.808 19.584C31.04 19.6267 30.4853 19.6693 30.144 19.712C29.8027 19.7547 29.44 19.7973 29.056 19.84C28.7147 19.84 28.3733 19.8827 28.032 19.968C27.776 19.8827 27.52 19.9253 27.264 20.096H27.2C26.9013 20.1387 26.6027 20.1813 26.304 20.224C26.0053 20.2667 25.6853 20.3307 25.344 20.416C25.1733 20.4587 24.9813 20.5013 24.768 20.544C24.5547 20.544 24.3413 20.5867 24.128 20.672L22.848 20.928C22.6773 21.056 22.4853 21.1627 22.272 21.248C22.1013 21.2907 21.9093 21.2907 21.696 21.248H21.632L20.416 21.568H20.352C20.224 21.568 20.0747 21.4827 19.904 21.312C19.776 21.0987 19.6907 20.9067 19.648 20.736C19.6053 20.992 19.5413 21.2693 19.456 21.568C19.3707 21.8667 19.2213 22.016 19.008 22.016L17.216 22.592C17.0453 22.6347 16.8533 22.656 16.64 22.656C16.4267 22.656 16.2133 22.656 16 22.656C15.7867 22.656 15.616 22.6773 15.488 22.72C15.36 22.7627 15.2747 22.8693 15.232 23.04C15.232 23.168 15.168 23.2747 15.04 23.36C14.8693 23.5307 14.656 23.6587 14.4 23.744C14.144 23.7867 13.9093 23.8507 13.696 23.936H13.632C13.5467 23.936 13.4187 23.8933 13.248 23.808C13.12 23.7227 13.0133 23.7013 12.928 23.744C12.8853 23.7867 12.8427 23.8933 12.8 24.064C12.7573 24.2347 12.6933 24.3413 12.608 24.384V24.448C12.352 24.5333 12.0747 24.64 11.776 24.768C11.4773 24.896 11.2 25.024 10.944 25.152C10.688 25.28 10.3893 25.4293 10.048 25.6C9.74933 25.728 9.49333 25.8133 9.28 25.856C9.19467 25.856 9.152 25.7707 9.152 25.6C9.19467 25.4293 9.17333 25.3867 9.088 25.472C8.832 25.6 8.576 25.8347 8.32 26.176C8.064 26.5173 7.82933 26.752 7.616 26.88C7.40267 27.0507 7.168 27.136 6.912 27.136C6.69867 27.136 6.48533 27.2213 6.272 27.392C6.144 27.52 6.016 27.7333 5.888 28.032C5.80267 28.288 5.696 28.48 5.568 28.608C5.22667 28.9493 4.88533 29.3547 4.544 29.824C4.50133 29.9093 4.43733 29.9947 4.352 30.08C4.26667 30.1653 4.224 30.272 4.224 30.4H4.16C3.904 30.912 3.776 31.4027 3.776 31.872C3.776 32.8107 4.11733 33.4933 4.8 33.92C5.52533 34.3467 6.336 34.6667 7.232 34.88C7.40267 34.9227 7.552 34.9867 7.68 35.072C7.85067 35.1573 8.02133 35.1787 8.192 35.136C8.36267 35.0507 8.512 35.008 8.64 35.008C8.85333 35.008 9.024 35.0933 9.152 35.264L10.112 35.456C10.624 35.584 10.88 35.712 10.88 35.84C10.88 35.9253 10.752 36.0107 10.496 36.096C10.2827 36.1387 10.0693 36.16 9.856 36.16C9.088 36.16 8.14933 36.0107 7.04 35.712C5.93067 35.3707 4.928 34.88 4.032 34.24C3.136 33.5573 2.624 32.7253 2.496 31.744C2.496 31.7013 2.432 31.5947 2.304 31.424C2.21867 31.2533 2.15467 31.104 2.112 30.976C1.984 30.592 1.92 30.208 1.92 29.824C1.92 29.0987 2.06933 28.416 2.368 27.776C2.70933 27.136 3.15733 26.5387 3.712 25.984C3.92533 25.7707 4.11733 25.6213 4.288 25.536C4.50133 25.4507 4.736 25.3227 4.992 25.152C5.248 24.9813 5.376 24.832 5.376 24.704C5.376 24.576 5.504 24.4267 5.76 24.256C6.10133 24.0427 6.57067 23.7867 7.168 23.488C7.808 23.1893 8.29867 22.9547 8.64 22.784C8.896 22.784 9.13067 22.6773 9.344 22.464C10.1973 22.08 11.0933 21.7387 12.032 21.44C12.9707 21.0987 13.9093 20.7787 14.848 20.48C15.104 20.352 15.36 20.288 15.616 20.288C15.872 20.288 16.064 20.352 16.192 20.48C16.192 20.3947 16.1707 20.3307 16.128 20.288C16.128 20.2027 16.1707 20.1387 16.256 20.096C17.3227 19.7547 18.3893 19.4773 19.456 19.264C20.5227 19.008 21.5467 18.7947 22.528 18.624H22.592C22.72 18.624 22.912 18.5813 23.168 18.496H23.232C23.3173 18.496 23.3813 18.496 23.424 18.496C23.5093 18.4533 23.5947 18.432 23.68 18.432C23.936 18.56 24.192 18.5173 24.448 18.304C25.6 18.0907 26.6667 17.9413 27.648 17.856C28.6293 17.728 29.4613 17.664 30.144 17.664H30.336C30.4213 17.664 30.5067 17.664 30.592 17.664C30.72 17.6213 30.8267 17.6 30.912 17.6H31.552C31.68 17.5573 31.808 17.5573 31.936 17.6C32.1067 17.6 32.2347 17.6 32.32 17.6H32.384C32.896 17.6 33.4293 17.6213 33.984 17.664C34.5813 17.664 35.1787 17.664 35.776 17.664H35.84C36.0107 17.7067 36.1387 17.7707 36.224 17.856C36.352 17.9413 36.5013 17.8987 36.672 17.728C37.824 17.7707 38.976 17.8987 40.128 18.112C40.768 18.1973 41.536 18.368 42.432 18.624C43.3707 18.8373 44.2667 19.1573 45.12 19.584C45.9733 19.968 46.6773 20.4587 47.232 21.056C47.8293 21.6533 48.128 22.3787 48.128 23.232C48.128 23.5733 48.064 23.936 47.936 24.32C47.808 24.704 47.5733 25.0667 47.232 25.408C46.8907 25.7067 46.5493 26.0267 46.208 26.368L45.44 27.072L44.992 27.2L44.48 27.456C43.5413 27.8827 42.5173 28.3733 41.408 28.928C40.2987 29.44 39.1253 29.8453 37.888 30.144L37.312 30.272H37.248V30.336H37.184C37.0987 30.3787 36.992 30.4 36.864 30.4C36.736 30.3573 36.608 30.3787 36.48 30.464C34.3893 31.0187 32.4053 31.4027 30.528 31.616C30.1013 31.6587 29.888 31.744 29.888 31.872C29.888 31.9573 30.0373 32.064 30.336 32.192C30.6773 32.2773 30.9333 32.3627 31.104 32.448C31.9147 32.704 32.768 32.9813 33.664 33.28C34.56 33.536 35.4773 33.856 36.416 34.24C36.672 34.2827 36.928 34.368 37.184 34.496C37.4827 34.624 37.696 34.816 37.824 35.072C37.8667 34.9867 37.9307 34.9653 38.016 35.008C38.1013 35.0507 38.1653 35.072 38.208 35.072C38.7627 35.328 39.296 35.6053 39.808 35.904C40.32 36.2027 40.7893 36.5227 41.216 36.864C41.3013 37.0773 41.344 37.184 41.344 37.184C41.6427 37.184 41.856 37.2693 41.984 37.44C42.112 37.6107 42.2613 37.8027 42.432 38.016C42.9013 38.528 43.264 39.0827 43.52 39.68C43.776 40.2347 43.904 40.832 43.904 41.472C43.904 41.6427 43.8827 41.8133 43.84 41.984C43.84 42.1547 43.8187 42.3467 43.776 42.56C44.7573 42.0053 45.4827 41.28 45.952 40.384C46.0373 40.256 46.144 40.192 46.272 40.192C46.528 40.192 46.6133 40.3413 46.528 40.64C46.3147 41.1947 45.9093 41.8133 45.312 42.496C44.7573 43.136 44.1173 43.6267 43.392 43.968C43.392 44.0107 43.3707 44.0533 43.328 44.096C43.1147 44.608 42.9013 44.992 42.688 45.248C42.6453 45.4187 42.56 45.5467 42.432 45.632C42.3467 45.7173 42.2827 45.824 42.24 45.952L42.176 46.016L41.92 46.144C41.8773 46.1867 41.8347 46.2507 41.792 46.336C41.792 46.4213 41.7493 46.5067 41.664 46.592C41.7493 46.6773 41.728 46.72 41.6 46.72C40.5333 48 39.168 49.0667 37.504 49.92H37.44C37.1413 50.0907 37.0347 50.1333 37.12 50.048C37.2053 50.0053 37.2053 49.9413 37.12 49.856H37.056C36.7147 50.0267 36.5013 50.1547 36.416 50.24C36.288 50.24 36.1387 50.2827 35.968 50.368C35.84 50.4533 35.776 50.496 35.776 50.496H35.456C35.4133 50.496 35.3067 50.5387 35.136 50.624C35.008 50.752 34.9013 50.8373 34.816 50.88C34.6027 50.88 34.4533 50.944 34.368 51.072C34.2827 51.072 34.176 51.072 34.048 51.072C33.92 51.072 33.792 51.0933 33.664 51.136C33.6213 51.1787 33.408 51.2 33.024 51.2C32.6827 51.2427 32.4693 51.2853 32.384 51.328C32.3413 51.3707 32.192 51.4347 31.936 51.52C31.68 51.6053 31.5093 51.648 31.424 51.648C31.3813 51.648 31.3387 51.6267 31.296 51.584C31.296 51.584 31.2747 51.584 31.232 51.584C31.1893 51.584 31.1467 51.6053 31.104 51.648C31.0613 51.7333 30.9973 51.776 30.912 51.776C30.8267 51.776 30.7413 51.7547 30.656 51.712C30.5707 51.6693 30.4853 51.648 30.4 51.648C30.3573 51.648 30.272 51.6693 30.144 51.712C30.0587 51.7973 29.9733 51.84 29.888 51.84C29.8027 51.84 29.7173 51.8187 29.632 51.776C29.5893 51.776 29.504 51.7973 29.376 51.84C29.2907 51.8827 29.2053 51.904 29.12 51.904ZM13.184 52.608C12.8853 52.608 12.736 52.288 12.736 51.648C12.736 51.2213 12.8213 50.688 12.992 50.048C13.2053 49.4507 13.4613 48.7467 13.76 47.936C14.1013 47.6373 14.272 47.2533 14.272 46.784C14.3573 46.8267 14.4 46.8267 14.4 46.784C14.4427 46.6987 14.464 46.656 14.464 46.656C14.5493 46.528 14.592 46.4 14.592 46.272C14.592 46.1013 14.6133 45.952 14.656 45.824C15.424 43.904 16.4053 41.8133 17.6 39.552C17.6853 39.3813 17.7707 39.3387 17.856 39.424C17.984 39.4667 18.0693 39.4453 18.112 39.36C18.1547 39.3173 18.176 39.2107 18.176 39.04C18.176 38.912 18.1547 38.784 18.112 38.656C18.112 38.528 18.176 38.3787 18.304 38.208L19.2 36.608C20.4373 34.3893 21.6747 32.256 22.912 30.208C24.192 28.16 25.3867 26.5813 26.496 25.472L26.688 25.344L26.88 25.024C26.88 25.024 26.9227 25.0027 27.008 24.96C27.0933 24.9173 27.1573 24.9387 27.2 25.024C27.2 25.0667 27.1573 25.152 27.072 25.28C27.0293 25.408 27.008 25.4933 27.008 25.536C27.136 25.7493 27.2853 25.7707 27.456 25.6C27.4987 25.5147 27.4987 25.3227 27.456 25.024C27.4133 24.7253 27.4133 24.576 27.456 24.576C27.5413 24.5333 27.584 24.5333 27.584 24.576C27.6267 24.6187 27.6693 24.64 27.712 24.64C27.7973 24.64 27.84 24.576 27.84 24.448C27.84 24.32 27.8613 24.2347 27.904 24.192C28.3733 24.0213 28.8 23.936 29.184 23.936C29.3973 23.936 29.696 24.0427 30.08 24.256C30.5067 24.4693 30.72 24.768 30.72 25.152C30.72 25.3653 30.6133 25.6213 30.4 25.92C30.3573 25.9627 30.3147 26.048 30.272 26.176C30.2293 26.2613 30.1653 26.3467 30.08 26.432C30.0373 26.4747 29.9947 26.496 29.952 26.496C29.952 26.4533 29.9093 26.4533 29.824 26.496C29.7813 26.5387 29.7173 26.56 29.632 26.56C29.5893 26.5173 29.5253 26.496 29.44 26.496C29.3547 26.496 29.3333 26.56 29.376 26.688C29.4613 26.816 29.4827 26.9013 29.44 26.944C29.3973 26.9867 29.3547 26.9867 29.312 26.944C29.2693 26.9013 29.2053 26.9227 29.12 27.008C29.0773 27.0507 29.0987 27.0933 29.184 27.136C29.312 27.136 29.3333 27.1787 29.248 27.264C28.992 27.52 28.672 27.7973 28.288 28.096C27.9467 28.352 27.6053 28.608 27.264 28.864C27.2213 28.9067 27.1787 28.9067 27.136 28.864C27.0933 28.7787 27.0507 28.7573 27.008 28.8L26.56 29.44C26.1333 29.8667 25.7067 30.3147 25.28 30.784C24.8533 31.2533 24.4053 31.7867 23.936 32.384C23.808 32.64 23.6587 32.8747 23.488 33.088C23.3173 33.3013 23.0827 33.3867 22.784 33.344C22.784 33.3867 22.8267 33.4507 22.912 33.536C22.9973 33.5787 22.9973 33.664 22.912 33.792C22.1867 34.816 21.4613 35.8827 20.736 36.992C20.0107 38.1013 19.328 39.2533 18.688 40.448C18.3893 40.96 18.0267 41.6213 17.6 42.432L17.024 43.584C16.9813 43.712 16.9173 43.776 16.832 43.776C16.7893 43.7333 16.7253 43.712 16.64 43.712C16.7253 43.8827 16.768 44.032 16.768 44.16C16.768 44.5013 16.576 44.864 16.192 45.248C15.6373 46.528 15.1253 47.744 14.656 48.896C14.1867 50.048 13.824 51.1147 13.568 52.096C13.4827 52.4373 13.3547 52.608 13.184 52.608ZM29.376 50.816H29.504C29.5893 50.8587 29.696 50.816 29.824 50.688H30.08C30.2507 50.6027 30.3573 50.56 30.4 50.56C30.4853 50.56 30.5493 50.6027 30.592 50.688C30.6347 50.816 30.7413 50.816 30.912 50.688L31.168 50.624C31.2533 50.5387 31.3387 50.496 31.424 50.496C31.5093 50.496 31.5947 50.4747 31.68 50.432C31.7653 50.3893 31.808 50.3253 31.808 50.24C31.8507 50.1973 31.9147 50.1973 32 50.24C32.0853 50.24 32.128 50.24 32.128 50.24C32.1707 50.2827 32.2133 50.304 32.256 50.304H32.32C32.448 50.304 32.6187 50.24 32.832 50.112C33.0453 49.984 33.152 49.92 33.152 49.92C33.2373 49.92 33.3227 49.856 33.408 49.728C33.4933 49.6427 33.5573 49.6 33.6 49.6L34.112 49.472C34.368 49.344 34.56 49.28 34.688 49.28C34.7307 49.1947 34.8587 49.1093 35.072 49.024C35.2853 48.9387 35.392 48.8747 35.392 48.832C35.4773 48.7467 35.6053 48.6827 35.776 48.64C35.9467 48.5973 36.0533 48.5547 36.096 48.512C36.2667 48.512 36.672 48.256 37.312 47.744C37.9947 47.232 38.5707 46.5707 39.04 45.76C39.0827 45.6747 38.9547 45.696 38.656 45.824C38.3573 45.952 38.0373 46.1013 37.696 46.272C37.3973 46.4 37.2267 46.464 37.184 46.464C37.1413 46.464 37.0347 46.5493 36.864 46.72C36.6933 46.848 36.5867 46.912 36.544 46.912C36.4587 46.9973 36.3733 47.04 36.288 47.04C36.288 47.04 36.2027 46.9973 36.032 46.912V47.04C35.9467 47.04 35.8827 47.0613 35.84 47.104C35.7973 47.104 35.7333 47.104 35.648 47.104C35.5627 47.104 35.4347 47.1467 35.264 47.232C35.0933 47.3173 34.9867 47.36 34.944 47.36C34.9013 47.36 34.8373 47.3813 34.752 47.424C34.7093 47.424 34.6453 47.4027 34.56 47.36C34.3893 47.5307 34.0693 47.6587 33.6 47.744C33.1307 47.8293 32.7893 47.872 32.576 47.872C32.5333 47.872 32.512 47.872 32.512 47.872C32.5547 47.8293 32.5547 47.808 32.512 47.808C32.4693 47.808 32.4267 47.8293 32.384 47.872C32.3413 47.872 32.2773 47.872 32.192 47.872L32.064 48H31.552C31.424 48 31.2747 48.0213 31.104 48.064C30.976 48.1067 30.8693 48.1067 30.784 48.064H30.656C30.6133 48.064 30.5493 48.064 30.464 48.064C30.4213 48.1067 30.3573 48.128 30.272 48.128C30.2293 48.128 30.1867 48.1067 30.144 48.064C30.144 48.0213 30.1013 47.9787 30.016 47.936C29.9733 47.936 29.9307 47.9573 29.888 48C29.8453 48.0853 29.7813 48.128 29.696 48.128C29.6533 48.128 29.6107 48.1067 29.568 48.064C29.568 48.064 29.5467 48.064 29.504 48.064H29.248C29.248 48.1067 29.2053 48.128 29.12 48.128C29.0773 48.128 29.056 48.1067 29.056 48.064C29.056 48.064 29.0347 48.064 28.992 48.064C28.9067 48.064 28.8 48.0853 28.672 48.128C28.5867 48.1707 28.5013 48.192 28.416 48.192H28.288C28.288 48.1067 28.2453 48.0427 28.16 48V48.064H27.584C27.328 48.0213 27.072 47.936 26.816 47.808C26.56 47.68 26.3253 47.5947 26.112 47.552C26.0693 47.552 26.0267 47.5733 25.984 47.616C25.984 47.6587 25.9627 47.68 25.92 47.68C25.8773 47.68 25.8347 47.6587 25.792 47.616C25.792 47.5733 25.7707 47.552 25.728 47.552C25.6853 47.552 25.6427 47.5733 25.6 47.616C25.6 47.616 25.5573 47.5733 25.472 47.488C25.3867 47.488 25.216 47.4453 24.96 47.36C24.96 47.232 24.896 47.168 24.768 47.168C24.768 47.0827 24.512 46.976 24 46.848C23.488 46.72 23.1893 46.6347 23.104 46.592C23.0613 46.5493 22.976 46.4853 22.848 46.4C22.7627 46.3147 22.6987 46.3147 22.656 46.4C22.528 46.3573 22.3573 46.2507 22.144 46.08C21.9307 45.8667 21.76 45.76 21.632 45.76L21.376 45.376H21.312L21.12 45.696C21.12 45.7387 21.1413 45.8453 21.184 46.016C21.2693 46.1867 21.2907 46.3147 21.248 46.4C21.3333 46.4427 21.376 46.528 21.376 46.656C21.376 46.784 21.4187 46.848 21.504 46.848C21.504 47.104 21.5893 47.36 21.76 47.616C21.76 47.6587 21.8667 47.744 22.08 47.872C22.336 48 22.4427 48.0853 22.4 48.128C22.5707 48.2987 22.656 48.4267 22.656 48.512C22.8267 48.6827 22.912 48.8107 22.912 48.896C22.9547 48.9387 22.976 48.96 22.976 48.96C23.0187 48.96 23.04 48.96 23.04 48.96C23.0827 49.0453 23.1893 49.1947 23.36 49.408C23.5733 49.6213 23.7227 49.728 23.808 49.728H23.936C23.9787 49.7707 24.064 49.856 24.192 49.984C24.3627 50.112 24.4693 50.176 24.512 50.176H24.576C24.9173 50.176 25.2587 50.2187 25.6 50.304C25.984 50.432 26.3467 50.5173 26.688 50.56C26.688 50.56 26.7307 50.5813 26.816 50.624C26.944 50.6667 27.072 50.7093 27.2 50.752C27.5413 50.7947 27.9467 50.7947 28.416 50.752C28.8853 50.752 29.2053 50.7733 29.376 50.816ZM60.0275 48.192C59.7715 48.192 59.6435 48.0427 59.6435 47.744C59.6435 47.5307 59.7075 47.2747 59.8355 46.976C60.1768 46.2507 60.5608 45.2267 60.9875 43.904C61.4568 42.5813 62.0328 41.4507 62.7155 40.512C63.1848 39.5733 63.6115 38.656 63.9955 37.76C64.4222 36.8213 64.8275 35.8827 65.2115 34.944C65.2115 34.944 65.1688 34.9227 65.0835 34.88C64.9982 34.7947 64.9555 34.7093 64.9555 34.624C64.7422 34.4533 64.4862 34.2187 64.1875 33.92C63.8888 33.5787 63.8675 33.2373 64.1235 32.896C64.2088 32.8107 64.2515 32.768 64.2515 32.768C64.2942 32.768 64.3155 32.768 64.3155 32.768C64.3155 32.7253 64.2942 32.704 64.2515 32.704C64.2515 32.704 64.2515 32.6827 64.2515 32.64L64.1875 32.576C64.1448 32.576 64.1022 32.576 64.0595 32.576C64.0595 32.5333 64.0382 32.512 63.9955 32.512C63.8248 32.512 63.6328 32.5547 63.4195 32.64C63.2062 32.6827 62.9928 32.704 62.7795 32.704C62.5235 32.704 62.1822 32.8107 61.7555 33.024C61.3288 33.1947 60.9448 33.344 60.6035 33.472C60.4328 33.5147 60.3262 33.536 60.2835 33.536C60.2835 33.4933 60.1982 33.5147 60.0275 33.6C59.9848 33.6427 59.9848 33.5787 60.0275 33.408C60.1128 33.1947 60.1555 33.0453 60.1555 32.96C60.1555 32.9173 60.1342 32.896 60.0915 32.896C60.0062 32.896 59.8355 33.024 59.5795 33.28C59.3235 33.4933 59.1528 33.6213 59.0675 33.664C59.0248 33.7067 59.0035 33.7707 59.0035 33.856C59.0462 33.9413 59.0675 34.0267 59.0675 34.112C59.0675 34.24 58.9608 34.3893 58.7475 34.56C58.5342 34.688 58.3848 34.7947 58.2995 34.88C58.1288 35.008 57.9155 35.0933 57.6595 35.136C57.4462 35.136 57.2328 35.2213 57.0195 35.392C56.7635 35.5627 56.6355 35.6907 56.6355 35.776C56.6782 35.8613 56.5502 36.0107 56.2515 36.224C55.8675 36.5227 55.3342 36.9707 54.6515 37.568C54.0115 38.1653 53.5208 38.6987 53.1795 39.168C52.3688 40.1493 51.6222 41.28 50.9395 42.56C50.2995 43.84 49.9795 44.8427 49.9795 45.568C49.9795 46.1227 50.2142 46.4 50.6835 46.4C50.7688 46.4 50.8542 46.4 50.9395 46.4C51.0248 46.3573 51.1315 46.3147 51.2595 46.272L52.9235 45.312L53.3075 45.248V45.184L53.5635 45.376C53.6062 45.3333 53.5848 45.2693 53.4995 45.184C53.4568 45.056 53.4568 44.992 53.4995 44.992C53.5422 44.992 53.5635 45.0133 53.5635 45.056C53.6062 45.056 53.6488 45.056 53.6915 45.056L53.8195 44.864C53.8195 44.864 53.8835 44.8853 54.0115 44.928C54.1822 44.928 54.3102 44.8853 54.3955 44.8C54.5235 44.7573 54.5448 44.6933 54.4595 44.608C54.4168 44.5227 54.3528 44.4587 54.2675 44.416L54.7155 44.032C54.7582 43.9467 54.9288 43.8613 55.2275 43.776C55.9528 43.3067 56.5502 42.752 57.0195 42.112C57.5315 41.4293 58.1075 40.8107 58.7475 40.256H58.8115L59.5795 39.488L59.5155 39.296L60.3475 38.336H60.4755C60.5182 38.2507 60.6035 38.144 60.7315 38.016C60.9022 37.888 61.0088 37.7813 61.0515 37.696C61.1368 37.6533 61.3288 37.44 61.6275 37.056C61.9688 36.6293 62.2888 36.288 62.5875 36.032C62.9288 35.776 63.1208 35.648 63.1635 35.648C63.2062 35.648 63.2275 35.6693 63.2275 35.712C63.2275 35.84 63.1635 36.032 63.0355 36.288C62.9502 36.544 62.8648 36.7147 62.7795 36.8C62.4808 37.2693 62.0968 37.8027 61.6275 38.4C61.1582 38.9547 60.8808 39.296 60.7955 39.424C60.2835 39.9787 59.6648 40.7253 58.9395 41.664C58.2142 42.56 57.4248 43.456 56.5715 44.352C55.7182 45.248 54.8648 46.016 54.0115 46.656C53.2008 47.2533 52.4328 47.552 51.7075 47.552C51.0248 47.552 50.2995 47.3387 49.5315 46.912C48.7635 46.4853 48.3795 45.6747 48.3795 44.48C48.3795 44.096 48.4222 43.6693 48.5075 43.2C48.6355 42.688 48.8275 42.1547 49.0835 41.6C49.0835 41.6 49.1262 41.5573 49.2115 41.472C49.2968 41.344 49.3608 41.3013 49.4035 41.344C49.4888 41.216 49.5102 41.088 49.4675 40.96C49.4675 40.7893 49.4675 40.6827 49.4675 40.64L49.5955 40.512C49.6808 40.0427 50.0008 39.616 50.5555 39.232C51.1102 38.848 51.4088 38.5493 51.4515 38.336C51.4942 38.2933 51.5155 38.2293 51.5155 38.144L51.7715 37.312V37.056H52.0275L52.2195 36.8L52.2835 36.672C52.1982 36.6293 52.2195 36.5653 52.3475 36.48C52.5182 36.352 52.6035 36.288 52.6035 36.288C52.6462 36.2027 52.6888 36.1387 52.7315 36.096C52.8168 36.0533 52.8808 36.0107 52.9235 35.968H53.3715C53.4568 35.84 53.4142 35.776 53.2435 35.776C53.0728 35.776 52.9875 35.776 52.9875 35.776C52.9875 35.7333 52.9875 35.712 52.9875 35.712C53.0302 35.6693 53.0515 35.6267 53.0515 35.584L53.7555 35.008C53.9688 34.8373 54.1822 34.688 54.3955 34.56C54.6088 34.432 54.8008 34.2827 54.9715 34.112C55.0995 34.112 55.1208 34.176 55.0355 34.304C55.0782 34.3893 55.1208 34.3893 55.1635 34.304C55.2488 34.2187 55.2915 34.176 55.2915 34.176L55.6115 34.112V34.048C55.6115 33.9627 55.6328 33.8347 55.6755 33.664C55.7182 33.4933 55.7395 33.3867 55.7395 33.344C56.6355 32.6613 57.5742 32.064 58.5555 31.552C59.5368 30.9973 60.4968 30.72 61.4355 30.72C62.5448 30.72 63.5475 31.1467 64.4435 32L64.7635 32.192C64.8062 32.192 64.8275 32.1707 64.8275 32.128C64.9128 31.5307 65.4035 31.0827 66.2995 30.784C67.2382 30.4853 68.0702 30.336 68.7955 30.336C69.5635 30.336 69.9475 30.4427 69.9475 30.656C69.9475 30.7413 69.8195 30.8907 69.5635 31.104C69.4355 31.1893 69.2222 31.3813 68.9235 31.68C68.6248 31.9787 68.3262 32.3413 68.0275 32.768C67.9848 32.896 67.9208 33.024 67.8355 33.152C67.7502 33.28 67.6648 33.408 67.5795 33.536C67.5368 33.6213 67.4728 33.728 67.3875 33.856C67.3448 33.9413 67.2808 34.0267 67.1955 34.112C66.4702 35.3493 65.8942 36.3947 65.4675 37.248C65.0408 38.1013 64.5288 39.1893 63.9315 40.512C63.8462 40.768 63.8035 40.9173 63.8035 40.96C63.8035 41.3013 63.9955 41.472 64.3795 41.472C64.6355 41.472 64.8915 41.408 65.1475 41.28L65.7875 41.024C66.8115 40.0853 67.8782 39.296 68.9875 38.656C69.0302 38.656 69.0515 38.656 69.0515 38.656C69.0942 38.6133 69.1368 38.592 69.1795 38.592C69.3075 38.592 69.3928 38.6773 69.4355 38.848C69.4782 38.976 69.4355 39.0827 69.3075 39.168C68.0702 39.8507 66.9182 40.7253 65.8515 41.792C65.8088 41.8773 65.7662 41.9627 65.7235 42.048C65.6808 42.1333 65.6168 42.2187 65.5315 42.304C65.4035 42.3893 65.2755 42.5387 65.1475 42.752C65.0195 42.9653 64.9555 43.0933 64.9555 43.136C64.9128 43.264 64.8488 43.3067 64.7635 43.264C64.7208 43.2213 64.5928 43.2853 64.3795 43.456C64.3368 43.4987 64.2942 43.584 64.2515 43.712C64.2515 43.84 64.2302 43.9467 64.1875 44.032C64.1022 44.16 64.0168 44.2667 63.9315 44.352C63.8462 44.3947 63.8035 44.4373 63.8035 44.48C63.7608 44.6507 63.6755 44.7573 63.5475 44.8C63.4622 44.8 63.3768 44.8427 63.2915 44.928C63.2488 44.928 63.2275 44.9493 63.2275 44.992C63.2275 45.376 63.1848 45.5467 63.0995 45.504C63.0142 45.4613 62.9288 45.504 62.8435 45.632C62.7582 45.8027 62.6515 45.888 62.5235 45.888C62.2675 45.9733 62.1608 46.0373 62.2035 46.08C62.2888 46.1227 62.3528 46.1653 62.3955 46.208C62.4808 46.208 62.4168 46.272 62.2035 46.4C62.1182 46.4427 62.0328 46.5707 61.9475 46.784C61.8622 46.9547 61.7768 47.0827 61.6915 47.168C61.5635 47.2533 61.4355 47.3173 61.3075 47.36C61.1795 47.4027 61.0728 47.488 60.9875 47.616C60.6035 48 60.2835 48.192 60.0275 48.192ZM65.8805 66.752C64.4725 66.752 63.3205 66.4747 62.4245 65.92C61.5285 65.3653 61.0805 64.5547 61.0805 63.488C61.1232 63.4453 61.1658 63.2533 61.2085 62.912C61.2512 62.6133 61.2512 62.4213 61.2085 62.336L61.4645 61.824C61.6352 61.5253 61.7845 61.3333 61.9125 61.248H61.9765V61.184C61.9765 61.0987 61.9978 60.992 62.0405 60.864C62.0832 60.7787 62.1258 60.7147 62.1685 60.672L62.4245 60.224L62.8725 60.032H62.9365V59.968C62.8938 59.84 63.0858 59.5627 63.5125 59.136C63.8965 58.7093 64.3445 58.2613 64.8565 57.792C65.3685 57.3227 65.7312 57.024 65.9445 56.896L67.0325 56C67.1605 55.872 67.3312 55.744 67.5445 55.616C67.7152 55.5307 67.8645 55.4667 67.9925 55.424C68.1205 55.296 68.2485 55.168 68.3765 55.04C68.5472 54.9547 68.6965 54.8693 68.8245 54.784C68.9098 54.6987 69.0165 54.6133 69.1445 54.528C69.3152 54.4427 69.4645 54.3787 69.5925 54.336C69.6352 54.2507 69.7418 54.1653 69.9125 54.08C69.9978 53.9947 70.0832 53.9307 70.1685 53.888C70.2965 53.8453 70.3818 53.8027 70.4245 53.76L71.7685 52.992C72.5365 52.5227 73.0272 52.224 73.2405 52.096C73.4538 51.968 73.7098 51.8187 74.0085 51.648C74.0938 51.5627 74.2005 51.4773 74.3285 51.392C74.4992 51.3493 74.4778 51.3067 74.2645 51.264C73.3258 50.88 72.5792 50.4533 72.0245 49.984L71.8965 49.792L71.7685 49.664C71.7258 49.536 71.6618 49.472 71.5765 49.472H71.5125C71.3845 49.472 71.2778 49.4293 71.1925 49.344C71.0218 49.2587 70.8085 49.1093 70.5525 48.896C70.3392 48.6827 70.1898 48.512 70.1045 48.384C70.0618 48.256 69.9978 48.128 69.9125 48C69.8272 47.872 69.7632 47.7227 69.7205 47.552C69.6778 47.552 69.6138 47.488 69.5285 47.36C69.4432 47.2747 69.4005 47.1253 69.4005 46.912C69.3578 46.8267 69.3365 46.7627 69.3365 46.72C69.3365 46.6347 69.3152 46.5707 69.2725 46.528C69.2298 46.4427 69.2085 46.336 69.2085 46.208C69.2085 46.08 69.2085 45.9733 69.2085 45.888V45.632C69.1658 45.504 69.1445 45.312 69.1445 45.056C69.1445 44.672 69.2512 44.2667 69.4645 43.84C69.5498 43.7547 69.5925 43.6907 69.5925 43.648C69.7632 43.2213 70.2752 43.008 71.1285 43.008C71.2565 43.008 71.3845 43.0293 71.5125 43.072C71.6832 43.072 71.8325 43.072 71.9605 43.072H72.6005C72.6005 43.072 72.6218 43.072 72.6645 43.072C72.7072 43.0293 72.7498 43.008 72.7925 43.008C72.7925 43.008 72.8138 43.008 72.8565 43.008C72.8992 42.9653 72.9418 42.944 72.9845 42.944L73.1765 43.008C73.2192 43.008 73.2832 43.0293 73.3685 43.072C73.4538 43.072 73.5178 43.072 73.5605 43.072H73.7525L73.4965 42.944V42.752C73.4965 42.5387 73.4538 42.3467 73.3685 42.176C73.2832 42.0053 73.1978 41.8773 73.1125 41.792C73.1978 41.7067 73.2405 41.6213 73.2405 41.536C73.2405 41.4507 73.1978 41.344 73.1125 41.216C73.0698 41.0453 73.0272 40.896 72.9845 40.768C73.1552 40.6827 73.1978 40.5547 73.1125 40.384C73.1125 40.3413 73.0912 40.2773 73.0485 40.192C73.0058 40.1067 72.9845 40.0213 72.9845 39.936V39.104L73.4965 38.272C73.5392 38.2293 73.5392 38.1653 73.4965 38.08C73.4965 37.952 73.5178 37.8453 73.5605 37.76C73.6032 37.5893 73.6885 37.44 73.8165 37.312C73.9872 37.184 74.0938 37.0347 74.1365 36.864C74.1792 36.8213 74.2005 36.672 74.2005 36.416C74.4565 36.288 74.7338 35.9893 75.0325 35.52C75.0752 35.4773 75.0965 35.392 75.0965 35.264C75.1392 35.136 75.1818 35.0507 75.2245 35.008C75.4378 34.7947 75.6725 34.5813 75.9285 34.368C76.1845 34.1547 76.4618 33.8987 76.7605 33.6C76.7605 33.472 76.6538 33.3867 76.4405 33.344C76.2272 33.2587 76.0565 33.1733 75.9285 33.088C75.7578 32.96 75.5445 32.832 75.2885 32.704C75.0752 32.5333 74.9258 32.448 74.8405 32.448C74.7552 32.448 74.6912 32.4693 74.6485 32.512C74.6485 32.512 74.6272 32.512 74.5845 32.512C74.4565 32.2987 74.3072 32.128 74.1365 32C74.0085 31.8293 73.8592 31.68 73.6885 31.552C73.6885 31.4667 73.7098 31.4027 73.7525 31.36C73.7952 31.2747 73.8165 31.1893 73.8165 31.104C73.8165 31.0187 73.7525 30.9333 73.6245 30.848C73.5392 30.72 73.4965 30.592 73.4965 30.464C73.4965 30.3787 73.5818 30.1867 73.7525 29.888C73.9232 29.5893 74.0512 29.44 74.1365 29.44C74.3072 29.44 74.4565 29.5467 74.5845 29.76C74.7552 29.9733 74.8405 30.1867 74.8405 30.4C74.9258 30.4427 75.0112 30.464 75.0965 30.464C75.2245 30.464 75.3098 30.4853 75.3525 30.528C75.5232 30.7413 75.8218 31.0613 76.2485 31.488C76.6752 31.872 77.0378 32.1067 77.3365 32.192C77.3365 32.2347 77.4218 32.2133 77.5925 32.128C77.8058 32 77.9765 31.936 78.1045 31.936C78.1898 31.936 78.2538 31.9147 78.2965 31.872C78.3818 31.7867 78.4672 31.744 78.5525 31.744C78.6805 31.744 78.7445 31.7867 78.7445 31.872C78.7872 31.9147 78.8512 31.936 78.9365 31.936C79.1072 31.936 79.2565 31.8293 79.3845 31.616C79.4698 31.5733 79.5552 31.5093 79.6405 31.424C79.7685 31.3387 79.8965 31.2747 80.0245 31.232C80.0672 31.232 80.1525 31.2533 80.2805 31.296C80.4512 31.3387 80.5792 31.36 80.6645 31.36C80.8778 31.36 81.0485 31.3173 81.1765 31.232C81.3472 31.1467 81.5178 31.104 81.6885 31.104C81.8592 31.1893 81.9658 31.2747 82.0085 31.36C82.0512 31.4027 82.1152 31.4667 82.2005 31.552C82.4138 31.7227 82.6272 31.872 82.8405 32C83.0538 32.128 83.2458 32.3413 83.4165 32.64C83.5018 32.5547 83.6938 32.512 83.9925 32.512C84.3338 32.512 84.7392 32.5547 85.2085 32.64C85.7205 32.7253 86.0618 32.7467 86.2325 32.704C86.3178 32.704 86.3818 32.704 86.4245 32.704C86.5098 32.6613 86.6165 32.64 86.7445 32.64C86.9578 32.64 87.0432 32.6827 87.0005 32.768C86.9578 32.8107 87.0005 32.832 87.1285 32.832C87.2138 32.832 87.4058 32.8107 87.7045 32.768C88.0458 32.6827 88.2592 32.64 88.3445 32.64C88.4298 32.6827 88.4725 32.7253 88.4725 32.768C88.5152 32.8107 88.5792 32.8533 88.6645 32.896C88.7498 32.896 88.9205 32.8747 89.1765 32.832C89.4752 32.7893 89.6672 32.768 89.7525 32.768C90.4778 32.8107 91.1392 32.7893 91.7365 32.704C92.3765 32.576 93.0592 32.4907 93.7845 32.448C93.9552 32.4907 94.0405 32.5973 94.0405 32.768C94.0405 32.9387 93.9552 33.024 93.7845 33.024C93.7418 33.024 93.6565 33.0667 93.5285 33.152C93.4005 33.1947 93.2938 33.1947 93.2085 33.152H92.8245C92.7392 33.152 92.6325 33.1733 92.5045 33.216C92.3765 33.216 92.2485 33.2587 92.1205 33.344C92.0778 33.3013 91.9925 33.28 91.8645 33.28C91.6938 33.28 91.5018 33.3653 91.2885 33.536C91.0752 33.7067 90.8618 33.8347 90.6485 33.92C90.6485 33.7067 90.5632 33.6213 90.3925 33.664C90.2645 33.7067 90.1365 33.7067 90.0085 33.664C89.9232 33.664 89.7525 33.728 89.4965 33.856C89.2832 33.9413 89.0698 34.0267 88.8565 34.112C88.8138 33.984 88.6645 33.8987 88.4085 33.856C88.2378 33.856 88.0885 33.984 87.9605 34.24C87.8325 34.496 87.2565 34.6027 86.2325 34.56C86.3178 34.7307 86.3605 34.8373 86.3605 34.88C86.4032 34.9227 86.3605 35.0293 86.2325 35.2C86.3178 35.2427 86.3818 35.264 86.4245 35.264C86.5098 35.264 86.5738 35.2853 86.6165 35.328C86.6165 35.456 86.6805 35.6053 86.8085 35.776C86.9792 35.9467 87.0858 36.1173 87.1285 36.288C87.2138 36.4587 87.2565 36.608 87.2565 36.736C87.2992 36.864 87.3205 36.9707 87.3205 37.056C87.3205 37.184 87.2565 37.4827 87.1285 37.952C86.9578 38.1227 86.7445 38.4213 86.4885 38.848C86.3178 39.0187 86.0832 39.2533 85.7845 39.552C85.4858 39.8507 85.2298 40.0213 85.0165 40.064C84.9738 40.1067 84.9312 40.1707 84.8885 40.256C84.8885 40.2987 84.8672 40.3627 84.8245 40.448C84.6538 40.576 84.3765 40.768 83.9925 41.024C83.6512 41.2373 83.4378 41.344 83.3525 41.344C83.2672 41.344 83.2458 41.344 83.2885 41.344C83.3312 41.3013 83.2885 41.28 83.1605 41.28C83.0752 41.28 83.0112 41.3013 82.9685 41.344C82.9685 41.3867 82.9472 41.4293 82.9045 41.472H82.8405C82.6698 41.472 82.4565 41.5573 82.2005 41.728C81.9445 41.856 81.8378 42.0053 81.8805 42.176C81.6672 42.176 81.4538 42.1973 81.2405 42.24C81.0272 42.2827 80.8778 42.368 80.7925 42.496C80.7072 42.5387 80.6005 42.6453 80.4725 42.816C80.3872 42.944 80.2592 43.0507 80.0885 43.136C79.9178 43.1787 79.7258 43.2213 79.5125 43.264C79.3418 43.264 79.1925 43.2853 79.0645 43.328C78.9792 43.3707 78.8938 43.4133 78.8085 43.456C78.7232 43.4987 78.6378 43.5627 78.5525 43.648C78.4672 43.6907 78.3605 43.712 78.2325 43.712C78.1045 43.6693 77.9765 43.6693 77.8485 43.712C77.8058 43.712 77.7632 43.7547 77.7205 43.84C77.6778 43.8827 77.6138 43.904 77.5285 43.904C77.4432 43.904 77.3792 43.8827 77.3365 43.84C77.2938 43.7547 77.2298 43.712 77.1445 43.712C77.0592 43.712 77.0165 43.7547 77.0165 43.84C77.0165 43.9253 76.9525 43.968 76.8245 43.968C76.7392 43.968 76.6965 43.968 76.6965 43.968C76.7392 43.9253 76.6965 43.904 76.5685 43.904C75.5018 43.904 74.9045 43.8613 74.7765 43.776C74.6485 43.6907 74.4778 43.5627 74.2645 43.392C74.1792 43.648 74.0512 43.7973 73.8805 43.84L73.3045 44.032L72.8565 44.224L72.2805 44.416C72.1098 44.5013 71.9392 44.5867 71.7685 44.672C71.6405 44.7147 71.5338 44.7573 71.4485 44.8L71.1925 44.992C71.1072 45.0773 71.0645 45.1413 71.0645 45.184C70.9792 45.2267 70.8938 45.4187 70.8085 45.76C70.7658 45.9307 70.7018 46.08 70.6165 46.208C70.5312 46.336 70.4885 46.5067 70.4885 46.72C70.4885 46.9333 70.5738 47.1893 70.7445 47.488C70.8298 47.744 70.9365 47.936 71.0645 48.064C71.1925 48.192 71.5338 48.4267 72.0885 48.768C72.1738 48.8107 72.3232 48.8747 72.5365 48.96C72.7498 49.0453 72.8778 49.1307 72.9205 49.216C73.0485 49.4293 73.1552 49.536 73.2405 49.536C73.2405 49.536 73.3045 49.536 73.4325 49.536C73.5178 49.536 73.6032 49.5147 73.6885 49.472C73.7738 49.472 73.8378 49.5147 73.8805 49.6C74.1365 49.6853 74.3925 49.7707 74.6485 49.856C74.9472 49.984 75.2245 50.0907 75.4805 50.176L76.3125 50.432C77.8912 49.6213 79.0218 49.0667 79.7045 48.768C80.3872 48.512 81.0698 48.2773 81.7525 48.064C81.9232 47.9787 82.1152 47.8933 82.3285 47.808C82.5845 47.7227 82.7125 47.744 82.7125 47.872C82.7125 47.9573 82.6485 48.064 82.5205 48.192C82.3925 48.3627 82.2218 48.4693 82.0085 48.512C81.4538 48.6827 80.8992 48.9387 80.3445 49.28C79.8325 49.664 78.9578 50.2187 77.7205 50.944C81.0058 52.2667 82.6485 53.9307 82.6485 55.936C82.6485 56.1067 82.6272 56.256 82.5845 56.384C82.5845 56.512 82.5632 56.6613 82.5205 56.832C82.4778 56.8747 82.3285 57.152 82.0725 57.664C81.8592 58.2187 81.7525 58.5173 81.7525 58.56C81.5392 58.7733 81.3258 59.008 81.1125 59.264C80.8992 59.52 80.6858 59.776 80.4725 60.032C80.3018 60.2453 80.0672 60.4587 79.7685 60.672C79.5125 60.8853 79.2565 61.0987 79.0005 61.312C78.8725 61.5253 78.5312 61.8027 77.9765 62.144C77.4218 62.528 76.8672 62.8907 76.3125 63.232C75.7578 63.5733 75.3525 63.7867 75.0965 63.872L73.7525 64.576C73.6245 64.6613 73.4538 64.7253 73.2405 64.768C73.0272 64.8533 72.8352 64.9173 72.6645 64.96C72.5365 65.088 72.3872 65.1733 72.2165 65.216C72.0885 65.2587 71.9178 65.3227 71.7045 65.408C71.6192 65.4933 71.4912 65.5573 71.3205 65.6C71.1498 65.6427 71.0005 65.6853 70.8725 65.728C70.7445 65.856 70.5952 65.92 70.4245 65.92L69.9125 66.048C69.7845 66.0907 69.6565 66.112 69.5285 66.112C69.4005 66.1547 69.2512 66.1973 69.0805 66.24C68.1418 66.4533 67.4165 66.6027 66.9045 66.688C66.7338 66.7307 66.5845 66.752 66.4565 66.752C66.2858 66.752 66.0938 66.752 65.8805 66.752ZM78.1045 42.368C78.2325 42.1547 78.3818 42.048 78.5525 42.048C78.6805 42.048 78.7445 42.0693 78.7445 42.112C78.7445 42.1547 78.8085 42.176 78.9365 42.176C79.0645 42.176 79.1925 42.1333 79.3205 42.048C79.4485 41.92 79.5552 41.856 79.6405 41.856C79.8112 41.856 79.8538 41.8773 79.7685 41.92C79.7258 41.9627 79.7898 41.984 79.9605 41.984C80.0885 41.984 80.3658 41.8987 80.7925 41.728C81.2192 41.5147 81.5392 41.3227 81.7525 41.152C81.9658 41.0667 82.3072 40.832 82.7765 40.448C83.2458 40.0213 83.5872 39.808 83.8005 39.808C83.9285 39.808 84.0138 39.8293 84.0565 39.872C84.0992 39.9147 84.1418 39.936 84.1845 39.936C84.2272 39.5947 84.4405 39.296 84.8245 39.04C85.2512 38.7413 85.4645 38.336 85.4645 37.824C85.4645 37.3973 85.1872 36.7787 84.6325 35.968C84.5898 35.8827 84.5045 35.84 84.3765 35.84C84.2485 35.7973 84.1845 35.7547 84.1845 35.712V35.648C84.1845 35.5627 84.1418 35.456 84.0565 35.328C84.0138 35.1573 83.9712 35.0507 83.9285 35.008C83.7578 34.9227 83.6298 34.8373 83.5445 34.752C83.5018 34.6667 83.4165 34.624 83.2885 34.624C83.1605 34.624 82.9685 34.6027 82.7125 34.56C82.4992 34.5173 82.3498 34.496 82.2645 34.496C82.2218 34.4107 82.1365 34.2187 82.0085 33.92C81.8805 33.6213 81.6885 33.472 81.4325 33.472C81.2618 33.472 81.0912 33.5787 80.9205 33.792C80.7925 33.9627 80.6645 34.112 80.5365 34.24C80.4512 34.2827 80.3018 34.3253 80.0885 34.368C79.9178 34.4107 79.8112 34.4533 79.7685 34.496C79.5125 34.6667 79.2138 34.9013 78.8725 35.2C78.5738 35.456 78.2752 35.648 77.9765 35.776C77.8485 36.0747 77.6138 36.352 77.2725 36.608C76.9738 36.864 76.6965 37.056 76.4405 37.184C76.3125 37.44 76.1418 37.696 75.9285 37.952C75.7578 38.208 75.6298 38.464 75.5445 38.72C75.5445 38.7627 75.5232 38.8053 75.4805 38.848C75.4805 38.848 75.4805 38.8907 75.4805 38.976C75.4805 39.104 75.4805 39.232 75.4805 39.36C75.5232 39.4453 75.4592 39.5093 75.2885 39.552V40.576C75.6298 40.704 75.7792 40.9813 75.7365 41.408C75.9925 41.3227 76.2058 41.344 76.3765 41.472V41.792H76.4405C76.6965 41.792 77.0165 41.8773 77.4005 42.048C77.7845 42.176 78.0192 42.2827 78.1045 42.368ZM83.2245 47.808C83.2245 47.808 83.2032 47.744 83.1605 47.616C83.1178 47.488 83.1392 47.424 83.2245 47.424C83.3098 47.4667 83.3952 47.488 83.4805 47.488C83.5658 47.488 83.6298 47.488 83.6725 47.488C83.7578 47.488 83.7792 47.4667 83.7365 47.424C83.7365 47.3813 83.7578 47.36 83.8005 47.36H84.0565L84.2485 47.104C84.4618 47.104 84.6752 47.04 84.8885 46.912C85.1018 46.784 85.2938 46.6773 85.4645 46.592C85.5498 46.592 85.6352 46.592 85.7205 46.592C85.8485 46.5493 85.9765 46.528 86.1045 46.528C86.4032 46.528 86.6165 46.592 86.7445 46.72V46.784C86.7445 46.8693 86.5952 46.9547 86.2965 47.04C86.0405 47.0827 85.8698 47.1467 85.7845 47.232C85.6992 47.232 85.6138 47.2533 85.5285 47.296C85.4858 47.3387 85.4218 47.3813 85.3365 47.424C85.2938 47.4667 85.2298 47.488 85.1445 47.488C85.0592 47.4453 84.9738 47.4453 84.8885 47.488C84.7605 47.5733 84.5472 47.6587 84.2485 47.744C83.9925 47.7867 83.8218 47.808 83.7365 47.808C83.6512 47.808 83.5872 47.808 83.5445 47.808C83.5445 47.7653 83.4378 47.7653 83.2245 47.808ZM67.4165 65.28C67.5445 65.28 67.6938 65.2373 67.8645 65.152C68.0352 65.0667 68.1845 65.024 68.3125 65.024C68.9098 64.9387 69.6565 64.832 70.5525 64.704C71.4485 64.6187 72.3018 64.384 73.1125 64C75.3738 62.976 76.9738 61.8667 77.9125 60.672C78.8512 59.4773 79.3418 58.3467 79.3845 57.28C79.4272 57.1947 79.4698 57.088 79.5125 56.96C79.5552 56.8747 79.5765 56.8107 79.5765 56.768C79.6618 56.64 79.6832 56.5547 79.6405 56.512C79.5125 56.4267 79.4058 56.2773 79.3205 56.064C79.2352 55.8933 79.2138 55.7227 79.2565 55.552C79.2138 55.5093 79.1072 55.3813 78.9365 55.168C78.8085 54.9547 78.7445 54.7627 78.7445 54.592H78.6165C78.3605 54.464 78.1685 54.272 78.0405 54.016C77.4432 53.376 76.5898 52.7787 75.4805 52.224C74.1578 53.0347 72.8138 53.888 71.4485 54.784C70.0832 55.68 68.8458 56.6187 67.7365 57.6C66.9258 58.2827 66.2645 58.944 65.7525 59.584C65.2405 60.2667 64.8565 60.864 64.6005 61.376C64.5578 61.4613 64.4938 61.4827 64.4085 61.44C64.3232 61.44 64.2592 61.4827 64.2165 61.568V61.696C64.2165 61.7813 64.2592 61.888 64.3445 62.016C64.4298 62.144 64.4512 62.2507 64.4085 62.336C64.3658 62.5493 64.3232 62.7413 64.2805 62.912C64.2378 63.1253 64.2165 63.3387 64.2165 63.552C64.2165 63.8507 64.3018 64.1067 64.4725 64.32C64.6005 64.448 64.7925 64.576 65.0485 64.704C65.1338 64.7467 65.2192 64.7893 65.3045 64.832C65.3472 64.8747 65.4112 64.9173 65.4965 64.96C65.5818 65.0027 65.6885 65.0027 65.8165 64.96C65.9018 64.96 66.0085 64.96 66.1365 64.96L66.5845 65.152C66.7125 65.152 66.8405 65.1733 66.9685 65.216C67.0965 65.3013 67.2458 65.3227 67.4165 65.28ZM97.202 48.256C97.1593 48.256 97.0953 48.2133 97.01 48.128C96.9247 48.0853 96.8607 48.064 96.818 48.064C96.6473 48.1067 96.498 48.128 96.37 48.128C96.242 48.128 96.114 48.128 95.986 48.128C95.9433 48.128 95.9007 48.1067 95.858 48.064C95.858 48.0213 95.8367 48 95.794 48C95.7513 48 95.73 48 95.73 48C95.7727 48.0427 95.7727 48.064 95.73 48.064C95.73 48.064 95.6873 48.0427 95.602 48C95.5167 47.9573 95.4527 47.936 95.41 47.936L95.346 47.872C95.2607 47.872 95.1967 47.8507 95.154 47.808C95.154 47.7653 95.1327 47.744 95.09 47.744L95.026 47.808L94.962 47.744C94.8767 47.7013 94.7487 47.6587 94.578 47.616C94.45 47.5307 94.3433 47.4667 94.258 47.424C94.1727 47.424 94.066 47.36 93.938 47.232H93.81C93.7247 47.104 93.5753 47.0187 93.362 46.976C93.362 46.9333 93.3407 46.8907 93.298 46.848H93.234C93.1487 46.72 93.0847 46.6773 93.042 46.72C92.9993 46.6347 92.9353 46.5707 92.85 46.528C92.8073 46.4427 92.7433 46.3787 92.658 46.336C92.658 46.1653 92.6153 46.08 92.53 46.08C92.53 45.9947 92.4447 45.8667 92.274 45.696C92.146 45.5253 92.0607 45.376 92.018 45.248L91.954 45.184C91.7833 45.0133 91.6553 44.736 91.57 44.352C91.5273 44.1813 91.4847 44.1173 91.442 44.16C91.442 44.2027 91.4207 44.096 91.378 43.84C91.378 43.7973 91.378 43.7333 91.378 43.648C91.4207 43.52 91.4207 43.4347 91.378 43.392C91.378 43.3493 91.3567 43.328 91.314 43.328C91.314 43.2853 91.314 43.2427 91.314 43.2C91.2713 43.1573 91.25 43.136 91.25 43.136C91.2927 43.0933 91.314 43.072 91.314 43.072C91.314 42.9867 91.2927 42.944 91.25 42.944C91.25 42.9013 91.25 42.8587 91.25 42.816V42.688C91.25 42.4747 91.2927 42.3253 91.378 42.24C91.378 42.1547 91.3993 42.0907 91.442 42.048C91.4847 42.0053 91.506 41.9627 91.506 41.92C91.506 41.8347 91.5487 41.792 91.634 41.792C91.7193 41.792 91.762 41.7707 91.762 41.728C91.762 41.6427 91.7833 41.6 91.826 41.6C91.9113 41.5573 91.9753 41.5147 92.018 41.472C92.018 41.4293 92.0393 41.3867 92.082 41.344C92.1673 41.3013 92.21 41.2587 92.21 41.216C92.4233 41.088 92.658 41.024 92.914 41.024C93.426 41.024 93.682 41.152 93.682 41.408C93.682 41.4933 93.554 41.6427 93.298 41.856C93.2553 41.984 93.234 42.0693 93.234 42.112C93.2767 42.112 93.2553 42.1547 93.17 42.24C93.2127 42.368 93.234 42.5387 93.234 42.752C93.1913 42.752 93.17 42.816 93.17 42.944C93.2127 43.0293 93.234 43.072 93.234 43.072C93.234 43.1147 93.2553 43.2427 93.298 43.456C93.3833 43.6693 93.4473 43.7973 93.49 43.84C93.49 43.84 93.5327 43.9467 93.618 44.16C93.7033 44.3307 93.746 44.4373 93.746 44.48V44.608C93.8313 44.736 93.874 44.8213 93.874 44.864C93.9167 44.864 94.0873 44.9493 94.386 45.12C94.4287 45.1627 94.514 45.184 94.642 45.184C94.8553 45.312 95.0047 45.4187 95.09 45.504C95.218 45.5893 95.5167 45.6747 95.986 45.76C96.1567 45.8027 96.2207 45.8453 96.178 45.888C96.178 45.888 96.2633 45.888 96.434 45.888C96.434 45.888 96.434 45.9093 96.434 45.952C96.434 45.952 96.4553 45.952 96.498 45.952C96.5833 45.9093 96.6687 45.9093 96.754 45.952C96.8393 45.952 96.9247 45.9307 97.01 45.888H97.266C97.5647 45.888 97.8847 45.8453 98.226 45.76L99.186 45.504C99.4847 45.4613 99.762 45.376 100.018 45.248C100.274 45.12 100.509 44.992 100.722 44.864C100.765 44.864 100.893 44.8 101.106 44.672C101.319 44.5013 101.575 44.3307 101.874 44.16C101.831 44.032 101.81 43.8613 101.81 43.648C101.81 43.52 101.874 43.456 102.002 43.456C102.13 43.4133 102.215 43.3493 102.258 43.264C102.13 43.1787 101.959 43.136 101.746 43.136C101.575 43.136 101.511 43.072 101.554 42.944C101.383 42.0053 101.127 41.152 100.786 40.384C100.487 39.616 100.125 38.7627 99.698 37.824C99.6553 37.696 99.57 37.4827 99.442 37.184C99.314 36.8853 99.2287 36.6507 99.186 36.48C99.186 36.4373 99.2287 36.4373 99.314 36.48C99.3993 36.48 99.4207 36.4587 99.378 36.416C99.3353 36.2027 99.2927 35.9893 99.25 35.776C99.25 35.5627 99.2287 35.3707 99.186 35.2C99.1433 35.1147 99.186 35.0507 99.314 35.008C99.442 34.9653 99.4847 34.9013 99.442 34.816C99.3993 34.7307 99.314 34.7093 99.186 34.752C99.058 34.7947 98.9727 34.7733 98.93 34.688L98.738 33.92C98.738 33.7067 98.6953 33.5787 98.61 33.536C98.5673 33.4933 98.61 33.408 98.738 33.28C98.8233 33.2373 98.866 33.1733 98.866 33.088C98.866 32.96 98.8873 32.8747 98.93 32.832C99.1433 32.704 99.2287 32.5547 99.186 32.384C99.1433 32.1707 99.186 31.9787 99.314 31.808C99.442 31.6373 99.5487 31.488 99.634 31.36C99.7193 31.1893 99.8473 31.0827 100.018 31.04C100.146 30.9547 100.189 30.976 100.146 31.104C100.103 31.232 100.103 31.296 100.146 31.296C100.359 31.296 100.445 31.1893 100.402 30.976C100.359 30.7627 100.423 30.5707 100.594 30.4C100.893 30.144 101.341 29.9307 101.938 29.76C102.535 29.5893 102.983 29.4827 103.282 29.44C103.367 29.44 103.431 29.44 103.474 29.44C103.559 29.3973 103.623 29.376 103.666 29.376C103.879 29.376 104.093 29.3973 104.306 29.44C104.562 29.4827 104.797 29.5253 105.01 29.568C105.181 29.6107 105.437 29.7813 105.778 30.08C106.119 30.336 106.375 30.4 106.546 30.272C106.93 29.9307 107.335 29.632 107.762 29.376C108.231 29.12 108.53 29.0133 108.658 29.056C108.999 29.0987 109.298 29.2053 109.554 29.376C109.81 29.504 109.895 29.9307 109.81 30.656C109.767 30.912 109.661 31.1253 109.49 31.296C109.362 31.424 109.234 31.5947 109.106 31.808L108.658 32.448C108.487 32.7467 108.274 33.0453 108.018 33.344C107.805 33.6427 107.613 33.8347 107.442 33.92C107.271 34.0053 107.101 34.1547 106.93 34.368C106.802 34.5387 106.631 34.7093 106.418 34.88C106.205 35.0507 105.97 35.1787 105.714 35.264C105.501 35.3067 105.351 35.3493 105.266 35.392C105.138 35.4347 104.946 35.456 104.69 35.456C104.477 35.4133 104.413 35.328 104.498 35.2C104.583 35.1573 104.605 35.1147 104.562 35.072C104.519 34.9867 104.498 34.9227 104.498 34.88C104.498 34.7947 104.541 34.7307 104.626 34.688C104.754 34.6453 104.839 34.5813 104.882 34.496C104.925 34.4533 105.031 34.304 105.202 34.048C105.415 33.792 105.501 33.6427 105.458 33.6C105.458 33.472 105.501 33.3653 105.586 33.28C105.586 33.1947 105.586 33.1307 105.586 33.088C105.586 33.0027 105.629 32.9387 105.714 32.896C105.885 32.8533 105.97 32.7893 105.97 32.704V31.936C105.97 31.7653 105.949 31.5947 105.906 31.424C105.906 31.2533 105.863 31.104 105.778 30.976C105.437 30.5493 104.882 30.336 104.114 30.336C103.559 30.336 103.026 30.464 102.514 30.72C101.959 30.976 101.49 31.4027 101.106 32C100.807 32.4267 100.658 32.8747 100.658 33.344C100.658 33.6853 100.722 34.0267 100.85 34.368C101.021 34.7093 101.17 35.0293 101.298 35.328C101.426 35.6267 101.597 35.9893 101.81 36.416C102.066 36.8427 102.258 37.184 102.386 37.44C102.599 37.7813 102.834 38.1867 103.09 38.656C103.346 39.0827 103.538 39.488 103.666 39.872C103.709 39.9147 103.666 39.9573 103.538 40C103.453 40 103.431 40.0427 103.474 40.128C103.517 40.2133 103.581 40.256 103.666 40.256C103.751 40.256 103.815 40.2987 103.858 40.384C103.943 40.512 103.943 40.6187 103.858 40.704C103.815 40.7893 103.815 40.9173 103.858 41.088C103.858 41.1307 103.901 41.1733 103.986 41.216C104.071 41.2587 104.114 41.3013 104.114 41.344C104.327 41.8987 104.434 42.3467 104.434 42.688C104.818 42.4747 105.245 42.2187 105.714 41.92C106.183 41.6213 106.439 41.344 106.482 41.088C106.525 41.0027 106.589 40.9813 106.674 41.024C106.802 41.024 106.866 41.0667 106.866 41.152C106.823 41.4507 106.461 41.856 105.778 42.368C105.138 42.88 104.647 43.2427 104.306 43.456C104.349 43.4987 104.327 43.6053 104.242 43.776C104.157 43.9467 104.135 44.0747 104.178 44.16C104.178 44.2027 104.157 44.2667 104.114 44.352C104.071 44.3947 104.029 44.4587 103.986 44.544C103.986 44.7147 103.943 44.8427 103.858 44.928V45.056L103.666 45.184C103.623 45.2267 103.559 45.3333 103.474 45.504C103.431 45.632 103.367 45.7387 103.282 45.824H103.09C103.005 45.9093 102.962 46.016 102.962 46.144C102.877 46.272 102.685 46.4213 102.386 46.592C102.087 46.72 101.895 46.848 101.81 46.976C101.81 46.976 101.789 46.976 101.746 46.976C101.703 46.976 101.639 47.0187 101.554 47.104H101.362C101.319 47.104 101.277 47.1467 101.234 47.232C101.191 47.2747 101.149 47.3173 101.106 47.36C100.978 47.36 100.914 47.4027 100.914 47.488C100.743 47.488 100.615 47.5093 100.53 47.552L99.89 47.68C99.7193 47.8507 99.57 47.936 99.442 47.936L99.378 47.872C99.2927 47.9573 99.2287 48 99.186 48H98.93C98.8873 48 98.8447 48.0213 98.802 48.064C98.7593 48.1067 98.7167 48.128 98.674 48.128H98.546C98.5033 48.128 98.4607 48.128 98.418 48.128C98.418 48.1707 98.3753 48.192 98.29 48.192C98.162 48.192 97.97 48.192 97.714 48.192C97.5007 48.192 97.33 48.2133 97.202 48.256ZM96.562 47.68C96.562 47.68 96.6047 47.68 96.69 47.68C96.818 47.6373 96.9033 47.616 96.946 47.616C97.1593 47.616 97.3513 47.6373 97.522 47.68C97.6927 47.68 97.8633 47.68 98.034 47.68C98.1193 47.68 98.162 47.6373 98.162 47.552H98.29C98.418 47.424 98.482 47.4027 98.482 47.488C98.5247 47.5733 98.5887 47.5733 98.674 47.488C98.7593 47.488 98.802 47.4667 98.802 47.424L99.058 47.296C99.1007 47.296 99.122 47.296 99.122 47.296C99.122 47.2533 99.1433 47.232 99.186 47.232H99.314C99.3993 47.232 99.4847 47.1893 99.57 47.104C99.6553 47.0187 99.698 46.976 99.698 46.976C99.698 46.976 99.762 46.912 99.89 46.784C99.89 46.784 99.9113 46.784 99.954 46.784C99.9967 46.7413 100.039 46.72 100.082 46.72C100.167 46.6347 100.253 46.592 100.338 46.592C100.338 46.5493 100.381 46.5067 100.466 46.464C100.551 46.3787 100.594 46.336 100.594 46.336C100.637 46.2933 100.679 46.272 100.722 46.272C100.807 46.2293 100.85 46.1867 100.85 46.144C100.935 46.144 101.106 45.9947 101.362 45.696C101.618 45.3973 101.789 45.0347 101.874 44.608C101.874 44.5227 101.746 44.5867 101.49 44.8C101.234 44.9707 101.106 45.056 101.106 45.056C100.978 45.0987 100.85 45.184 100.722 45.312C100.594 45.3973 100.487 45.44 100.402 45.44C100.359 45.44 100.295 45.4827 100.21 45.568C100.167 45.6107 100.125 45.632 100.082 45.632C100.039 45.632 100.018 45.6533 100.018 45.696C100.018 45.696 99.9753 45.6747 99.89 45.632C99.8473 45.7173 99.7193 45.8027 99.506 45.888C99.2927 45.9733 99.1433 46.016 99.058 46.016H98.866L98.802 46.08C98.802 46.08 98.7807 46.1013 98.738 46.144C98.6953 46.144 98.6527 46.144 98.61 46.144L98.162 46.208H98.098C98.0553 46.208 98.0127 46.2293 97.97 46.272C97.7993 46.272 97.6073 46.2933 97.394 46.336C97.1807 46.3787 97.0527 46.4 97.01 46.4H96.946C96.946 46.3573 96.9247 46.336 96.882 46.336V46.4H96.562C96.434 46.4 96.2847 46.3787 96.114 46.336C95.986 46.2507 95.8793 46.208 95.794 46.208C95.7513 46.208 95.73 46.2293 95.73 46.272C95.73 46.272 95.7087 46.272 95.666 46.272H95.538C95.4953 46.272 95.474 46.2507 95.474 46.208H95.154C95.154 46.08 95.1113 46.0587 95.026 46.144H94.962C94.7913 46.144 94.642 46.08 94.514 45.952C94.4287 45.824 94.2793 45.76 94.066 45.76L93.874 45.568C93.874 45.6107 93.8527 45.6533 93.81 45.696C93.81 45.696 93.81 45.7173 93.81 45.76C93.81 45.76 93.8313 45.8027 93.874 45.888C93.9593 45.9307 94.002 45.9733 94.002 46.016L94.13 46.272L94.386 46.592L94.514 46.72C94.5567 46.7627 94.578 46.784 94.578 46.784C94.6207 46.784 94.6633 46.8267 94.706 46.912C94.7913 46.912 94.834 46.976 94.834 47.104C95.5593 47.488 96.1353 47.68 96.562 47.68Z" fill="black"/>
</svg>
