<svg width="256" height="45" viewBox="0 0 256 45" fill="none" xmlns="http://www.w3.org/2000/svg">
<g id="Breadcrumbs">
<path id="Women" d="M13.342 17.242L10.514 27H9.086L6.818 19.146L4.466 27L3.052 27.014L0.322 17.242H1.68L3.808 25.516L6.16 17.242H7.588L9.828 25.488L11.97 17.242H13.342ZM18.0822 27.126C17.3635 27.126 16.7102 26.9627 16.1222 26.636C15.5435 26.3093 15.0862 25.8473 14.7502 25.25C14.4235 24.6433 14.2602 23.9433 14.2602 23.15C14.2602 22.366 14.4282 21.6753 14.7642 21.078C15.1095 20.4713 15.5762 20.0093 16.1642 19.692C16.7522 19.3653 17.4102 19.202 18.1382 19.202C18.8662 19.202 19.5242 19.3653 20.1122 19.692C20.7002 20.0093 21.1622 20.4667 21.4982 21.064C21.8435 21.6613 22.0162 22.3567 22.0162 23.15C22.0162 23.9433 21.8389 24.6433 21.4842 25.25C21.1389 25.8473 20.6675 26.3093 20.0702 26.636C19.4729 26.9627 18.8102 27.126 18.0822 27.126ZM18.0822 26.006C18.5395 26.006 18.9689 25.8987 19.3702 25.684C19.7715 25.4693 20.0935 25.1473 20.3362 24.718C20.5882 24.2887 20.7142 23.766 20.7142 23.15C20.7142 22.534 20.5929 22.0113 20.3502 21.582C20.1075 21.1527 19.7902 20.8353 19.3982 20.63C19.0062 20.4153 18.5815 20.308 18.1242 20.308C17.6575 20.308 17.2282 20.4153 16.8362 20.63C16.4535 20.8353 16.1455 21.1527 15.9122 21.582C15.6789 22.0113 15.5622 22.534 15.5622 23.15C15.5622 23.7753 15.6742 24.3027 15.8982 24.732C16.1315 25.1613 16.4395 25.4833 16.8222 25.698C17.2049 25.9033 17.6249 26.006 18.0822 26.006ZM32.9173 19.188C33.5146 19.188 34.0466 19.314 34.5133 19.566C34.9799 19.8087 35.3486 20.1773 35.6193 20.672C35.8899 21.1667 36.0253 21.7687 36.0253 22.478V27H34.7653V22.66C34.7653 21.8947 34.5739 21.3113 34.1913 20.91C33.8179 20.4993 33.3093 20.294 32.6653 20.294C32.0026 20.294 31.4753 20.5087 31.0833 20.938C30.6913 21.358 30.4953 21.9693 30.4953 22.772V27H29.2353V22.66C29.2353 21.8947 29.0439 21.3113 28.6613 20.91C28.2879 20.4993 27.7793 20.294 27.1353 20.294C26.4726 20.294 25.9453 20.5087 25.5533 20.938C25.1613 21.358 24.9653 21.9693 24.9653 22.772V27H23.6913V19.328H24.9653V20.434C25.2173 20.0327 25.5533 19.7247 25.9733 19.51C26.4026 19.2953 26.8739 19.188 27.3873 19.188C28.0313 19.188 28.6006 19.3327 29.0953 19.622C29.5899 19.9113 29.9586 20.336 30.2013 20.896C30.4159 20.3547 30.7706 19.9347 31.2653 19.636C31.7599 19.3373 32.3106 19.188 32.9173 19.188ZM45.1151 22.87C45.1151 23.1127 45.1011 23.3693 45.0731 23.64H38.9411C38.9878 24.396 39.2444 24.9887 39.7111 25.418C40.1871 25.838 40.7611 26.048 41.4331 26.048C41.9838 26.048 42.4411 25.922 42.8051 25.67C43.1784 25.4087 43.4398 25.0633 43.5891 24.634H44.9611C44.7558 25.3713 44.3451 25.9733 43.7291 26.44C43.1131 26.8973 42.3478 27.126 41.4331 27.126C40.7051 27.126 40.0518 26.9627 39.4731 26.636C38.9038 26.3093 38.4558 25.8473 38.1291 25.25C37.8024 24.6433 37.6391 23.9433 37.6391 23.15C37.6391 22.3567 37.7978 21.6613 38.1151 21.064C38.4324 20.4667 38.8758 20.0093 39.4451 19.692C40.0238 19.3653 40.6864 19.202 41.4331 19.202C42.1611 19.202 42.8051 19.3607 43.3651 19.678C43.9251 19.9953 44.3544 20.434 44.6531 20.994C44.9611 21.5447 45.1151 22.17 45.1151 22.87ZM43.7991 22.604C43.7991 22.1187 43.6918 21.7033 43.4771 21.358C43.2624 21.0033 42.9684 20.7373 42.5951 20.56C42.2311 20.3733 41.8251 20.28 41.3771 20.28C40.7331 20.28 40.1824 20.4853 39.7251 20.896C39.2771 21.3067 39.0204 21.876 38.9551 22.604H43.7991ZM50.5348 19.188C51.4681 19.188 52.2241 19.4727 52.8028 20.042C53.3814 20.602 53.6708 21.414 53.6708 22.478V27H52.4108V22.66C52.4108 21.8947 52.2194 21.3113 51.8368 20.91C51.4541 20.4993 50.9314 20.294 50.2688 20.294C49.5968 20.294 49.0601 20.504 48.6588 20.924C48.2668 21.344 48.0708 21.9553 48.0708 22.758V27H46.7968V19.328H48.0708V20.42C48.3228 20.028 48.6634 19.7247 49.0928 19.51C49.5314 19.2953 50.0121 19.188 50.5348 19.188Z" fill="#636262"/>
<path id="Footwear" d="M97.594 17.242V18.278H93.352V21.568H96.796V22.604H93.352V27H92.078V17.242H97.594ZM102.479 27.126C101.76 27.126 101.107 26.9627 100.519 26.636C99.94 26.3093 99.4827 25.8473 99.1467 25.25C98.82 24.6433 98.6567 23.9433 98.6567 23.15C98.6567 22.366 98.8247 21.6753 99.1607 21.078C99.506 20.4713 99.9727 20.0093 100.561 19.692C101.149 19.3653 101.807 19.202 102.535 19.202C103.263 19.202 103.921 19.3653 104.509 19.692C105.097 20.0093 105.559 20.4667 105.895 21.064C106.24 21.6613 106.413 22.3567 106.413 23.15C106.413 23.9433 106.235 24.6433 105.881 25.25C105.535 25.8473 105.064 26.3093 104.467 26.636C103.869 26.9627 103.207 27.126 102.479 27.126ZM102.479 26.006C102.936 26.006 103.365 25.8987 103.767 25.684C104.168 25.4693 104.49 25.1473 104.733 24.718C104.985 24.2887 105.111 23.766 105.111 23.15C105.111 22.534 104.989 22.0113 104.747 21.582C104.504 21.1527 104.187 20.8353 103.795 20.63C103.403 20.4153 102.978 20.308 102.521 20.308C102.054 20.308 101.625 20.4153 101.233 20.63C100.85 20.8353 100.542 21.1527 100.309 21.582C100.075 22.0113 99.9587 22.534 99.9587 23.15C99.9587 23.7753 100.071 24.3027 100.295 24.732C100.528 25.1613 100.836 25.4833 101.219 25.698C101.601 25.9033 102.021 26.006 102.479 26.006ZM111.434 27.126C110.715 27.126 110.062 26.9627 109.474 26.636C108.895 26.3093 108.438 25.8473 108.102 25.25C107.775 24.6433 107.612 23.9433 107.612 23.15C107.612 22.366 107.78 21.6753 108.116 21.078C108.461 20.4713 108.928 20.0093 109.516 19.692C110.104 19.3653 110.762 19.202 111.49 19.202C112.218 19.202 112.876 19.3653 113.464 19.692C114.052 20.0093 114.514 20.4667 114.85 21.064C115.195 21.6613 115.368 22.3567 115.368 23.15C115.368 23.9433 115.19 24.6433 114.836 25.25C114.49 25.8473 114.019 26.3093 113.422 26.636C112.824 26.9627 112.162 27.126 111.434 27.126ZM111.434 26.006C111.891 26.006 112.32 25.8987 112.722 25.684C113.123 25.4693 113.445 25.1473 113.688 24.718C113.94 24.2887 114.066 23.766 114.066 23.15C114.066 22.534 113.944 22.0113 113.702 21.582C113.459 21.1527 113.142 20.8353 112.75 20.63C112.358 20.4153 111.933 20.308 111.476 20.308C111.009 20.308 110.58 20.4153 110.188 20.63C109.805 20.8353 109.497 21.1527 109.264 21.582C109.03 22.0113 108.914 22.534 108.914 23.15C108.914 23.7753 109.026 24.3027 109.25 24.732C109.483 25.1613 109.791 25.4833 110.174 25.698C110.556 25.9033 110.976 26.006 111.434 26.006ZM118.597 20.378V24.9C118.597 25.2733 118.676 25.5393 118.835 25.698C118.994 25.8473 119.269 25.922 119.661 25.922H120.599V27H119.451C118.742 27 118.21 26.8367 117.855 26.51C117.5 26.1833 117.323 25.6467 117.323 24.9V20.378H116.329V19.328H117.323V17.396H118.597V19.328H120.599V20.378H118.597ZM132.362 19.328L129.968 27H128.652L126.804 20.91L124.956 27H123.64L121.232 19.328H122.534L124.298 25.768L126.202 19.328H127.504L129.366 25.782L131.102 19.328H132.362ZM140.627 22.87C140.627 23.1127 140.613 23.3693 140.585 23.64H134.453C134.499 24.396 134.756 24.9887 135.223 25.418C135.699 25.838 136.273 26.048 136.945 26.048C137.495 26.048 137.953 25.922 138.317 25.67C138.69 25.4087 138.951 25.0633 139.101 24.634H140.473C140.267 25.3713 139.857 25.9733 139.241 26.44C138.625 26.8973 137.859 27.126 136.945 27.126C136.217 27.126 135.563 26.9627 134.985 26.636C134.415 26.3093 133.967 25.8473 133.641 25.25C133.314 24.6433 133.151 23.9433 133.151 23.15C133.151 22.3567 133.309 21.6613 133.627 21.064C133.944 20.4667 134.387 20.0093 134.957 19.692C135.535 19.3653 136.198 19.202 136.945 19.202C137.673 19.202 138.317 19.3607 138.877 19.678C139.437 19.9953 139.866 20.434 140.165 20.994C140.473 21.5447 140.627 22.17 140.627 22.87ZM139.311 22.604C139.311 22.1187 139.203 21.7033 138.989 21.358C138.774 21.0033 138.48 20.7373 138.107 20.56C137.743 20.3733 137.337 20.28 136.889 20.28C136.245 20.28 135.694 20.4853 135.237 20.896C134.789 21.3067 134.532 21.876 134.467 22.604H139.311ZM141.832 23.136C141.832 22.352 141.991 21.666 142.308 21.078C142.626 20.4807 143.06 20.0187 143.61 19.692C144.17 19.3653 144.791 19.202 145.472 19.202C146.144 19.202 146.728 19.3467 147.222 19.636C147.717 19.9253 148.086 20.2893 148.328 20.728V19.328H149.616V27H148.328V25.572C148.076 26.02 147.698 26.3933 147.194 26.692C146.7 26.9813 146.121 27.126 145.458 27.126C144.777 27.126 144.161 26.958 143.61 26.622C143.06 26.286 142.626 25.8147 142.308 25.208C141.991 24.6013 141.832 23.9107 141.832 23.136ZM148.328 23.15C148.328 22.5713 148.212 22.0673 147.978 21.638C147.745 21.2087 147.428 20.882 147.026 20.658C146.634 20.4247 146.2 20.308 145.724 20.308C145.248 20.308 144.814 20.42 144.422 20.644C144.03 20.868 143.718 21.1947 143.484 21.624C143.251 22.0533 143.134 22.5573 143.134 23.136C143.134 23.724 143.251 24.2373 143.484 24.676C143.718 25.1053 144.03 25.4367 144.422 25.67C144.814 25.894 145.248 26.006 145.724 26.006C146.2 26.006 146.634 25.894 147.026 25.67C147.428 25.4367 147.745 25.1053 147.978 24.676C148.212 24.2373 148.328 23.7287 148.328 23.15ZM153.043 20.574C153.267 20.1353 153.585 19.7947 153.995 19.552C154.415 19.3093 154.924 19.188 155.521 19.188V20.504H155.185C153.757 20.504 153.043 21.2787 153.043 22.828V27H151.769V19.328H153.043V20.574Z" fill="#636262"/>
<path id="Sneakers" d="M196.172 27.098C195.528 27.098 194.949 26.986 194.436 26.762C193.932 26.5287 193.535 26.2113 193.246 25.81C192.957 25.3993 192.807 24.928 192.798 24.396H194.156C194.203 24.8533 194.389 25.2407 194.716 25.558C195.052 25.866 195.537 26.02 196.172 26.02C196.779 26.02 197.255 25.8707 197.6 25.572C197.955 25.264 198.132 24.872 198.132 24.396C198.132 24.0227 198.029 23.7193 197.824 23.486C197.619 23.2527 197.362 23.0753 197.054 22.954C196.746 22.8327 196.331 22.702 195.808 22.562C195.164 22.394 194.646 22.226 194.254 22.058C193.871 21.89 193.54 21.6287 193.26 21.274C192.989 20.91 192.854 20.4247 192.854 19.818C192.854 19.286 192.989 18.8147 193.26 18.404C193.531 17.9933 193.909 17.676 194.394 17.452C194.889 17.228 195.453 17.116 196.088 17.116C197.003 17.116 197.749 17.3447 198.328 17.802C198.916 18.2593 199.247 18.866 199.322 19.622H197.922C197.875 19.2487 197.679 18.922 197.334 18.642C196.989 18.3527 196.531 18.208 195.962 18.208C195.43 18.208 194.996 18.348 194.66 18.628C194.324 18.8987 194.156 19.2813 194.156 19.776C194.156 20.1307 194.254 20.42 194.45 20.644C194.655 20.868 194.903 21.0407 195.192 21.162C195.491 21.274 195.906 21.4047 196.438 21.554C197.082 21.7313 197.6 21.9087 197.992 22.086C198.384 22.254 198.72 22.52 199 22.884C199.28 23.2387 199.42 23.724 199.42 24.34C199.42 24.816 199.294 25.264 199.042 25.684C198.79 26.104 198.417 26.4447 197.922 26.706C197.427 26.9673 196.844 27.098 196.172 27.098ZM205.033 19.188C205.966 19.188 206.722 19.4727 207.301 20.042C207.879 20.602 208.169 21.414 208.169 22.478V27H206.909V22.66C206.909 21.8947 206.717 21.3113 206.335 20.91C205.952 20.4993 205.429 20.294 204.767 20.294C204.095 20.294 203.558 20.504 203.157 20.924C202.765 21.344 202.569 21.9553 202.569 22.758V27H201.295V19.328H202.569V20.42C202.821 20.028 203.161 19.7247 203.591 19.51C204.029 19.2953 204.51 19.188 205.033 19.188ZM217.25 22.87C217.25 23.1127 217.236 23.3693 217.208 23.64H211.076C211.123 24.396 211.379 24.9887 211.846 25.418C212.322 25.838 212.896 26.048 213.568 26.048C214.119 26.048 214.576 25.922 214.94 25.67C215.313 25.4087 215.575 25.0633 215.724 24.634H217.096C216.891 25.3713 216.48 25.9733 215.864 26.44C215.248 26.8973 214.483 27.126 213.568 27.126C212.84 27.126 212.187 26.9627 211.608 26.636C211.039 26.3093 210.591 25.8473 210.264 25.25C209.937 24.6433 209.774 23.9433 209.774 23.15C209.774 22.3567 209.933 21.6613 210.25 21.064C210.567 20.4667 211.011 20.0093 211.58 19.692C212.159 19.3653 212.821 19.202 213.568 19.202C214.296 19.202 214.94 19.3607 215.5 19.678C216.06 19.9953 216.489 20.434 216.788 20.994C217.096 21.5447 217.25 22.17 217.25 22.87ZM215.934 22.604C215.934 22.1187 215.827 21.7033 215.612 21.358C215.397 21.0033 215.103 20.7373 214.73 20.56C214.366 20.3733 213.96 20.28 213.512 20.28C212.868 20.28 212.317 20.4853 211.86 20.896C211.412 21.3067 211.155 21.876 211.09 22.604H215.934ZM218.456 23.136C218.456 22.352 218.614 21.666 218.932 21.078C219.249 20.4807 219.683 20.0187 220.234 19.692C220.794 19.3653 221.414 19.202 222.096 19.202C222.768 19.202 223.351 19.3467 223.846 19.636C224.34 19.9253 224.709 20.2893 224.952 20.728V19.328H226.24V27H224.952V25.572C224.7 26.02 224.322 26.3933 223.818 26.692C223.323 26.9813 222.744 27.126 222.082 27.126C221.4 27.126 220.784 26.958 220.234 26.622C219.683 26.286 219.249 25.8147 218.932 25.208C218.614 24.6013 218.456 23.9107 218.456 23.136ZM224.952 23.15C224.952 22.5713 224.835 22.0673 224.602 21.638C224.368 21.2087 224.051 20.882 223.65 20.658C223.258 20.4247 222.824 20.308 222.348 20.308C221.872 20.308 221.438 20.42 221.046 20.644C220.654 20.868 220.341 21.1947 220.108 21.624C219.874 22.0533 219.758 22.5573 219.758 23.136C219.758 23.724 219.874 24.2373 220.108 24.676C220.341 25.1053 220.654 25.4367 221.046 25.67C221.438 25.894 221.872 26.006 222.348 26.006C222.824 26.006 223.258 25.894 223.65 25.67C224.051 25.4367 224.368 25.1053 224.602 24.676C224.835 24.2373 224.952 23.7287 224.952 23.15ZM232.676 27L229.666 23.612V27H228.392V16.64H229.666V22.73L232.62 19.328H234.398L230.786 23.15L234.412 27H232.676ZM242.598 22.87C242.598 23.1127 242.584 23.3693 242.556 23.64H236.424C236.47 24.396 236.727 24.9887 237.194 25.418C237.67 25.838 238.244 26.048 238.916 26.048C239.466 26.048 239.924 25.922 240.288 25.67C240.661 25.4087 240.922 25.0633 241.072 24.634H242.444C242.238 25.3713 241.828 25.9733 241.212 26.44C240.596 26.8973 239.83 27.126 238.916 27.126C238.188 27.126 237.534 26.9627 236.956 26.636C236.386 26.3093 235.938 25.8473 235.612 25.25C235.285 24.6433 235.122 23.9433 235.122 23.15C235.122 22.3567 235.28 21.6613 235.598 21.064C235.915 20.4667 236.358 20.0093 236.928 19.692C237.506 19.3653 238.169 19.202 238.916 19.202C239.644 19.202 240.288 19.3607 240.848 19.678C241.408 19.9953 241.837 20.434 242.136 20.994C242.444 21.5447 242.598 22.17 242.598 22.87ZM241.282 22.604C241.282 22.1187 241.174 21.7033 240.96 21.358C240.745 21.0033 240.451 20.7373 240.078 20.56C239.714 20.3733 239.308 20.28 238.86 20.28C238.216 20.28 237.665 20.4853 237.208 20.896C236.76 21.3067 236.503 21.876 236.438 22.604H241.282ZM245.553 20.574C245.777 20.1353 246.095 19.7947 246.505 19.552C246.925 19.3093 247.434 19.188 248.031 19.188V20.504H247.695C246.267 20.504 245.553 21.2787 245.553 22.828V27H244.279V19.328H245.553V20.574ZM252.218 27.126C251.63 27.126 251.102 27.028 250.636 26.832C250.169 26.6267 249.8 26.3467 249.53 25.992C249.259 25.628 249.11 25.2127 249.082 24.746H250.398C250.435 25.1287 250.612 25.4413 250.93 25.684C251.256 25.9267 251.681 26.048 252.204 26.048C252.689 26.048 253.072 25.9407 253.352 25.726C253.632 25.5113 253.772 25.2407 253.772 24.914C253.772 24.578 253.622 24.3307 253.324 24.172C253.025 24.004 252.563 23.8407 251.938 23.682C251.368 23.5327 250.902 23.3833 250.538 23.234C250.183 23.0753 249.875 22.8467 249.614 22.548C249.362 22.24 249.236 21.8387 249.236 21.344C249.236 20.952 249.352 20.5927 249.586 20.266C249.819 19.9393 250.15 19.6827 250.58 19.496C251.009 19.3 251.499 19.202 252.05 19.202C252.899 19.202 253.585 19.4167 254.108 19.846C254.63 20.2753 254.91 20.8633 254.948 21.61H253.674C253.646 21.2087 253.482 20.8867 253.184 20.644C252.894 20.4013 252.502 20.28 252.008 20.28C251.55 20.28 251.186 20.378 250.916 20.574C250.645 20.77 250.51 21.0267 250.51 21.344C250.51 21.596 250.589 21.806 250.748 21.974C250.916 22.1327 251.121 22.2633 251.364 22.366C251.616 22.4593 251.961 22.5667 252.4 22.688C252.95 22.8373 253.398 22.9867 253.744 23.136C254.089 23.276 254.383 23.4907 254.626 23.78C254.878 24.0693 255.008 24.4473 255.018 24.914C255.018 25.334 254.901 25.712 254.668 26.048C254.434 26.384 254.103 26.65 253.674 26.846C253.254 27.0327 252.768 27.126 252.218 27.126Z" fill="#636262"/>
<path id="Arrow1" d="M83.7071 23.2071C84.0976 22.8166 84.0976 22.1834 83.7071 21.7929L77.3431 15.4289C76.9526 15.0384 76.3195 15.0384 75.9289 15.4289C75.5384 15.8195 75.5384 16.4526 75.9289 16.8431L81.5858 22.5L75.9289 28.1569C75.5384 28.5474 75.5384 29.1805 75.9289 29.5711C76.3195 29.9616 76.9526 29.9616 77.3431 29.5711L83.7071 23.2071ZM63 23.5H83V21.5H63V23.5Z" fill="#636262"/>
<path id="Arrow2" d="M184.707 23.2071C185.098 22.8166 185.098 22.1834 184.707 21.7929L178.343 15.4289C177.953 15.0384 177.319 15.0384 176.929 15.4289C176.538 15.8195 176.538 16.4526 176.929 16.8431L182.586 22.5L176.929 28.1569C176.538 28.5474 176.538 29.1805 176.929 29.5711C177.319 29.9616 177.953 29.9616 178.343 29.5711L184.707 23.2071ZM164 23.5H184V21.5H164V23.5Z" fill="#636262"/>
</g>
</svg>
