<svg width="270" height="35" viewBox="0 0 270 35" fill="none" xmlns="http://www.w3.org/2000/svg">
<path id="logo" d="M16.76 9.71C16.84 9.31 16.88 8.76333 16.88 8.07C16.88 7.67 16.8533 7.28333 16.8 6.91C16.7467 6.51 16.6533 6.16333 16.52 5.87C16.3867 5.55 16.1867 5.31 15.92 5.15C15.6533 4.96333 15.3067 4.87 14.88 4.87C14.4 4.87 13.96 4.97667 13.56 5.19C13.16 5.40333 12.8 5.68333 12.48 6.03C12.1867 6.35 11.9467 6.73667 11.76 7.19C11.6 7.61667 11.52 8.07 11.52 8.55C11.52 9.24333 11.6933 9.77667 12.04 10.15C12.4133 10.5233 12.8933 10.83 13.48 11.07C14.0667 11.31 14.7333 11.51 15.48 11.67C16.2267 11.83 17 12.0167 17.8 12.23C18.4667 12.4167 19.1333 12.6567 19.8 12.95C20.4667 13.2433 21.0533 13.6433 21.56 14.15C22.0933 14.63 22.52 15.27 22.84 16.07C23.16 16.8433 23.32 17.8167 23.32 18.99C23.32 20.67 22.9867 22.0833 22.32 23.23C21.6533 24.3767 20.7333 25.31 19.56 26.03C18.3867 26.75 16.9867 27.27 15.36 27.59C13.76 27.91 12.0133 28.07 10.12 28.07C8.2 28.07 6.62667 27.95 5.4 27.71C4.2 27.4433 3.25333 27.1633 2.56 26.87C1.73333 26.5233 1.12 26.1233 0.72 25.67L2.08 20.19H9.12C9.09333 20.43 9.06667 20.7633 9.04 21.19C9.01333 21.59 9 21.91 9 22.15C9 22.47 9.04 22.8033 9.12 23.15C9.2 23.4967 9.32 23.8167 9.48 24.11C9.66667 24.4033 9.92 24.6433 10.24 24.83C10.56 25.0167 10.96 25.11 11.44 25.11C11.9733 25.11 12.44 24.99 12.84 24.75C13.2667 24.51 13.6133 24.2167 13.88 23.87C14.1733 23.4967 14.3867 23.0967 14.52 22.67C14.68 22.2167 14.76 21.7767 14.76 21.35C14.76 20.7633 14.6133 20.27 14.32 19.87C14.0533 19.47 13.68 19.1367 13.2 18.87C12.72 18.5767 12.16 18.3367 11.52 18.15C10.9067 17.9367 10.2667 17.7233 9.6 17.51C8.96 17.3233 8.28 17.0967 7.56 16.83C6.86667 16.5633 6.22667 16.19 5.64 15.71C5.05333 15.23 4.56 14.63 4.16 13.91C3.78667 13.1633 3.6 12.2167 3.6 11.07C3.6 9.36333 4.02667 7.93667 4.88 6.79C5.76 5.61667 6.85333 4.67 8.16 3.95C9.49333 3.23 10.9467 2.72333 12.52 2.43C14.0933 2.11 15.5867 1.95 17 1.95C18.8667 1.95 20.4667 2.17667 21.8 2.63C23.16 3.05667 24.1867 3.56333 24.88 4.15L23.4 9.71H16.76ZM35.3566 13.11H35.6366C36.1432 12.6033 36.7299 12.1367 37.3966 11.71C37.9566 11.3367 38.6232 11.0033 39.3966 10.71C40.1699 10.4167 41.0366 10.27 41.9966 10.27C43.3832 10.27 44.5299 10.63 45.4366 11.35C46.3432 12.0433 46.7966 13.0033 46.7966 14.23C46.7966 14.6033 46.7566 15.03 46.6766 15.51C46.5966 15.9633 46.5032 16.4567 46.3966 16.99C46.2899 17.4967 46.1699 18.0167 46.0366 18.55C45.9299 19.0567 45.8366 19.5233 45.7566 19.95L44.0766 27.75H35.9566L38.1566 17.31C38.2099 16.9633 38.2766 16.6167 38.3566 16.27C38.4366 15.8967 38.4766 15.5633 38.4766 15.27C38.4766 14.87 38.3699 14.55 38.1566 14.31C37.9699 14.0433 37.6766 13.91 37.2766 13.91C36.7966 13.91 36.3299 14.0833 35.8766 14.43C35.4499 14.7767 35.1166 15.0833 34.8766 15.35L32.2366 27.75H24.0766L29.7566 0.869998H37.9566L35.3566 13.11ZM60.5141 10.11C63.6874 10.11 65.9941 10.67 67.4341 11.79C68.9541 12.9633 69.7141 14.91 69.7141 17.63C69.7141 19.31 69.4341 20.83 68.8741 22.19C68.3141 23.5233 67.5274 24.63 66.5141 25.51C64.4874 27.2167 61.5541 28.07 57.7141 28.07C54.4341 28.07 52.0874 27.4433 50.6741 26.19C49.1541 24.8833 48.3941 22.9233 48.3941 20.31C48.3941 18.5767 48.7407 17.0033 49.4341 15.59C50.1541 14.1767 51.1807 13.0033 52.5141 12.07C54.4607 10.7633 57.1274 10.11 60.5141 10.11ZM57.7941 25.35C58.4607 25.35 59.0341 24.9767 59.5141 24.23C60.0207 23.4833 60.4207 22.5767 60.7141 21.51C61.0074 20.4167 61.2207 19.2967 61.3541 18.15C61.5141 16.9767 61.5941 15.9633 61.5941 15.11C61.5941 14.3633 61.5141 13.8033 61.3541 13.43C61.2207 13.03 60.9141 12.83 60.4341 12.83C59.7141 12.83 59.0874 13.2167 58.5541 13.99C58.0474 14.7633 57.6341 15.6833 57.3141 16.75C56.9941 17.8167 56.7541 18.91 56.5941 20.03C56.4607 21.15 56.3941 22.0567 56.3941 22.75C56.3941 24.4833 56.8607 25.35 57.7941 25.35ZM79.6419 19.71C79.5352 20.2967 79.4552 20.8567 79.4019 21.39C79.3752 21.9233 79.3619 22.4033 79.3619 22.83C79.3619 23.07 79.3752 23.3367 79.4019 23.63C79.4285 23.9233 79.4819 24.2033 79.5619 24.47C79.6685 24.71 79.8019 24.9233 79.9619 25.11C80.1485 25.27 80.4019 25.35 80.7219 25.35C80.9619 25.35 81.2285 25.27 81.5219 25.11C81.8419 24.95 82.1485 24.7233 82.4419 24.43C82.7619 24.1367 83.0552 23.7767 83.3219 23.35C83.6152 22.9233 83.8419 22.4433 84.0019 21.91H90.5619L89.5219 26.19C88.9885 26.5367 88.3752 26.83 87.6819 27.07C86.9885 27.31 86.2552 27.51 85.4819 27.67C84.7085 27.8033 83.9219 27.8967 83.1219 27.95C82.3219 28.03 81.5619 28.07 80.8419 28.07C79.5085 28.07 78.2685 27.95 77.1219 27.71C75.9752 27.47 74.9752 27.0567 74.1219 26.47C73.2685 25.8833 72.5885 25.11 72.0819 24.15C71.6019 23.1633 71.3619 21.95 71.3619 20.51C71.3619 19.2033 71.5619 17.9233 71.9619 16.67C72.3885 15.4167 73.0819 14.31 74.0419 13.35C75.0285 12.3633 76.3352 11.5767 77.9619 10.99C79.6152 10.4033 81.6685 10.11 84.1219 10.11C86.7885 10.11 88.7885 10.5233 90.1219 11.35C91.4819 12.1767 92.1619 13.47 92.1619 15.23C92.1619 15.95 92.0552 16.7367 91.8419 17.59C91.6285 18.4167 91.3085 19.1233 90.8819 19.71H79.6419ZM84.9619 14.95C84.9619 14.1233 84.8285 13.5633 84.5619 13.27C84.2952 12.9767 83.9752 12.83 83.6019 12.83C83.1752 12.83 82.7752 12.9767 82.4019 13.27C82.0552 13.5367 81.7352 13.91 81.4419 14.39C81.1485 14.8433 80.8819 15.3767 80.6419 15.99C80.4019 16.5767 80.2019 17.2033 80.0419 17.87H84.6019C84.6552 17.55 84.7085 17.2167 84.7619 16.87C84.8152 16.5767 84.8552 16.2567 84.8819 15.91C84.9352 15.5633 84.9619 15.2433 84.9619 14.95ZM94.7969 17.51H107.397L106.597 21.15H93.9569L94.7969 17.51ZM134.318 8.39C134.318 9.96333 133.878 11.4167 132.998 12.75C132.118 14.0833 130.665 15.0967 128.638 15.79L133.278 27.75H124.358L120.838 16.67H120.398L118.038 27.75H109.398L114.798 2.35H125.318C126.545 2.35 127.705 2.43 128.798 2.59C129.892 2.72333 130.838 3.01667 131.638 3.47C132.465 3.89667 133.118 4.51 133.598 5.31C134.078 6.08333 134.318 7.11 134.318 8.39ZM122.798 14.11C123.492 14.11 124.078 13.8833 124.558 13.43C125.065 12.95 125.465 12.3767 125.758 11.71C126.078 11.0433 126.305 10.3367 126.438 9.59C126.572 8.81667 126.638 8.15 126.638 7.59C126.638 6.89667 126.518 6.31 126.278 5.83C126.038 5.32333 125.518 5.07 124.718 5.07H122.918L120.918 14.11H122.798ZM142.728 19.71C142.621 20.2967 142.541 20.8567 142.488 21.39C142.461 21.9233 142.448 22.4033 142.448 22.83C142.448 23.07 142.461 23.3367 142.488 23.63C142.514 23.9233 142.568 24.2033 142.648 24.47C142.754 24.71 142.888 24.9233 143.048 25.11C143.234 25.27 143.488 25.35 143.808 25.35C144.048 25.35 144.314 25.27 144.608 25.11C144.928 24.95 145.234 24.7233 145.528 24.43C145.848 24.1367 146.141 23.7767 146.408 23.35C146.701 22.9233 146.928 22.4433 147.088 21.91H153.648L152.608 26.19C152.074 26.5367 151.461 26.83 150.768 27.07C150.074 27.31 149.341 27.51 148.568 27.67C147.794 27.8033 147.008 27.8967 146.208 27.95C145.408 28.03 144.648 28.07 143.928 28.07C142.594 28.07 141.354 27.95 140.208 27.71C139.061 27.47 138.061 27.0567 137.208 26.47C136.354 25.8833 135.674 25.11 135.168 24.15C134.688 23.1633 134.448 21.95 134.448 20.51C134.448 19.2033 134.648 17.9233 135.048 16.67C135.474 15.4167 136.168 14.31 137.128 13.35C138.114 12.3633 139.421 11.5767 141.048 10.99C142.701 10.4033 144.754 10.11 147.208 10.11C149.874 10.11 151.874 10.5233 153.208 11.35C154.568 12.1767 155.248 13.47 155.248 15.23C155.248 15.95 155.141 16.7367 154.928 17.59C154.714 18.4167 154.394 19.1233 153.968 19.71H142.728ZM148.048 14.95C148.048 14.1233 147.914 13.5633 147.648 13.27C147.381 12.9767 147.061 12.83 146.688 12.83C146.261 12.83 145.861 12.9767 145.488 13.27C145.141 13.5367 144.821 13.91 144.528 14.39C144.234 14.8433 143.968 15.3767 143.728 15.99C143.488 16.5767 143.288 17.2033 143.128 17.87H147.688C147.741 17.55 147.794 17.2167 147.848 16.87C147.901 16.5767 147.941 16.2567 147.968 15.91C148.021 15.5633 148.048 15.2433 148.048 14.95ZM162.203 34.47H154.043L159.083 10.55H165.603L166.323 13.11H166.563C167.523 12.0967 168.589 11.3767 169.763 10.95C170.963 10.4967 172.136 10.27 173.283 10.27C174.216 10.27 174.989 10.4167 175.603 10.71C176.243 10.9767 176.749 11.35 177.123 11.83C177.496 12.31 177.763 12.8833 177.923 13.55C178.083 14.2167 178.163 14.9233 178.163 15.67C178.163 16.0433 178.136 16.6033 178.083 17.35C178.029 18.0967 177.909 18.9367 177.723 19.87C177.536 20.7767 177.269 21.7233 176.923 22.71C176.576 23.67 176.109 24.55 175.523 25.35C174.963 26.15 174.243 26.8033 173.363 27.31C172.509 27.8167 171.483 28.07 170.283 28.07C169.616 28.07 168.963 27.99 168.323 27.83C167.709 27.67 167.149 27.4567 166.643 27.19C166.136 26.9233 165.683 26.6167 165.283 26.27C164.909 25.8967 164.629 25.5233 164.443 25.15H164.203L162.203 34.47ZM166.443 24.19C167.083 24.19 167.616 23.8567 168.043 23.19C168.469 22.4967 168.816 21.6967 169.083 20.79C169.349 19.8567 169.536 18.9367 169.643 18.03C169.776 17.0967 169.843 16.4033 169.843 15.95C169.843 15.4167 169.749 14.9767 169.563 14.63C169.403 14.2833 169.096 14.11 168.643 14.11C168.136 14.11 167.656 14.2967 167.203 14.67C166.749 15.0167 166.416 15.3233 166.203 15.59L164.643 22.91C164.856 23.2033 165.109 23.4967 165.403 23.79C165.696 24.0567 166.043 24.19 166.443 24.19ZM194.162 10.55H202.322L198.642 27.75H192.162L191.442 25.19H191.202C190.509 26.0167 189.562 26.71 188.362 27.27C187.189 27.8033 186.002 28.07 184.802 28.07C183.202 28.07 181.949 27.67 181.042 26.87C180.136 26.0433 179.682 24.9767 179.682 23.67C179.682 23.0033 179.789 22.1767 180.002 21.19C180.242 20.1767 180.456 19.23 180.642 18.35L182.322 10.55H190.442L188.442 19.91C188.389 20.1233 188.336 20.3767 188.282 20.67C188.229 20.9633 188.176 21.2567 188.122 21.55C188.069 21.8167 188.016 22.0833 187.962 22.35C187.936 22.59 187.922 22.79 187.922 22.95C187.922 23.35 188.002 23.6967 188.162 23.99C188.349 24.2567 188.669 24.39 189.122 24.39C189.602 24.39 190.056 24.23 190.482 23.91C190.909 23.59 191.242 23.2833 191.482 22.99L194.162 10.55ZM208.721 27.75H202.241L207.921 0.869998H216.121L213.521 13.11H213.801C214.681 12.0967 215.667 11.3767 216.761 10.95C217.881 10.4967 218.987 10.27 220.081 10.27C221.014 10.27 221.787 10.4167 222.401 10.71C223.041 10.9767 223.547 11.35 223.921 11.83C224.294 12.31 224.561 12.8833 224.721 13.55C224.881 14.2167 224.961 14.9233 224.961 15.67C224.961 16.0433 224.934 16.6033 224.881 17.35C224.827 18.0967 224.707 18.9367 224.521 19.87C224.334 20.7767 224.067 21.7233 223.721 22.71C223.374 23.67 222.907 24.55 222.321 25.35C221.761 26.15 221.041 26.8033 220.161 27.31C219.307 27.8167 218.281 28.07 217.081 28.07C216.361 28.07 215.654 27.99 214.961 27.83C214.294 27.67 213.681 27.4567 213.121 27.19C212.587 26.9233 212.107 26.6167 211.681 26.27C211.281 25.8967 210.987 25.5233 210.801 25.15H210.521L208.721 27.75ZM213.241 24.19C213.881 24.19 214.414 23.8567 214.841 23.19C215.267 22.4967 215.614 21.6967 215.881 20.79C216.147 19.8567 216.334 18.9367 216.441 18.03C216.574 17.0967 216.641 16.4033 216.641 15.95C216.641 15.4167 216.547 14.9767 216.361 14.63C216.201 14.2833 215.894 14.11 215.441 14.11C214.907 14.11 214.414 14.31 213.961 14.71C213.507 15.0833 213.174 15.4033 212.961 15.67L211.401 22.83C211.587 23.15 211.827 23.4567 212.121 23.75C212.441 24.0433 212.814 24.19 213.241 24.19ZM233.799 27.75H225.639L231.319 0.869998H239.519L233.799 27.75ZM245.478 27.75H237.358L240.998 10.55H249.198L245.478 27.75ZM250.238 5.31C250.238 5.92333 250.104 6.45667 249.838 6.91C249.598 7.36333 249.264 7.75 248.838 8.07C248.438 8.39 247.971 8.63 247.438 8.79C246.904 8.95 246.358 9.03 245.798 9.03C244.731 9.03 243.838 8.77667 243.118 8.27C242.398 7.76333 242.038 6.96333 242.038 5.87C242.038 5.28333 242.158 4.76333 242.398 4.31C242.638 3.83 242.958 3.44333 243.358 3.15C243.784 2.83 244.264 2.59 244.798 2.43C245.358 2.27 245.931 2.19 246.518 2.19C247.558 2.19 248.438 2.44333 249.158 2.95C249.878 3.45667 250.238 4.24333 250.238 5.31ZM267.237 26.79C266.117 27.2433 264.93 27.5633 263.677 27.75C262.45 27.9633 261.05 28.07 259.477 28.07C258.09 28.07 256.81 27.9367 255.637 27.67C254.49 27.3767 253.49 26.9233 252.637 26.31C251.783 25.6967 251.117 24.91 250.637 23.95C250.157 22.9633 249.917 21.7767 249.917 20.39C249.917 18.95 250.157 17.6167 250.637 16.39C251.143 15.1367 251.89 14.0433 252.877 13.11C253.89 12.1767 255.17 11.4433 256.717 10.91C258.263 10.3767 260.103 10.11 262.237 10.11C263.97 10.11 265.477 10.2567 266.757 10.55C268.037 10.8167 269.09 11.4433 269.917 12.43L268.797 17.55H263.357C263.383 17.0967 263.41 16.6967 263.437 16.35C263.463 16.0033 263.477 15.6167 263.477 15.19C263.477 14.3367 263.383 13.7367 263.197 13.39C263.01 13.0167 262.703 12.83 262.277 12.83C261.53 12.83 260.877 13.2033 260.317 13.95C259.757 14.67 259.29 15.55 258.917 16.59C258.57 17.6033 258.303 18.6833 258.117 19.83C257.957 20.95 257.877 21.91 257.877 22.71C257.877 23.0033 257.89 23.31 257.917 23.63C257.943 23.9233 257.997 24.2033 258.077 24.47C258.183 24.7367 258.317 24.95 258.477 25.11C258.637 25.27 258.863 25.35 259.157 25.35C259.423 25.35 259.73 25.27 260.077 25.11C260.423 24.95 260.757 24.71 261.077 24.39C261.397 24.0433 261.703 23.6033 261.997 23.07C262.29 22.5367 262.517 21.8967 262.677 21.15H268.397L267.237 26.79Z" fill="black"/>
</svg>
