<svg width="49" height="49" viewBox="0 0 49 49" fill="none" xmlns="http://www.w3.org/2000/svg">
<g id="plantlogo">
<path id="Vector" d="M48.1633 7.58933C48.1301 7.02807 47.8921 6.49848 47.4946 6.10091C47.097 5.70334 46.5674 5.46541 46.0061 5.43218C35.808 4.83117 27.5929 7.99128 24.025 13.8809C21.7014 17.709 21.621 22.3353 23.7456 26.7625C22.8369 27.921 22.1113 29.2121 21.5942 30.5906L19.7375 28.734C21.1138 25.5241 20.9683 22.2051 19.2782 19.4144C16.6023 14.9987 10.5079 12.6329 2.97801 13.0693C2.41675 13.1025 1.88716 13.3404 1.48959 13.738C1.09202 14.1356 0.854085 14.6652 0.820864 15.2264C0.384458 22.7564 2.75024 28.8507 7.16981 31.5266C8.66873 32.4402 10.391 32.9217 12.1464 32.9181C13.643 32.9059 15.1214 32.5887 16.4913 31.986L20.6735 36.1759V41.3438C20.6735 41.953 20.9155 42.5372 21.3463 42.968C21.777 43.3987 22.3612 43.6407 22.9704 43.6407C23.5796 43.6407 24.1638 43.3987 24.5945 42.968C25.0253 42.5372 25.2673 41.953 25.2673 41.3438V35.6993C25.2625 33.6461 25.8974 31.6424 27.0837 29.9666C29.004 30.8799 31.0996 31.3658 33.2259 31.3907C35.5143 31.3961 37.7597 30.7695 39.7146 29.58C45.6042 26.0026 48.7643 17.7855 48.1633 7.58933ZM9.54899 27.597C7.02434 26.0658 5.495 22.341 5.37059 17.619C10.0926 17.7434 13.8193 19.2747 15.3486 21.7974C15.9467 22.7702 16.192 23.9191 16.0434 25.0513L13.8748 22.875C13.4433 22.4435 12.858 22.2011 12.2478 22.2011C11.6376 22.2011 11.0524 22.4435 10.6209 22.875C10.1894 23.3065 9.94696 23.8918 9.94696 24.502C9.94696 25.1122 10.1894 25.6974 10.6209 26.1289L12.7914 28.2995C11.6623 28.4389 10.5192 28.1913 9.54899 27.597ZM37.3354 25.6485C35.295 26.8831 32.9331 27.1166 30.4812 26.3682L37.6111 19.2402C38.0426 18.8087 38.285 18.2235 38.285 17.6133C38.285 17.0031 38.0426 16.4178 37.6111 15.9863C37.1796 15.5548 36.5943 15.3124 35.9841 15.3124C35.3739 15.3124 34.7886 15.5548 34.3572 15.9863L27.2273 23.1143C26.4865 20.6719 26.72 18.3004 27.947 16.2696C30.3912 12.2328 36.1774 9.9398 43.6423 9.9532C43.6691 17.418 41.3722 23.1947 37.3354 25.6485Z" fill="#609966"/>
</g>
</svg>
