<svg width="1367" height="127" viewBox="0 0 1367 127" fill="none" xmlns="http://www.w3.org/2000/svg">
<g id="shoerepublicoverlay">
<path d="M46.3258 126.545C37.751 126.545 29.9984 125.077 23.0681 122.141C16.2553 119.204 10.852 114.975 6.85821 109.455C2.86447 103.934 0.808869 97.4146 0.691406 89.897H27.1206C27.473 94.9479 29.2349 98.9417 32.4064 101.878C35.6954 104.815 40.159 106.283 45.7972 106.283C51.5529 106.283 56.0752 104.932 59.3642 102.231C62.6531 99.4115 64.2976 95.7702 64.2976 91.3066C64.2976 87.6652 63.1817 84.6699 60.9499 82.3207C58.7181 79.9714 55.899 78.1507 52.4926 76.8586C49.2036 75.4491 44.6226 73.9221 38.7494 72.2776C30.7619 69.9283 24.2427 67.6378 19.1918 65.406C14.2584 63.0567 9.97098 59.5916 6.32963 55.0105C2.80574 50.312 1.0438 44.0864 1.0438 36.3339C1.0438 29.0512 2.86447 22.7082 6.50583 17.3049C10.1472 11.9016 15.2568 7.79038 21.8347 4.97126C28.4127 2.03469 35.9303 0.566406 44.3876 0.566406C57.0736 0.566406 67.3517 3.67917 75.2217 9.90471C83.2092 16.0128 87.614 24.5876 88.4363 35.6291H61.3023C61.0674 31.4004 59.2467 27.9353 55.8403 25.2336C52.5513 22.4145 48.1465 21.005 42.6257 21.005C37.8097 21.005 33.9334 22.2383 30.9969 24.705C28.1777 27.1718 26.7682 30.7544 26.7682 35.4529C26.7682 38.7419 27.8254 41.5023 29.9397 43.7341C32.1715 45.8484 34.8731 47.6103 38.0446 49.0199C41.3336 50.312 45.9147 51.839 51.7878 53.601C59.7753 55.9502 66.2945 58.2995 71.3454 60.6487C76.3963 62.998 80.7424 66.5219 84.3838 71.2204C88.0252 75.9189 89.8458 82.0857 89.8458 89.7208C89.8458 96.2988 88.1426 102.407 84.7362 108.045C81.3298 113.683 76.3376 118.206 69.7597 121.612C63.1817 124.901 55.3704 126.545 46.3258 126.545Z" fill="#3E505B" fill-opacity="0.07"/>
<path d="M213.248 2.32835V125.312H188.581V72.9823H135.899V125.312H111.231V2.32835H135.899V52.8962H188.581V2.32835H213.248Z" fill="#3E505B" fill-opacity="0.07"/>
<path d="M294.614 126.545C283.103 126.545 272.531 123.844 262.899 118.441C253.267 113.037 245.632 105.578 239.994 96.0638C234.356 86.4319 231.536 75.5665 231.536 63.4678C231.536 51.4866 234.356 40.7387 239.994 31.2242C245.632 21.5923 253.267 14.0746 262.899 8.67134C272.531 3.26805 283.103 0.566406 294.614 0.566406C306.243 0.566406 316.815 3.26805 326.329 8.67134C335.961 14.0746 343.537 21.5923 349.058 31.2242C354.696 40.7387 357.516 51.4866 357.516 63.4678C357.516 75.5665 354.696 86.4319 349.058 96.0638C343.537 105.578 335.961 113.037 326.329 118.441C316.697 123.844 306.125 126.545 294.614 126.545ZM294.614 104.521C302.014 104.521 308.533 102.877 314.172 99.5877C319.81 96.1813 324.215 91.3653 327.386 85.1398C330.558 78.9142 332.144 71.6903 332.144 63.4678C332.144 55.2454 330.558 48.0802 327.386 41.9721C324.215 35.7466 319.81 30.9893 314.172 27.7004C308.533 24.4114 302.014 22.7669 294.614 22.7669C287.214 22.7669 280.636 24.4114 274.88 27.7004C269.242 30.9893 264.837 35.7466 261.666 41.9721C258.494 48.0802 256.908 55.2454 256.908 63.4678C256.908 71.6903 258.494 78.9142 261.666 85.1398C264.837 91.3653 269.242 96.1813 274.88 99.5877C280.636 102.877 287.214 104.521 294.614 104.521Z" fill="#3E505B" fill-opacity="0.07"/>
<path d="M400.535 22.2383V53.0724H441.94V72.63H400.535V105.226H447.226V125.312H375.867V2.15215H447.226V22.2383H400.535Z" fill="#3E505B" fill-opacity="0.07"/>
<path d="M544.702 52.0152V72.8062H469.995V52.0152H544.702Z" fill="#3E505B" fill-opacity="0.07"/>
<path d="M635.795 125.312L608.662 77.3872H597.033V125.312H572.365V2.32835H618.528C628.043 2.32835 636.148 4.03156 642.843 7.43799C649.539 10.727 654.531 15.2493 657.82 21.005C661.226 26.6432 662.929 32.9862 662.929 40.034C662.929 48.1389 660.58 55.4804 655.882 62.0583C651.183 68.5188 644.194 72.9823 634.915 75.4491L664.339 125.312H635.795ZM597.033 58.8868H617.647C624.343 58.8868 629.335 57.301 632.624 54.1295C635.913 50.8406 637.557 46.3182 637.557 40.5626C637.557 34.9243 635.913 30.5782 632.624 27.5242C629.335 24.3527 624.343 22.7669 617.647 22.7669H597.033V58.8868Z" fill="#3E505B" fill-opacity="0.07"/>
<path d="M709.907 22.2383V53.0724H751.313V72.63H709.907V105.226H756.599V125.312H685.24V2.15215H756.599V22.2383H709.907Z" fill="#3E505B" fill-opacity="0.07"/>
<path d="M868.698 40.3864C868.698 46.9643 867.113 53.1311 863.941 58.8868C860.887 64.6425 856.012 69.2823 849.317 72.8062C842.739 76.33 834.399 78.092 824.297 78.092H803.683V125.312H779.016V2.32835H824.297C833.812 2.32835 841.917 3.97283 848.612 7.2618C855.308 10.5508 860.3 15.0731 863.589 20.8288C866.995 26.5845 868.698 33.1037 868.698 40.3864ZM823.24 58.182C830.053 58.182 835.104 56.655 838.393 53.601C841.682 50.4294 843.326 46.0246 843.326 40.3864C843.326 28.4051 836.631 22.4145 823.24 22.4145H803.683V58.182H823.24Z" fill="#3E505B" fill-opacity="0.07"/>
<path d="M910.527 2.32835V78.4444C910.527 86.7842 912.7 93.186 917.046 97.6496C921.392 101.996 927.5 104.169 935.37 104.169C943.358 104.169 949.525 101.996 953.871 97.6496C958.217 93.186 960.39 86.7842 960.39 78.4444V2.32835H985.233V78.2682C985.233 88.7224 982.943 97.5908 978.362 104.874C973.898 112.039 967.849 117.442 960.214 121.083C952.696 124.725 944.297 126.545 935.018 126.545C925.856 126.545 917.516 124.725 909.998 121.083C902.598 117.442 896.725 112.039 892.379 104.874C888.033 97.5908 885.86 88.7224 885.86 78.2682V2.32835H910.527Z" fill="#3E505B" fill-opacity="0.07"/>
<path d="M1078.84 62.2345C1085.77 63.5266 1091.47 66.9917 1095.93 72.63C1100.39 78.2682 1102.63 84.7286 1102.63 92.0114C1102.63 98.5893 1100.98 104.404 1097.69 109.455C1094.52 114.388 1089.88 118.264 1083.77 121.083C1077.66 123.903 1070.44 125.312 1062.1 125.312H1009.07V2.32835H1059.81C1068.15 2.32835 1075.32 3.67917 1081.31 6.38082C1087.41 9.08247 1092 12.8413 1095.05 17.6573C1098.22 22.4733 1099.81 27.9353 1099.81 34.0434C1099.81 41.2086 1097.87 47.1992 1093.99 52.0152C1090.23 56.8312 1085.18 60.2376 1078.84 62.2345ZM1033.73 53.0724H1056.29C1062.16 53.0724 1066.68 51.7803 1069.85 49.1961C1073.02 46.4944 1074.61 42.6769 1074.61 37.7434C1074.61 32.81 1073.02 28.9924 1069.85 26.2908C1066.68 23.5891 1062.16 22.2383 1056.29 22.2383H1033.73V53.0724ZM1058.58 105.226C1064.57 105.226 1069.21 103.816 1072.5 100.997C1075.9 98.1782 1077.61 94.1844 1077.61 89.016C1077.61 83.7302 1075.84 79.619 1072.32 76.6824C1068.8 73.6284 1064.04 72.1014 1058.05 72.1014H1033.73V105.226H1058.58Z" fill="#3E505B" fill-opacity="0.07"/>
<path d="M1146.95 105.755H1187.48V125.312H1122.29V2.32835H1146.95V105.755Z" fill="#3E505B" fill-opacity="0.07"/>
<path d="M1227.82 2.32835V125.312H1203.16V2.32835H1227.82Z" fill="#3E505B" fill-opacity="0.07"/>
<path d="M1246.2 63.644C1246.2 51.5453 1248.91 40.7387 1254.31 31.2242C1259.83 21.5923 1267.29 14.1334 1276.69 8.84755C1286.2 3.44425 1296.83 0.742598 1308.58 0.742598C1322.32 0.742598 1334.36 4.26649 1344.7 11.3143C1355.03 18.362 1362.26 28.1115 1366.37 40.5626H1338C1335.18 34.6894 1331.19 30.2845 1326.02 27.348C1320.97 24.4114 1315.1 22.9431 1308.4 22.9431C1301.23 22.9431 1294.83 24.6463 1289.19 28.0527C1283.67 31.3417 1279.33 36.0402 1276.16 42.1483C1273.1 48.2564 1271.58 55.4216 1271.58 63.644C1271.58 71.749 1273.1 78.9142 1276.16 85.1398C1279.33 91.2478 1283.67 96.0051 1289.19 99.4115C1294.83 102.7 1301.23 104.345 1308.4 104.345C1315.1 104.345 1320.97 102.877 1326.02 99.9401C1331.19 96.8861 1335.18 92.4225 1338 86.5493H1366.37C1362.26 99.1179 1355.03 108.926 1344.7 115.974C1334.48 122.904 1322.44 126.369 1308.58 126.369C1296.83 126.369 1286.2 123.726 1276.69 118.441C1267.29 113.037 1259.83 105.578 1254.31 96.0638C1248.91 86.5493 1246.2 75.7427 1246.2 63.644Z" fill="#3E505B" fill-opacity="0.07"/>
</g>
</svg>
