<svg width="171" height="74" viewBox="0 0 171 74" fill="none" xmlns="http://www.w3.org/2000/svg">
<path id="Sneakers" d="M16.256 52.608L15.68 52.416C15.6373 52.544 15.5307 52.5867 15.36 52.544C15.232 52.544 15.1253 52.5013 15.04 52.416C14.8267 52.0747 14.592 51.9253 14.336 51.968C14.08 52.0533 13.7387 52.0107 13.312 51.84H13.248C13.12 51.84 12.9707 51.8613 12.8 51.904C12.672 51.9893 12.544 52.0107 12.416 51.968L11.968 51.584C11.968 51.6267 11.9253 51.648 11.84 51.648C11.712 51.648 11.584 51.6267 11.456 51.584C11.328 51.5413 11.2853 51.4987 11.328 51.456L10.24 50.88L10.112 50.944L9.408 50.176C9.36533 50.2187 9.32267 50.24 9.28 50.24C9.19467 50.24 9.10933 50.176 9.024 50.048C8.93867 49.9627 8.87467 49.92 8.832 49.92C8.576 49.7067 8.27733 49.4933 7.936 49.28C7.63733 49.1093 7.33867 48.9173 7.04 48.704C6.99733 48.6613 6.976 48.576 6.976 48.448C6.976 48.3627 6.93333 48.2987 6.848 48.256C6.72 48.128 6.57067 48 6.4 47.872C6.22933 47.744 6.12267 47.5947 6.08 47.424L5.824 47.488C5.568 47.0187 5.26933 46.592 4.928 46.208C4.58667 45.824 4.43733 45.312 4.48 44.672H4.352L3.52 44.352V44.16C3.47733 44.16 3.41333 44.1813 3.328 44.224C3.24267 44.224 3.136 44.2027 3.008 44.16C2.70933 44.032 2.432 43.8827 2.176 43.712C1.92 43.4987 1.728 43.2427 1.6 42.944C1.55733 42.816 1.49333 42.752 1.408 42.752C1.36533 42.752 1.32267 42.7307 1.28 42.688C1.19467 42.4747 1.06667 42.2827 0.896 42.112C0.725333 41.9413 0.661333 41.728 0.704 41.472L0.896 39.872C1.23733 39.488 1.49333 39.296 1.664 39.296C1.83467 39.296 1.92 39.488 1.92 39.872L1.536 40.512L1.6 41.28C1.68533 41.3653 1.81333 41.408 1.984 41.408C2.15467 41.408 2.28267 41.3867 2.368 41.344L2.304 41.728L2.56 42.176L2.624 42.048L3.008 42.176L3.328 42.624C3.41333 42.4533 3.49867 42.4533 3.584 42.624C3.66933 42.752 3.712 42.816 3.712 42.816L4.032 42.56C3.98933 42.3467 3.94667 42.1333 3.904 41.92C3.86133 41.664 3.84 41.4293 3.84 41.216C3.84 40.9173 3.86133 40.704 3.904 40.576C4.032 40.1067 4.07467 39.744 4.032 39.488C4.032 39.488 4.11733 39.3387 4.288 39.04C4.45867 38.6987 4.62933 38.4853 4.8 38.4L5.312 38.08L5.44 38.272C5.39733 38.3147 5.312 38.4427 5.184 38.656C5.056 38.8693 4.94933 39.0187 4.864 39.104C4.52267 39.8293 4.39467 40.5547 4.48 41.28C4.48 41.3227 4.48 41.3867 4.48 41.472C4.52267 41.5147 4.52267 41.6 4.48 41.728V42.624C4.56533 42.6667 4.608 42.8373 4.608 43.136C4.608 43.392 4.65067 43.4987 4.736 43.456C4.94933 43.4133 5.12 43.4773 5.248 43.648C5.41867 43.776 5.54667 43.712 5.632 43.456L6.08 43.968H6.72C6.67733 44.0533 6.784 44.1387 7.04 44.224C7.33867 44.2667 7.63733 44.288 7.936 44.288C8.23467 44.288 8.384 44.288 8.384 44.288L8.768 44.608C8.768 44.5653 8.832 44.608 8.96 44.736H9.024C9.152 44.736 9.28 44.6933 9.408 44.608C9.57867 44.5227 9.70667 44.48 9.792 44.48C10.0053 44.5227 10.2187 44.608 10.432 44.736C10.688 44.864 10.88 44.864 11.008 44.736L11.52 44.928L12.096 44.608C12.1813 44.6933 12.352 44.7787 12.608 44.864C12.6933 44.9067 12.8213 44.928 12.992 44.928C13.376 44.928 13.6533 44.8427 13.824 44.672L14.08 44.992C14.6773 44.9493 15.2747 44.9493 15.872 44.992C16.512 44.992 17.1093 44.992 17.664 44.992C18.1333 44.992 18.5813 44.992 19.008 44.992C19.4773 44.9493 19.9253 44.9067 20.352 44.864C20.48 44.864 20.5867 44.864 20.672 44.864C20.7573 44.8213 20.8213 44.8 20.864 44.8C21.1627 44.8 21.504 44.7147 21.888 44.544C22.272 44.3733 22.592 44.288 22.848 44.288C22.9333 44.288 23.1253 44.224 23.424 44.096C23.7653 43.9253 23.872 44.032 23.744 44.416L23.104 44.736L22.912 44.672C22.8693 44.7147 22.6773 44.8213 22.336 44.992C22.0373 45.12 21.8667 45.1413 21.824 45.056L20.48 45.248C20.3093 45.2907 20.0533 45.3333 19.712 45.376C19.3707 45.4187 19.2 45.4187 19.2 45.376L18.624 45.504C18.624 45.4613 18.5813 45.44 18.496 45.44C18.3253 45.44 18.0693 45.504 17.728 45.632C17.4293 45.76 17.2587 45.8027 17.216 45.76C17.1733 45.6747 16.96 45.6747 16.576 45.76C16.2347 45.8027 15.8933 45.824 15.552 45.824C15.04 45.824 14.7627 45.7387 14.72 45.568L14.208 45.76C14.2933 45.6747 14.2507 45.632 14.08 45.632C13.952 45.5893 13.8453 45.5893 13.76 45.632L13.696 45.952C13.6107 45.9947 13.5253 45.9947 13.44 45.952C13.3547 45.9093 13.2693 45.8667 13.184 45.824C12.928 45.696 12.5227 45.632 11.968 45.632C11.4133 45.632 10.88 45.6107 10.368 45.568C9.856 45.5253 9.536 45.4187 9.408 45.248L8.896 45.504C8.72533 45.504 8.46933 45.4827 8.128 45.44C7.82933 45.3547 7.59467 45.2907 7.424 45.248C7.12533 45.1627 6.784 45.0773 6.4 44.992C6.05867 44.9067 5.71733 44.8853 5.376 44.928L5.696 45.44V45.568C5.99467 45.7387 6.22933 46.016 6.4 46.4C6.61333 46.7413 6.93333 46.8693 7.36 46.784L7.552 47.616L8.064 47.936C8.10667 47.8933 8.14933 47.872 8.192 47.872C8.32 47.872 8.53333 47.9573 8.832 48.128C9.13067 48.2987 9.36533 48.4267 9.536 48.512L9.728 48.384L10.048 48.96C10.0907 48.9173 10.1333 48.896 10.176 48.896C10.304 48.896 10.4533 48.9387 10.624 49.024C10.7947 49.1093 10.9013 49.1307 10.944 49.088L11.392 49.216L11.84 49.088C12.0107 49.344 12.1173 49.536 12.16 49.664C12.2027 49.792 12.2667 49.8773 12.352 49.92C12.5653 50.0053 12.5653 50.0693 12.352 50.112C12.1813 50.1547 12.096 50.2187 12.096 50.304L12.16 50.432H12.736C12.736 50.304 12.8853 50.1973 13.184 50.112C13.5253 50.0693 13.8667 50.048 14.208 50.048C14.72 50.048 15.0187 50.0907 15.104 50.176C15.2747 50.2613 15.3173 50.2613 15.232 50.176L15.808 50.112L16.192 50.432C16.2773 50.304 16.3627 50.24 16.448 50.24C16.576 50.24 16.6827 50.2613 16.768 50.304C16.896 50.3893 16.96 50.432 16.96 50.432C17.0453 50.4747 17.1307 50.3893 17.216 50.176C17.344 50.0053 17.4933 49.9413 17.664 49.984L17.92 50.048C18.2187 50.048 18.5173 50.0053 18.816 49.92C19.1573 49.8347 19.3493 49.92 19.392 50.176L19.84 49.856L20.16 49.92L20.032 50.432C20.032 50.6027 20.0533 50.688 20.096 50.688C20.1813 50.688 20.288 50.5387 20.416 50.24C20.5867 49.984 20.672 49.9627 20.672 50.176L21.12 49.664C21.248 49.7493 21.4187 49.792 21.632 49.792C21.9733 49.792 22.2933 49.664 22.592 49.408C22.8907 49.1947 23.2533 49.0453 23.68 48.96L23.744 49.088C23.8293 49.0453 23.9147 49.0027 24 48.96C24.128 48.96 24.192 49.0027 24.192 49.088L24.896 49.024C25.0667 48.896 25.344 48.7467 25.728 48.576C26.1547 48.4053 26.4533 48.2773 26.624 48.192L26.688 47.936C26.688 47.936 26.7947 47.936 27.008 47.936C27.264 47.8933 27.4133 47.8507 27.456 47.808V47.744C27.456 47.6587 27.456 47.5307 27.456 47.36C27.456 47.1467 27.5413 47.0613 27.712 47.104L28.032 47.296C28.416 47.168 28.672 46.9973 28.8 46.784C28.9707 46.528 29.2267 46.2933 29.568 46.08C29.696 45.9947 29.8027 45.888 29.888 45.76C30.016 45.632 30.1653 45.5467 30.336 45.504C30.3787 45.504 30.4427 45.568 30.528 45.696C30.656 45.824 30.784 45.8027 30.912 45.632L30.976 44.992L31.552 44.8L31.872 44.352C31.872 44.352 31.872 44.3733 31.872 44.416C31.9147 44.416 31.9573 44.416 32 44.416C32.1707 44.416 32.3627 44.2453 32.576 43.904C32.7893 43.5627 32.832 43.328 32.704 43.2L33.344 42.496C33.3013 42.24 33.3867 41.92 33.6 41.536C33.856 41.152 33.984 40.6827 33.984 40.128C33.984 39.7867 33.8773 39.3813 33.664 38.912C33.4507 38.4427 33.024 37.9307 32.384 37.376L32.064 37.184C31.552 36.8427 31.0827 36.5867 30.656 36.416C30.272 36.2027 29.76 35.9893 29.12 35.776C29.12 35.776 29.056 35.7333 28.928 35.648L27.136 35.136C26.9653 35.008 26.5813 34.9013 25.984 34.816C25.3867 34.7307 24.9813 34.6667 24.768 34.624C24.6827 34.5813 24.576 34.5173 24.448 34.432C24.3627 34.3467 24.2773 34.368 24.192 34.496L23.616 34.176C23.5307 34.2187 23.424 34.24 23.296 34.24C23.2107 34.24 23.1253 34.2187 23.04 34.176C22.9973 34.1333 22.8693 34.112 22.656 34.112C22.3573 34.0693 21.8667 33.9413 21.184 33.728C20.544 33.5147 20.1813 33.4507 20.096 33.536L18.432 32.704L18.24 32.768L17.664 32.448C17.792 32.6187 17.7067 32.6613 17.408 32.576C17.1093 32.448 16.768 32.2987 16.384 32.128C16 31.9147 15.7013 31.7867 15.488 31.744C14.7627 31.4453 14.1013 31.0187 13.504 30.464C12.9493 29.9093 12.672 29.2267 12.672 28.416C12.672 27.6907 12.7147 27.1787 12.8 26.88C12.8853 26.5813 12.992 26.3253 13.12 26.112C13.2907 25.8987 13.44 25.5787 13.568 25.152C13.6533 25.024 13.76 24.896 13.888 24.768C14.0587 24.5973 14.1653 24.4267 14.208 24.256L14.72 23.936C14.7627 23.7227 14.8693 23.5093 15.04 23.296C15.2533 23.0827 15.4453 22.9333 15.616 22.848C16.1707 22.592 16.7893 22.1653 17.472 21.568C18.1973 20.928 18.9013 20.4587 19.584 20.16C19.7547 20.0747 19.904 20.0107 20.032 19.968C20.16 19.8827 20.3093 19.8187 20.48 19.776L20.544 19.904C20.928 19.776 21.568 19.584 22.464 19.328C23.36 19.0293 24.3413 18.7307 25.408 18.432C26.5173 18.1333 27.5413 17.8773 28.48 17.664C29.4613 17.4507 30.2293 17.344 30.784 17.344C31.168 17.344 31.3813 17.408 31.424 17.536L32.192 17.088C32.2347 17.1307 32.32 17.1733 32.448 17.216C32.576 17.216 32.6613 17.1947 32.704 17.152L33.344 17.344C33.5147 17.2587 33.6427 17.216 33.728 17.216C33.984 17.216 34.2613 17.3013 34.56 17.472C34.9013 17.6 35.1573 17.6427 35.328 17.6C35.5413 17.5147 35.6907 17.4933 35.776 17.536C35.904 17.536 36.032 17.536 36.16 17.536H36.416C36.544 17.536 36.672 17.5573 36.8 17.6C36.9707 17.6 37.1413 17.6853 37.312 17.856L37.632 17.92C37.76 18.048 37.824 18.1973 37.824 18.368C37.9093 18.5387 38.1653 18.6453 38.592 18.688C39.0187 18.7307 39.296 18.816 39.424 18.944C39.7653 19.2 39.9573 19.6267 40 20.224C40.0853 20.7787 40.128 21.2907 40.128 21.76C40.0853 22.2293 39.8933 22.8053 39.552 23.488C39.2533 24.128 38.8693 24.64 38.4 25.024C38.1867 25.1947 37.8667 25.3867 37.44 25.6C37.0133 25.7707 36.6933 25.92 36.48 26.048C36.0107 26.3467 35.4987 26.496 34.944 26.496C34.1333 26.496 33.728 26.3253 33.728 25.984C33.728 25.856 33.8773 25.728 34.176 25.6C34.3893 25.5147 34.5813 25.4293 34.752 25.344C34.9653 25.216 35.1573 25.0667 35.328 24.896C35.4987 24.8107 35.6053 24.768 35.648 24.768C35.7333 24.7253 35.7973 24.6827 35.84 24.64C35.9253 24.5973 35.9893 24.5547 36.032 24.512C36.0747 24.4267 36.16 24.3413 36.288 24.256C36.544 24.0427 36.864 23.7013 37.248 23.232C37.6747 22.72 37.9733 22.336 38.144 22.08C38.1867 21.8667 38.272 21.5893 38.4 21.248C38.5707 20.864 38.656 20.5227 38.656 20.224C38.656 19.968 38.592 19.776 38.464 19.648C38.4213 19.648 38.4 19.6267 38.4 19.584L38.336 19.456C37.9947 18.7307 37.312 18.3253 36.288 18.24C35.3067 18.112 34.4747 18.048 33.792 18.048C33.792 18.048 33.7493 18.0267 33.664 17.984C33.5787 17.9413 33.536 17.9627 33.536 18.048L32.128 18.176L32 18.048L30.656 18.304L30.528 18.24L29.12 18.624C29.1627 18.5387 29.1413 18.5173 29.056 18.56C28.9707 18.56 28.928 18.56 28.928 18.56L27.52 18.944L27.456 18.88L26.816 19.264C26.816 19.2213 26.7947 19.1787 26.752 19.136C26.7093 19.0933 26.688 19.072 26.688 19.072C26.6453 19.1147 26.6027 19.1787 26.56 19.264C26.5173 19.3067 26.4533 19.3493 26.368 19.392L26.24 19.328L25.344 19.648C25.344 19.6907 25.2587 19.712 25.088 19.712C23.936 20.224 22.6773 20.8213 21.312 21.504C19.9893 22.144 18.9653 23.0613 18.24 24.256L18.112 24.128L17.536 24.64C17.4933 24.6827 17.4293 24.7467 17.344 24.832C17.3013 24.9173 17.2373 25.0667 17.152 25.28C17.024 25.6213 16.832 26.0267 16.576 26.496C16.3627 26.9653 16.256 27.4133 16.256 27.84C16.256 28.2667 16.3413 28.672 16.512 29.056C16.6827 29.3973 16.8107 29.4827 16.896 29.312L17.472 29.696L17.664 30.4L17.792 30.336L18.624 30.976H18.752L19.776 31.808L20.544 32.256H21.056L21.824 32.512C21.9093 32.5547 21.9733 32.6187 22.016 32.704C22.1013 32.7467 22.208 32.704 22.336 32.576L22.976 33.024C23.0187 32.9813 23.0827 32.96 23.168 32.96C23.2533 32.96 23.3387 33.0027 23.424 33.088C23.5093 33.1307 23.5733 33.1733 23.616 33.216L23.744 33.152L25.984 34.048C26.0693 34.0053 26.176 33.984 26.304 33.984C26.5173 33.984 26.688 34.0267 26.816 34.112C26.9867 34.1547 27.1573 34.1973 27.328 34.24C27.4133 34.2827 27.52 34.3467 27.648 34.432C27.8187 34.5173 27.904 34.5813 27.904 34.624C27.9893 34.6667 28.0747 34.688 28.16 34.688C28.288 34.688 28.3947 34.688 28.48 34.688L29.056 34.88L29.632 35.2L30.208 35.264C30.208 35.264 30.3787 35.3493 30.72 35.52C31.104 35.648 31.488 35.776 31.872 35.904C32.2987 36.032 32.5333 36.1173 32.576 36.16L32.96 36.544L33.024 36.48L33.472 36.736C33.9413 37.0347 34.4107 37.6107 34.88 38.464C35.392 39.2747 35.648 40.1707 35.648 41.152C35.648 41.792 35.5413 42.432 35.328 43.072C35.1573 43.6693 34.944 44.16 34.688 44.544C34.048 45.3973 33.344 46.1653 32.576 46.848C31.8507 47.5307 31.1893 48.1067 30.592 48.576C30.3787 48.704 30.2293 48.8107 30.144 48.896C30.0587 48.9813 29.9307 49.024 29.76 49.024C29.632 49.0667 29.5253 49.1307 29.44 49.216C28.8427 49.5573 28.1813 49.856 27.456 50.112C26.7307 50.4107 26.0907 50.688 25.536 50.944C25.28 51.0293 25.0667 51.072 24.896 51.072C24.7253 51.1147 24.5547 51.1573 24.384 51.2C24.3413 51.2 24.256 51.2213 24.128 51.264C24.0427 51.3493 24 51.3707 24 51.328L23.552 51.648C23.5093 51.6053 23.4453 51.584 23.36 51.584C23.1893 51.584 22.9973 51.6693 22.784 51.84C22.6133 52.0107 22.4427 52.0747 22.272 52.032H22.208C22.08 52.032 21.9093 52.0533 21.696 52.096C21.5253 52.1813 21.3973 52.1813 21.312 52.096L20.48 52.416L20.352 52.096C20.3093 52.096 20.2453 52.1387 20.16 52.224C20.1173 52.352 20.0533 52.416 19.968 52.416C19.968 52.416 19.8827 52.3733 19.712 52.288C19.5413 52.2027 19.4133 52.2453 19.328 52.416L18.624 52.608C18.5813 52.4373 18.4533 52.352 18.24 52.352C18.0693 52.352 17.92 52.416 17.792 52.544L17.28 52.288V52.352L16.768 52.288L16.256 52.608ZM37.884 48.192C37.628 48.192 37.5 48.0427 37.5 47.744C37.5 47.5307 37.564 47.2747 37.692 46.976C38.0333 46.2507 38.4387 45.2267 38.908 43.904C39.3773 42.5813 39.9533 41.4507 40.636 40.512L43.132 34.944C43.132 34.944 43.0893 34.9227 43.004 34.88C42.9187 34.7947 42.876 34.7093 42.876 34.624C42.62 34.4533 42.3427 34.2187 42.044 33.92C41.788 33.5787 41.7667 33.2373 41.98 32.896C42.0653 32.8107 42.1293 32.768 42.172 32.768C42.2147 32.768 42.236 32.768 42.236 32.768V32.64C42.236 32.4693 42.3 32.3627 42.428 32.32C42.5987 32.2773 42.7053 32.2133 42.748 32.128C42.8333 31.5307 43.324 31.0827 44.22 30.784C45.1587 30.4853 45.9907 30.336 46.716 30.336C47.4413 30.336 47.804 30.4427 47.804 30.656C47.804 30.784 47.676 30.9333 47.42 31.104C47.3347 31.1893 47.1213 31.3813 46.78 31.68C46.4813 31.9787 46.204 32.3413 45.948 32.768L45.5 33.536L45.052 34.112C44.3693 35.3493 43.8147 36.3947 43.388 37.248C42.9613 38.1013 42.4493 39.1893 41.852 40.512C41.724 40.768 41.66 40.9813 41.66 41.152C41.66 41.3653 41.7453 41.472 41.916 41.472C42.0013 41.472 42.0867 41.4507 42.172 41.408C42.3 41.3227 42.428 41.2587 42.556 41.216C42.8973 41.0027 43.1747 40.8107 43.388 40.64C43.644 40.4267 43.9213 40.2133 44.22 40C44.348 39.872 44.4547 39.872 44.54 40C44.6253 40.0853 44.6253 40.2133 44.54 40.384C44.3693 40.7253 44.2413 40.9387 44.156 41.024C44.1133 41.0667 44.0493 41.1093 43.964 41.152C43.8787 41.1947 43.6867 41.3867 43.388 41.728L43.132 42.24C43.0467 42.3253 42.94 42.496 42.812 42.752C42.7267 42.9653 42.684 43.0933 42.684 43.136C42.684 43.2213 42.6413 43.264 42.556 43.264C42.4707 43.2213 42.3427 43.2853 42.172 43.456C42.1293 43.4987 42.108 43.584 42.108 43.712C42.1507 43.84 42.1293 43.9467 42.044 44.032C42.0013 44.16 41.9373 44.2667 41.852 44.352C41.7667 44.3947 41.724 44.4373 41.724 44.48C41.6813 44.6507 41.596 44.7573 41.468 44.8C41.3827 44.8 41.2973 44.8427 41.212 44.928C41.1693 44.928 41.148 44.9707 41.148 45.056C41.148 45.3973 41.1053 45.5467 41.02 45.504C40.9347 45.4613 40.8493 45.504 40.764 45.632C40.6787 45.8027 40.572 45.888 40.444 45.888C40.188 45.9733 40.0813 46.0373 40.124 46.08C40.1667 46.1227 40.2307 46.1653 40.316 46.208C40.4013 46.208 40.3373 46.272 40.124 46.4C39.996 46.4427 39.8893 46.5707 39.804 46.784C39.7187 46.9547 39.6333 47.0827 39.548 47.168C39.4627 47.2533 39.356 47.3173 39.228 47.36C39.1 47.4027 38.9933 47.488 38.908 47.616C38.524 48 38.1827 48.192 37.884 48.192ZM56.956 47.68C56.7853 47.68 56.636 47.68 56.508 47.68C56.38 47.6373 56.252 47.5947 56.124 47.552C55.6973 47.4667 55.3133 47.3387 54.972 47.168C54.6733 46.9973 54.4173 46.6773 54.204 46.208C54.1613 45.9947 54.0547 45.7173 53.884 45.376C53.756 45.0347 53.6707 44.7147 53.628 44.416C53.5853 44.2027 53.564 43.9467 53.564 43.648C53.5213 43.4347 53.5 43.1573 53.5 42.816C53.4147 42.3893 53.372 42.0053 53.372 41.664C53.4147 41.3227 53.436 40.9173 53.436 40.448C53.436 39.9787 53.4573 39.6373 53.5 39.424C53.5853 39.04 53.628 38.848 53.628 38.848C53.628 38.8053 53.628 38.592 53.628 38.208C53.6707 37.696 53.692 37.1627 53.692 36.608C53.692 36.0533 53.7133 35.6053 53.756 35.264C53.884 33.984 53.628 33.344 52.988 33.344C52.732 33.344 52.3907 33.4507 51.964 33.664C51.9213 33.792 51.836 33.8773 51.708 33.92C51.6227 33.92 51.4947 33.9627 51.324 34.048L51.004 34.24C51.004 34.2827 50.9613 34.304 50.876 34.304C50.7907 34.2613 50.748 34.2827 50.748 34.368C50.7907 34.5387 50.7693 34.6453 50.684 34.688C50.6413 34.7307 50.5773 34.7093 50.492 34.624L49.788 35.136C49.788 35.1787 49.724 35.264 49.596 35.392L49.532 35.456C49.3613 35.6267 49.212 35.712 49.084 35.712L48.892 35.904C48.892 35.9467 48.8493 36.032 48.764 36.16C48.7213 36.2453 48.6147 36.2667 48.444 36.224L48.124 36.544C47.9533 36.8 47.804 36.9493 47.676 36.992C47.5907 37.0347 47.484 37.0773 47.356 37.12L46.844 37.76L46.588 37.824C46.588 37.9947 46.396 38.2507 46.012 38.592C45.6707 38.9333 45.436 39.168 45.308 39.296C45.18 39.424 45.052 39.488 44.924 39.488C44.8387 39.488 44.796 39.4453 44.796 39.36C44.796 39.3173 44.9027 39.1467 45.116 38.848C45.2867 38.6773 45.5427 38.3573 45.884 37.888C46.268 37.4187 46.4813 37.2053 46.524 37.248C46.7373 37.0347 46.8867 36.8213 46.972 36.608C47.0573 36.352 47.2067 36.1387 47.42 35.968C47.42 36.0107 47.42 36.0533 47.42 36.096C47.4627 36.096 47.484 36.096 47.484 36.096C47.5693 36.096 47.676 35.9893 47.804 35.776C47.932 35.52 48.0173 35.4133 48.06 35.456L49.148 34.496C49.148 34.4533 49.2547 34.368 49.468 34.24C49.6387 34.1547 49.7453 34.112 49.788 34.112C49.8307 34.112 49.9373 33.984 50.108 33.728L50.556 33.408C50.5987 33.3227 50.6413 33.344 50.684 33.472C50.7693 33.5573 50.8333 33.5787 50.876 33.536L51.068 33.088C51.1533 32.96 51.2813 32.8533 51.452 32.768C51.6653 32.64 51.8787 32.512 52.092 32.384C52.604 31.872 52.988 31.616 53.244 31.616H53.5C54.0547 31.4027 54.5667 31.296 55.036 31.296C55.7187 31.296 56.252 31.552 56.636 32.064C56.7213 32.192 56.8067 32.4267 56.892 32.768C56.9773 32.8107 56.9987 32.8747 56.956 32.96C56.956 33.0027 56.9773 33.0667 57.02 33.152C57.0627 33.2373 57.148 33.344 57.276 33.472C57.404 33.5573 57.468 33.664 57.468 33.792V33.92C57.468 34.0907 57.3613 34.24 57.148 34.368C57.3613 34.5387 57.4467 34.6453 57.404 34.688C57.404 34.688 57.3827 34.752 57.34 34.88L57.212 35.776C57.1693 36.0747 57.1053 36.3093 57.02 36.48C56.9347 36.608 56.8493 36.8427 56.764 37.184C56.9347 37.44 56.9347 37.6107 56.764 37.696H56.636L56.572 37.952C56.572 38.0373 56.6147 38.1227 56.7 38.208L56.508 38.592C56.5507 38.5493 56.572 38.5493 56.572 38.592C56.6147 38.592 56.636 38.592 56.636 38.592C56.5933 38.6773 56.5293 38.848 56.444 39.104C56.3587 39.3173 56.2947 39.488 56.252 39.616C56.2093 39.8293 56.124 39.936 55.996 39.936C55.868 39.936 55.8253 40.0427 55.868 40.256C55.9107 40.2987 55.932 40.448 55.932 40.704C55.9747 40.9173 55.9533 41.024 55.868 41.024L55.74 41.792V41.984C55.74 42.1973 55.6973 42.4107 55.612 42.624C55.5693 42.8373 55.5267 43.0507 55.484 43.264C55.4413 43.4773 55.3987 43.712 55.356 43.968C55.356 44.1813 55.356 44.3947 55.356 44.608C55.356 44.7787 55.356 44.9707 55.356 45.184C55.3987 45.3547 55.4413 45.5253 55.484 45.696C55.484 45.7387 55.548 45.8667 55.676 46.08C55.804 46.2933 55.868 46.4213 55.868 46.464L56.06 46.656C56.1453 46.6987 56.2733 46.6987 56.444 46.656C56.6573 46.6133 56.8067 46.6347 56.892 46.72C57.276 46.7627 57.7667 46.5707 58.364 46.144C59.004 45.6747 59.58 45.1627 60.092 44.608C60.22 44.48 60.348 44.416 60.476 44.416C60.5613 44.416 60.6253 44.48 60.668 44.608C60.7107 44.736 60.668 44.9067 60.54 45.12C59.8573 46.1013 59.2173 46.784 58.62 47.168C58.0227 47.5093 57.468 47.68 56.956 47.68ZM65.343 48.128C64.2763 48.128 63.3377 47.8293 62.527 47.232C61.7163 46.6347 61.311 45.6107 61.311 44.16C61.311 43.6053 61.375 43.0507 61.503 42.496C61.631 41.8987 61.7803 41.3227 61.951 40.768C62.0363 40.2133 62.1643 39.7227 62.335 39.296C62.3777 39.1253 62.399 39.04 62.399 39.04C62.4417 38.9973 62.5483 38.9333 62.719 38.848L63.231 38.08V37.824C63.1883 37.824 63.167 37.824 63.167 37.824C63.167 37.7813 63.167 37.76 63.167 37.76C63.167 37.632 63.2737 37.4827 63.487 37.312C63.7003 37.1413 63.807 37.056 63.807 37.056C63.8497 36.8427 63.9137 36.736 63.999 36.736C64.0843 36.736 64.191 36.672 64.319 36.544H65.023V36.416C65.023 36.2027 64.9163 36.1173 64.703 36.16C64.5323 36.16 64.447 36.1387 64.447 36.096C64.447 36.0533 64.511 35.968 64.639 35.84C64.8097 35.6693 64.9163 35.5627 64.959 35.52C65.087 35.3493 65.1937 35.2 65.279 35.072C65.3643 34.9013 65.4923 34.7733 65.663 34.688C66.431 33.7493 66.9003 33.152 67.071 32.896C67.2843 32.64 67.4977 32.448 67.711 32.32C67.7963 32.32 67.8603 32.3627 67.903 32.448C67.9883 32.4907 67.9883 32.5547 67.903 32.64C67.9883 32.768 68.0523 32.7893 68.095 32.704C68.1803 32.6187 68.223 32.576 68.223 32.576L68.479 32.448C68.3937 32.3627 68.351 32.256 68.351 32.128C68.351 31.9147 68.3937 31.744 68.479 31.616C68.5643 31.4453 68.7137 31.2747 68.927 31.104C69.183 30.9333 69.311 30.8267 69.311 30.784C69.567 30.6987 69.759 30.6133 69.887 30.528C70.0577 30.4427 70.2283 30.4 70.399 30.4C70.6977 30.4 70.9963 30.5067 71.295 30.72C72.1057 31.1467 72.7883 31.5733 73.343 32C73.8977 32.4267 74.175 33.024 74.175 33.792C74.175 34.6027 73.8337 35.3067 73.151 35.904C72.511 36.4587 71.7217 36.928 70.783 37.312C69.8443 37.696 68.9057 38.016 67.967 38.272C67.071 38.4853 66.367 38.656 65.855 38.784C65.5563 38.8267 65.407 38.9547 65.407 39.168C65.4497 39.3387 65.4283 39.5307 65.343 39.744L64.895 40.448L64.511 41.344L64.191 41.92C63.8923 42.176 63.7857 42.368 63.871 42.496C63.9563 42.624 64.1057 42.6027 64.319 42.432C64.3617 42.4747 64.383 42.5387 64.383 42.624C64.383 42.7947 64.3403 43.008 64.255 43.264C64.1697 43.4773 64.1057 43.648 64.063 43.776C64.0203 43.9467 64.0203 44.032 64.063 44.032C64.1483 43.9893 64.191 44.0747 64.191 44.288L64.255 45.184C64.511 45.9947 65.087 46.464 65.983 46.592C66.0683 46.592 66.1537 46.6133 66.239 46.656C66.367 46.656 66.4737 46.656 66.559 46.656C67.327 46.656 67.7323 46.592 67.775 46.464C67.8603 46.336 67.967 46.2507 68.095 46.208C68.479 46.1227 68.799 46.0373 69.055 45.952C69.3537 45.8667 69.6523 45.7387 69.951 45.568C70.463 45.3547 70.9537 45.0773 71.423 44.736C71.8923 44.3947 72.383 44.0533 72.895 43.712L73.535 43.264C73.5777 43.1787 73.5777 43.1147 73.535 43.072C73.4923 43.0293 73.4923 42.9867 73.535 42.944C73.6203 42.9013 73.6843 42.9013 73.727 42.944C73.8123 42.944 73.8763 42.9227 73.919 42.88C74.0043 42.8373 74.0897 42.7733 74.175 42.688C74.2603 42.56 74.3457 42.4533 74.431 42.368C74.5163 42.2827 74.559 42.1973 74.559 42.112C74.6017 42.0267 74.6657 41.9413 74.751 41.856C75.0923 41.5147 75.4337 41.152 75.775 40.768C76.159 40.384 76.479 40.0427 76.735 39.744C77.0337 39.3173 77.2683 39.104 77.439 39.104C77.5243 39.104 77.567 39.1467 77.567 39.232C77.567 39.4453 77.4177 39.7653 77.119 40.192C76.3937 41.2587 75.5617 42.304 74.623 43.328C73.6843 44.3093 72.6603 45.2053 71.551 46.016C70.7403 46.5707 69.7803 47.0613 68.671 47.488C67.5617 47.9147 66.4523 48.128 65.343 48.128ZM66.303 37.824C66.943 37.7813 67.775 37.6107 68.799 37.312C69.823 36.9707 70.6763 36.5227 71.359 35.968C72.0843 35.3707 72.447 34.7093 72.447 33.984C72.447 33.3013 72.0843 32.64 71.359 32C70.7617 32.4267 70.1003 33.0453 69.375 33.856C68.6923 34.624 68.0737 35.392 67.519 36.16C66.9643 36.8853 66.559 37.44 66.303 37.824ZM87.4025 48.192C87.1465 48.192 87.0185 48.0427 87.0185 47.744C87.0185 47.5307 87.0825 47.2747 87.2105 46.976C87.5518 46.2507 87.9358 45.2267 88.3625 43.904C88.8318 42.5813 89.4078 41.4507 90.0905 40.512C90.5598 39.5733 90.9865 38.656 91.3705 37.76C91.7972 36.8213 92.2025 35.8827 92.5865 34.944C92.5865 34.944 92.5438 34.9227 92.4585 34.88C92.3732 34.7947 92.3305 34.7093 92.3305 34.624C92.1172 34.4533 91.8612 34.2187 91.5625 33.92C91.2638 33.5787 91.2425 33.2373 91.4985 32.896C91.5838 32.8107 91.6265 32.768 91.6265 32.768C91.6692 32.768 91.6905 32.768 91.6905 32.768C91.6905 32.7253 91.6692 32.704 91.6265 32.704C91.6265 32.704 91.6265 32.6827 91.6265 32.64L91.5625 32.576C91.5198 32.576 91.4772 32.576 91.4345 32.576C91.4345 32.5333 91.4132 32.512 91.3705 32.512C91.1998 32.512 91.0078 32.5547 90.7945 32.64C90.5812 32.6827 90.3678 32.704 90.1545 32.704C89.8985 32.704 89.5572 32.8107 89.1305 33.024C88.7038 33.1947 88.3198 33.344 87.9785 33.472C87.8078 33.5147 87.7012 33.536 87.6585 33.536C87.6585 33.4933 87.5732 33.5147 87.4025 33.6C87.3598 33.6427 87.3598 33.5787 87.4025 33.408C87.4878 33.1947 87.5305 33.0453 87.5305 32.96C87.5305 32.9173 87.5092 32.896 87.4665 32.896C87.3812 32.896 87.2105 33.024 86.9545 33.28C86.6985 33.4933 86.5278 33.6213 86.4425 33.664C86.3998 33.7067 86.3785 33.7707 86.3785 33.856C86.4212 33.9413 86.4425 34.0267 86.4425 34.112C86.4425 34.24 86.3358 34.3893 86.1225 34.56C85.9092 34.688 85.7598 34.7947 85.6745 34.88C85.5038 35.008 85.2905 35.0933 85.0345 35.136C84.8212 35.136 84.6078 35.2213 84.3945 35.392C84.1385 35.5627 84.0105 35.6907 84.0105 35.776C84.0532 35.8613 83.9252 36.0107 83.6265 36.224C83.2425 36.5227 82.7092 36.9707 82.0265 37.568C81.3865 38.1653 80.8958 38.6987 80.5545 39.168C79.7438 40.1493 78.9972 41.28 78.3145 42.56C77.6745 43.84 77.3545 44.8427 77.3545 45.568C77.3545 46.1227 77.5892 46.4 78.0585 46.4C78.1438 46.4 78.2292 46.4 78.3145 46.4C78.3998 46.3573 78.5065 46.3147 78.6345 46.272L80.2985 45.312L80.6825 45.248V45.184L80.9385 45.376C80.9812 45.3333 80.9598 45.2693 80.8745 45.184C80.8318 45.056 80.8318 44.992 80.8745 44.992C80.9172 44.992 80.9385 45.0133 80.9385 45.056C80.9812 45.056 81.0238 45.056 81.0665 45.056L81.1945 44.864C81.1945 44.864 81.2585 44.8853 81.3865 44.928C81.5572 44.928 81.6852 44.8853 81.7705 44.8C81.8985 44.7573 81.9198 44.6933 81.8345 44.608C81.7918 44.5227 81.7278 44.4587 81.6425 44.416L82.0905 44.032C82.1332 43.9467 82.3038 43.8613 82.6025 43.776C83.3278 43.3067 83.9252 42.752 84.3945 42.112C84.9065 41.4293 85.4825 40.8107 86.1225 40.256H86.1865L86.9545 39.488L86.8905 39.296L87.7225 38.336H87.8505C87.8932 38.2507 87.9785 38.144 88.1065 38.016C88.2772 37.888 88.3838 37.7813 88.4265 37.696C88.5118 37.6533 88.7038 37.44 89.0025 37.056C89.3438 36.6293 89.6638 36.288 89.9625 36.032C90.3038 35.776 90.4958 35.648 90.5385 35.648C90.5812 35.648 90.6025 35.6693 90.6025 35.712C90.6025 35.84 90.5385 36.032 90.4105 36.288C90.3252 36.544 90.2398 36.7147 90.1545 36.8C89.8558 37.2693 89.4718 37.8027 89.0025 38.4C88.5332 38.9547 88.2558 39.296 88.1705 39.424C87.6585 39.9787 87.0398 40.7253 86.3145 41.664C85.5892 42.56 84.7998 43.456 83.9465 44.352C83.0932 45.248 82.2398 46.016 81.3865 46.656C80.5758 47.2533 79.8078 47.552 79.0825 47.552C78.3998 47.552 77.6745 47.3387 76.9065 46.912C76.1385 46.4853 75.7545 45.6747 75.7545 44.48C75.7545 44.096 75.7972 43.6693 75.8825 43.2C76.0105 42.688 76.2025 42.1547 76.4585 41.6C76.4585 41.6 76.5012 41.5573 76.5865 41.472C76.6718 41.344 76.7358 41.3013 76.7785 41.344C76.8638 41.216 76.8852 41.088 76.8425 40.96C76.8425 40.7893 76.8425 40.6827 76.8425 40.64L76.9705 40.512C77.0558 40.0427 77.3758 39.616 77.9305 39.232C78.4852 38.848 78.7838 38.5493 78.8265 38.336C78.8692 38.2933 78.8905 38.2293 78.8905 38.144L79.1465 37.312V37.056H79.4025L79.5945 36.8L79.6585 36.672C79.5732 36.6293 79.5945 36.5653 79.7225 36.48C79.8932 36.352 79.9785 36.288 79.9785 36.288C80.0212 36.2027 80.0638 36.1387 80.1065 36.096C80.1918 36.0533 80.2558 36.0107 80.2985 35.968H80.7465C80.8318 35.84 80.7892 35.776 80.6185 35.776C80.4478 35.776 80.3625 35.776 80.3625 35.776C80.3625 35.7333 80.3625 35.712 80.3625 35.712C80.4052 35.6693 80.4265 35.6267 80.4265 35.584L81.1305 35.008C81.3438 34.8373 81.5572 34.688 81.7705 34.56C81.9838 34.432 82.1758 34.2827 82.3465 34.112C82.4745 34.112 82.4958 34.176 82.4105 34.304C82.4532 34.3893 82.4958 34.3893 82.5385 34.304C82.6238 34.2187 82.6665 34.176 82.6665 34.176L82.9865 34.112V34.048C82.9865 33.9627 83.0078 33.8347 83.0505 33.664C83.0932 33.4933 83.1145 33.3867 83.1145 33.344C84.0105 32.6613 84.9492 32.064 85.9305 31.552C86.9118 30.9973 87.8718 30.72 88.8105 30.72C89.9198 30.72 90.9225 31.1467 91.8185 32L92.1385 32.192C92.1812 32.192 92.2025 32.1707 92.2025 32.128C92.2878 31.5307 92.7785 31.0827 93.6745 30.784C94.6132 30.4853 95.4452 30.336 96.1705 30.336C96.9385 30.336 97.3225 30.4427 97.3225 30.656C97.3225 30.7413 97.1945 30.8907 96.9385 31.104C96.8105 31.1893 96.5972 31.3813 96.2985 31.68C95.9998 31.9787 95.7012 32.3413 95.4025 32.768C95.3598 32.896 95.2958 33.024 95.2105 33.152C95.1252 33.28 95.0398 33.408 94.9545 33.536C94.9118 33.6213 94.8478 33.728 94.7625 33.856C94.7198 33.9413 94.6558 34.0267 94.5705 34.112C93.8452 35.3493 93.2692 36.3947 92.8425 37.248C92.4158 38.1013 91.9038 39.1893 91.3065 40.512C91.2212 40.768 91.1785 40.9173 91.1785 40.96C91.1785 41.3013 91.3705 41.472 91.7545 41.472C92.0105 41.472 92.2665 41.408 92.5225 41.28L93.1625 41.024C94.1865 40.0853 95.2532 39.296 96.3625 38.656C96.4052 38.656 96.4265 38.656 96.4265 38.656C96.4692 38.6133 96.5118 38.592 96.5545 38.592C96.6825 38.592 96.7678 38.6773 96.8105 38.848C96.8532 38.976 96.8105 39.0827 96.6825 39.168C95.4452 39.8507 94.2932 40.7253 93.2265 41.792C93.1838 41.8773 93.1412 41.9627 93.0985 42.048C93.0558 42.1333 92.9918 42.2187 92.9065 42.304C92.7785 42.3893 92.6505 42.5387 92.5225 42.752C92.3945 42.9653 92.3305 43.0933 92.3305 43.136C92.2878 43.264 92.2238 43.3067 92.1385 43.264C92.0958 43.2213 91.9678 43.2853 91.7545 43.456C91.7118 43.4987 91.6692 43.584 91.6265 43.712C91.6265 43.84 91.6052 43.9467 91.5625 44.032C91.4772 44.16 91.3918 44.2667 91.3065 44.352C91.2212 44.3947 91.1785 44.4373 91.1785 44.48C91.1358 44.6507 91.0505 44.7573 90.9225 44.8C90.8372 44.8 90.7518 44.8427 90.6665 44.928C90.6238 44.928 90.6025 44.9493 90.6025 44.992C90.6025 45.376 90.5598 45.5467 90.4745 45.504C90.3892 45.4613 90.3038 45.504 90.2185 45.632C90.1332 45.8027 90.0265 45.888 89.8985 45.888C89.6425 45.9733 89.5358 46.0373 89.5785 46.08C89.6638 46.1227 89.7278 46.1653 89.7705 46.208C89.8558 46.208 89.7918 46.272 89.5785 46.4C89.4932 46.4427 89.4078 46.5707 89.3225 46.784C89.2372 46.9547 89.1518 47.0827 89.0665 47.168C88.9385 47.2533 88.8105 47.3173 88.6825 47.36C88.5545 47.4027 88.4478 47.488 88.3625 47.616C87.9785 48 87.6585 48.192 87.4025 48.192ZM95.4315 50.304C95.3462 50.048 95.3035 49.792 95.3035 49.536C95.3035 49.408 95.3248 49.28 95.3675 49.152C95.3675 49.0667 95.3888 48.96 95.4315 48.832C95.4742 48.704 95.5808 48.3627 95.7515 47.808C95.9648 47.2533 96.1568 46.6773 96.3275 46.08C96.5408 45.4827 96.6902 45.1413 96.7755 45.056C96.7755 45.056 96.9035 44.736 97.1595 44.096C97.4582 43.4133 97.7782 42.7093 98.1195 41.984C98.4608 41.216 98.7168 40.7253 98.8875 40.512C99.1008 40.0427 99.4208 39.4667 99.8475 38.784C100.317 38.0587 100.765 37.2053 101.192 36.224V35.904C101.192 35.776 101.192 35.6693 101.192 35.584C101.234 35.456 101.277 35.328 101.32 35.2C101.49 34.8587 101.64 34.624 101.768 34.496C101.938 34.368 102.109 34.1333 102.28 33.792C102.28 33.7067 102.28 33.6213 102.28 33.536C102.322 33.4507 102.365 33.3653 102.408 33.28C102.322 33.3653 102.301 33.3013 102.344 33.088C102.258 33.088 102.344 32.8747 102.6 32.448C102.77 32.064 102.898 31.8507 102.984 31.808H103.048C103.218 31.552 103.368 31.3387 103.496 31.168C103.624 30.9547 103.666 30.8267 103.624 30.784V30.656C103.624 30.3573 103.709 30.08 103.88 29.824C104.093 29.568 104.285 29.2907 104.456 28.992C104.584 28.8213 104.69 28.736 104.776 28.736C104.861 28.736 104.904 28.7573 104.904 28.8C104.946 28.8 104.989 28.8 105.032 28.8C105.16 28.8 105.224 28.6933 105.224 28.48C105.224 28.3947 105.202 28.288 105.16 28.16C105.16 28.032 105.138 27.8827 105.095 27.712C105.138 27.4987 105.309 27.328 105.608 27.2L105.8 27.136C106.013 26.24 106.269 25.6427 106.568 25.344C106.653 25.2587 106.738 25.1733 106.824 25.088C106.909 25.0027 106.994 24.9173 107.08 24.832C107.592 24.2773 107.976 23.68 108.232 23.04C108.317 22.8693 108.424 22.7413 108.552 22.656C108.722 22.528 108.872 22.3787 109 22.208C109.085 22.08 109.106 21.952 109.064 21.824C109.064 21.6533 109.085 21.504 109.128 21.376C109.341 21.0347 109.49 20.8427 109.576 20.8C109.661 20.7573 109.746 20.7147 109.832 20.672C109.96 20.5867 110.173 20.3947 110.472 20.096C110.6 19.8827 110.728 19.6693 110.856 19.456C111.026 19.2427 111.197 19.0293 111.368 18.816C111.624 18.5173 111.901 18.304 112.2 18.176C112.498 18.048 112.797 17.856 113.096 17.6C113.181 17.5147 113.224 17.3867 113.224 17.216C113.224 17.0027 113.266 16.8533 113.352 16.768C114.845 15.5733 116.445 14.5707 118.152 13.76C119.901 12.9493 121.245 12.544 122.184 12.544C122.525 12.544 122.845 12.5653 123.144 12.608C123.485 12.6507 123.805 12.7147 124.104 12.8H124.232C124.445 12.8 124.658 12.8427 124.872 12.928C125.085 13.0133 125.277 13.0987 125.448 13.184C125.618 13.184 125.832 13.2267 126.088 13.312C126.301 13.3973 126.429 13.5253 126.472 13.696C126.514 13.8667 126.472 13.9947 126.344 14.08C126.301 14.1227 126.237 14.1227 126.152 14.08C126.066 14.0373 125.981 14.016 125.896 14.016C125.81 14.016 125.725 13.9733 125.64 13.888C125.554 13.8027 125.469 13.7387 125.384 13.696C125.213 13.696 125.021 13.7173 124.808 13.76C124.637 13.8027 124.445 13.824 124.232 13.824H124.04C123.741 13.824 123.528 13.7813 123.4 13.696C123.314 13.568 123.101 13.5467 122.76 13.632C122.717 13.632 122.589 13.6533 122.376 13.696C122.162 13.7387 122.013 13.76 121.928 13.76C120.392 14.144 119.048 14.784 117.896 15.68C116.744 16.5333 115.72 17.4933 114.824 18.56C113.97 19.6267 113.138 20.6507 112.328 21.632C111.944 22.4 111.56 23.0187 111.176 23.488C111.133 23.5307 111.09 23.5093 111.048 23.424C111.005 23.3387 110.962 23.3387 110.92 23.424C110.792 23.552 110.685 23.7653 110.6 24.064C110.557 24.32 110.472 24.5333 110.344 24.704C110.301 24.7467 110.258 24.7253 110.216 24.64C110.173 24.5547 110.109 24.5547 110.024 24.64C109.981 24.6827 109.917 24.8533 109.832 25.152C109.789 25.408 109.725 25.5787 109.64 25.664C109.128 26.3467 108.573 27.008 107.976 27.648C107.378 28.288 106.781 29.0347 106.184 29.888C105.33 31.2107 104.52 32.512 103.752 33.792C102.984 35.072 102.173 36.48 101.32 38.016C101.021 38.528 100.786 38.9973 100.616 39.424C100.488 39.808 100.338 40.1707 100.168 40.512C99.9542 41.024 99.8475 41.3867 99.8475 41.6C99.8475 41.8987 100.04 41.9627 100.424 41.792C100.594 41.7067 100.829 41.4933 101.128 41.152C101.469 40.768 101.704 40.5547 101.832 40.512C101.874 40.4693 101.938 40.448 102.024 40.448C102.194 40.448 102.28 40.512 102.28 40.64C102.28 40.8107 102.173 40.96 101.96 41.088C101.789 41.1733 101.682 41.28 101.64 41.408C101.597 41.536 101.49 41.7067 101.32 41.92C101.192 42.0053 101.106 42.1333 101.064 42.304C101.021 42.4747 100.978 42.5813 100.936 42.624C100.893 42.7093 100.872 42.8373 100.872 43.008C100.872 43.136 100.765 43.2853 100.552 43.456C100.509 43.4987 100.466 43.584 100.424 43.712C100.424 43.84 100.402 43.9467 100.36 44.032C100.317 44.16 100.232 44.2667 100.104 44.352C100.018 44.3947 99.9755 44.4373 99.9755 44.48C99.9328 44.6507 99.8475 44.7573 99.7195 44.8C99.6342 44.8 99.5488 44.8427 99.4635 44.928C99.4208 44.9707 99.4208 45.0347 99.4635 45.12C99.5062 45.2053 99.4848 45.2907 99.3995 45.376L98.7595 46.72C98.7168 46.8053 98.6528 46.8907 98.5675 46.976C98.5248 47.0613 98.4608 47.1253 98.3755 47.168C98.3328 47.168 98.2475 47.1467 98.1195 47.104C98.0342 47.0613 97.9915 47.0827 97.9915 47.168C97.9488 47.2107 97.9488 47.3387 97.9915 47.552C98.0768 47.7227 98.0555 47.8507 97.9275 47.936C97.7995 48.0213 97.6715 48.192 97.5435 48.448C97.4582 48.7467 97.3728 48.9387 97.2875 49.024C97.1168 49.1947 96.9675 49.3013 96.8395 49.344C96.7115 49.4293 96.5835 49.5573 96.4555 49.728C96.4128 49.7707 96.2635 49.9413 96.0075 50.24C95.7515 50.5813 95.5595 50.6027 95.4315 50.304ZM114.184 49.024C113.757 49.024 113.437 48.9387 113.224 48.768C113.138 48.7253 113.032 48.6613 112.904 48.576C112.818 48.4907 112.733 48.448 112.648 48.448H112.52C112.477 48.448 112.413 48.384 112.328 48.256C112.242 48.1707 112.157 48.1067 112.072 48.064C112.029 48.064 111.88 47.9787 111.624 47.808C111.368 47.5947 111.197 47.4667 111.112 47.424C111.069 47.3813 111.026 47.3387 110.984 47.296C110.984 47.2107 110.962 47.168 110.92 47.168H110.792C110.792 47.168 110.792 47.1253 110.792 47.04C110.664 46.8693 110.536 46.72 110.408 46.592C110.28 46.464 110.194 46.3147 110.152 46.144L110.024 46.208C109.981 46.1227 109.917 46.0373 109.832 45.952C109.789 45.824 109.725 45.7387 109.64 45.696C109.64 45.6107 109.512 45.4187 109.256 45.12C109.042 44.8213 108.893 44.6507 108.808 44.608C108.808 44.48 108.765 44.3733 108.68 44.288C108.594 44.16 108.509 44.0533 108.424 43.968C108.424 43.84 108.424 43.776 108.424 43.776C108.338 43.5627 108.21 43.392 108.04 43.264C107.912 43.0933 107.805 42.9227 107.72 42.752C107.634 42.5813 107.57 42.432 107.528 42.304C107.528 42.176 107.528 42.0907 107.528 42.048C107.442 41.92 107.25 41.7067 106.952 41.408L106.888 41.344C106.888 41.2587 106.866 41.152 106.824 41.024C106.781 40.896 106.738 40.7893 106.696 40.704C106.568 40.6187 106.461 40.4693 106.376 40.256C106.333 40.0427 106.269 39.872 106.184 39.744V39.488L105.672 38.656C105.629 38.5707 105.608 38.4853 105.608 38.4C105.608 38.3147 105.565 38.2293 105.48 38.144C105.266 38.1013 105.245 37.9307 105.416 37.632C105.288 37.3333 105.16 37.184 105.032 37.184C104.946 37.184 104.861 37.248 104.776 37.376C104.69 37.4613 104.626 37.5253 104.584 37.568C104.541 37.568 104.477 37.6747 104.392 37.888C104.306 38.0587 104.242 38.1653 104.2 38.208C104.157 38.464 104.029 38.656 103.816 38.784C103.645 38.912 103.517 39.0827 103.432 39.296C103.133 39.936 102.834 40.2133 102.536 40.128C102.493 40.128 102.472 40.0853 102.472 40C102.472 39.9573 102.472 39.8933 102.472 39.808C102.472 39.68 102.514 39.5307 102.6 39.36L102.856 38.848C102.941 38.7627 103.026 38.6773 103.112 38.592C103.24 38.464 103.346 38.3573 103.432 38.272C103.816 37.8027 104.114 37.3973 104.328 37.056C104.541 36.672 104.989 36.2667 105.672 35.84C105.885 35.712 106.034 35.584 106.12 35.456C106.376 35.4133 106.568 35.2213 106.696 34.88L106.824 34.944C106.866 34.8587 106.909 34.816 106.952 34.816C107.037 34.816 107.101 34.7947 107.144 34.752C107.741 34.2827 108.274 33.8987 108.744 33.6C109.256 33.2587 109.81 32.8747 110.408 32.448C110.408 32.448 110.536 32.32 110.792 32.064C111.048 31.808 111.218 31.6587 111.304 31.616C111.346 31.5733 111.453 31.552 111.624 31.552C111.709 31.5093 111.837 31.424 112.008 31.296C112.178 31.168 112.285 31.0827 112.328 31.04C112.413 31.04 112.498 31.0187 112.583 30.976C112.669 30.9333 112.733 30.912 112.776 30.912C113.074 30.528 113.458 30.2933 113.928 30.208C113.928 30.1653 113.928 30.144 113.928 30.144C113.97 30.1013 113.992 30.0587 113.992 30.016H114.12C114.162 30.016 114.205 29.9947 114.248 29.952C114.29 29.9093 114.333 29.888 114.376 29.888C114.461 29.8453 114.568 29.8027 114.696 29.76C114.866 29.6747 114.952 29.5893 114.952 29.504C114.952 29.4613 114.994 29.4827 115.08 29.568C115.122 29.568 115.25 29.5467 115.464 29.504C115.72 29.4613 115.869 29.4187 115.912 29.376L115.976 29.44L116.36 29.184L117 29.056C117.128 29.0133 117.298 28.9707 117.512 28.928C117.768 28.8853 117.96 28.8853 118.088 28.928C118.088 28.928 118.109 28.9493 118.152 28.992C118.408 28.992 118.472 29.184 118.344 29.568C118.216 29.952 118.024 30.3147 117.768 30.656C117.512 30.9973 117.32 31.1467 117.192 31.104C117.192 31.104 117.17 31.0827 117.128 31.04C117.085 31.04 116.957 31.0827 116.744 31.168C116.53 31.2107 116.381 31.232 116.296 31.232C116.253 31.1893 116.21 31.168 116.168 31.168C116.125 31.2107 116.061 31.296 115.976 31.424C115.933 31.5093 115.848 31.5947 115.72 31.68C115.677 31.7227 115.357 31.7867 114.76 31.872C114.162 31.9573 113.821 31.9787 113.736 31.936H113.672C113.544 31.936 113.16 32.0853 112.52 32.384C111.922 32.64 111.538 32.8107 111.368 32.896C111.282 32.9387 111.197 32.96 111.112 32.96C111.026 32.9173 110.941 32.9387 110.856 33.024C110.728 33.0667 110.6 33.1307 110.472 33.216C110.386 33.3013 110.28 33.3867 110.152 33.472C109.853 33.728 109.32 34.048 108.552 34.432C107.826 34.816 107.336 35.2427 107.08 35.712C106.952 35.8827 106.93 36.032 107.016 36.16C107.144 36.288 107.186 36.3733 107.144 36.416L109.832 41.216C109.917 41.3013 110.002 41.4293 110.088 41.6C110.216 41.7707 110.301 41.8987 110.344 41.984C110.429 42.0267 110.493 42.0907 110.536 42.176C110.578 42.2613 110.642 42.3467 110.728 42.432C110.813 42.688 110.984 42.9227 111.24 43.136C111.496 43.3493 111.602 43.5627 111.56 43.776L111.88 44.032C111.922 44.032 111.944 44.0747 111.944 44.16C111.986 44.2027 112.05 44.224 112.135 44.224C112.135 44.2667 112.2 44.3947 112.328 44.608C112.498 44.8213 112.605 44.9707 112.648 45.056L112.712 44.992C112.84 45.2053 112.989 45.4187 113.16 45.632C113.373 45.8027 113.565 45.9733 113.736 46.144L113.992 46.272C114.077 46.3147 114.162 46.4 114.248 46.528C114.333 46.6133 114.397 46.656 114.44 46.656H114.503C114.674 46.656 114.781 46.6987 114.824 46.784C114.909 46.8267 115.016 46.848 115.144 46.848C115.186 46.8907 115.208 46.9333 115.208 46.976C115.25 46.976 115.293 46.9973 115.336 47.04C115.378 47.04 115.4 47.04 115.4 47.04C115.442 46.9973 115.485 46.976 115.528 46.976C115.613 46.976 115.634 46.9973 115.592 47.04C115.592 47.04 115.613 47.04 115.656 47.04H115.784C116.04 47.04 116.36 46.9973 116.744 46.912C117.17 46.784 117.405 46.6347 117.448 46.464C117.533 46.464 117.597 46.4 117.64 46.272C117.81 46.1867 117.896 46.1227 117.896 46.08C117.896 45.9947 117.917 45.9093 117.96 45.824L118.152 45.696C118.237 45.4827 118.28 45.1627 118.28 44.736C118.322 44.3093 118.365 44.0107 118.408 43.84C118.493 43.4987 118.514 43.2427 118.472 43.072C118.429 42.9013 118.429 42.6667 118.472 42.368C118.472 42.2827 118.45 42.2187 118.408 42.176C118.365 42.0907 118.344 42.0267 118.344 41.984V41.856C118.344 41.6853 118.301 41.536 118.216 41.408C118.173 41.2373 118.109 41.0667 118.024 40.896L117.832 40.256C117.832 40.2133 117.81 40.192 117.768 40.192C117.768 40.1493 117.768 40.128 117.768 40.128C117.768 39.9147 117.853 39.808 118.024 39.808C118.152 39.808 118.322 39.9787 118.536 40.32L118.984 41.152C119.154 41.1947 119.218 41.2373 119.176 41.28C119.133 41.3227 119.133 41.4293 119.176 41.6L119.304 41.856V41.92C119.304 42.048 119.368 42.2187 119.496 42.432C119.624 42.6027 119.709 42.7307 119.752 42.816C119.794 42.9867 119.837 43.1573 119.88 43.328C119.965 43.4987 119.965 43.6907 119.88 43.904L119.816 44.48C119.773 44.5227 119.73 44.5867 119.688 44.672C119.645 44.7573 119.56 44.8213 119.432 44.864C119.346 44.9067 119.24 44.8853 119.112 44.8C118.984 44.7147 118.92 44.7147 118.92 44.8C118.834 44.8853 118.834 44.9707 118.92 45.056C118.834 45.1413 118.77 45.248 118.728 45.376C118.728 45.504 118.706 45.632 118.664 45.76C118.664 45.8027 118.642 45.8453 118.6 45.888C118.557 45.888 118.536 45.9093 118.536 45.952C118.493 45.9947 118.472 46.0587 118.472 46.144C118.472 46.1867 118.45 46.2293 118.408 46.272C118.365 46.3573 118.258 46.5707 118.088 46.912C117.917 47.2533 117.746 47.5947 117.576 47.936C117.405 48.2347 117.298 48.4053 117.256 48.448L116.616 48.704C116.573 48.704 116.552 48.6613 116.552 48.576C116.466 48.6187 116.381 48.6613 116.296 48.704C116.21 48.7893 116.125 48.8533 116.04 48.896H115.656C115.613 48.896 115.549 48.9173 115.464 48.96C115.421 49.0027 115.357 49.0027 115.272 48.96H115.208L115.08 49.024C114.994 48.9387 114.952 48.896 114.952 48.896C114.909 48.8533 114.802 48.8533 114.632 48.896C114.504 48.9813 114.354 49.024 114.184 49.024ZM123.843 48.128C122.776 48.128 121.838 47.8293 121.027 47.232C120.216 46.6347 119.811 45.6107 119.811 44.16C119.811 43.6053 119.875 43.0507 120.003 42.496C120.131 41.8987 120.28 41.3227 120.451 40.768C120.536 40.2133 120.664 39.7227 120.835 39.296C120.878 39.1253 120.899 39.04 120.899 39.04C120.942 38.9973 121.048 38.9333 121.219 38.848L121.731 38.08V37.824C121.688 37.824 121.667 37.824 121.667 37.824C121.667 37.7813 121.667 37.76 121.667 37.76C121.667 37.632 121.774 37.4827 121.987 37.312C122.2 37.1413 122.307 37.056 122.307 37.056C122.35 36.8427 122.414 36.736 122.499 36.736C122.584 36.736 122.691 36.672 122.819 36.544H123.523V36.416C123.523 36.2027 123.416 36.1173 123.203 36.16C123.032 36.16 122.947 36.1387 122.947 36.096C122.947 36.0533 123.011 35.968 123.139 35.84C123.31 35.6693 123.416 35.5627 123.459 35.52C123.587 35.3493 123.694 35.2 123.779 35.072C123.864 34.9013 123.992 34.7733 124.163 34.688C124.931 33.7493 125.4 33.152 125.571 32.896C125.784 32.64 125.998 32.448 126.211 32.32C126.296 32.32 126.36 32.3627 126.403 32.448C126.488 32.4907 126.488 32.5547 126.403 32.64C126.488 32.768 126.552 32.7893 126.595 32.704C126.68 32.6187 126.723 32.576 126.723 32.576L126.979 32.448C126.894 32.3627 126.851 32.256 126.851 32.128C126.851 31.9147 126.894 31.744 126.979 31.616C127.064 31.4453 127.214 31.2747 127.427 31.104C127.683 30.9333 127.811 30.8267 127.811 30.784C128.067 30.6987 128.259 30.6133 128.387 30.528C128.558 30.4427 128.728 30.4 128.899 30.4C129.198 30.4 129.496 30.5067 129.795 30.72C130.606 31.1467 131.288 31.5733 131.843 32C132.398 32.4267 132.675 33.024 132.675 33.792C132.675 34.6027 132.334 35.3067 131.651 35.904C131.011 36.4587 130.222 36.928 129.283 37.312C128.344 37.696 127.406 38.016 126.467 38.272C125.571 38.4853 124.867 38.656 124.355 38.784C124.056 38.8267 123.907 38.9547 123.907 39.168C123.95 39.3387 123.928 39.5307 123.843 39.744L123.395 40.448L123.011 41.344L122.691 41.92C122.392 42.176 122.286 42.368 122.371 42.496C122.456 42.624 122.606 42.6027 122.819 42.432C122.862 42.4747 122.883 42.5387 122.883 42.624C122.883 42.7947 122.84 43.008 122.755 43.264C122.67 43.4773 122.606 43.648 122.563 43.776C122.52 43.9467 122.52 44.032 122.563 44.032C122.648 43.9893 122.691 44.0747 122.691 44.288L122.755 45.184C123.011 45.9947 123.587 46.464 124.483 46.592C124.568 46.592 124.654 46.6133 124.739 46.656C124.867 46.656 124.974 46.656 125.059 46.656C125.827 46.656 126.232 46.592 126.275 46.464C126.36 46.336 126.467 46.2507 126.595 46.208C126.979 46.1227 127.299 46.0373 127.555 45.952C127.854 45.8667 128.152 45.7387 128.451 45.568C128.963 45.3547 129.454 45.0773 129.923 44.736C130.392 44.3947 130.883 44.0533 131.395 43.712L132.035 43.264C132.078 43.1787 132.078 43.1147 132.035 43.072C131.992 43.0293 131.992 42.9867 132.035 42.944C132.12 42.9013 132.184 42.9013 132.227 42.944C132.312 42.944 132.376 42.9227 132.419 42.88C132.504 42.8373 132.59 42.7733 132.675 42.688C132.76 42.56 132.846 42.4533 132.931 42.368C133.016 42.2827 133.059 42.1973 133.059 42.112C133.102 42.0267 133.166 41.9413 133.251 41.856C133.592 41.5147 133.934 41.152 134.275 40.768C134.659 40.384 134.979 40.0427 135.235 39.744C135.534 39.3173 135.768 39.104 135.939 39.104C136.024 39.104 136.067 39.1467 136.067 39.232C136.067 39.4453 135.918 39.7653 135.619 40.192C134.894 41.2587 134.062 42.304 133.123 43.328C132.184 44.3093 131.16 45.2053 130.051 46.016C129.24 46.5707 128.28 47.0613 127.171 47.488C126.062 47.9147 124.952 48.128 123.843 48.128ZM124.803 37.824C125.443 37.7813 126.275 37.6107 127.299 37.312C128.323 36.9707 129.176 36.5227 129.859 35.968C130.584 35.3707 130.947 34.7093 130.947 33.984C130.947 33.3013 130.584 32.64 129.859 32C129.262 32.4267 128.6 33.0453 127.875 33.856C127.192 34.624 126.574 35.392 126.019 36.16C125.464 36.8853 125.059 37.44 124.803 37.824ZM136.815 47.872C136.388 47.872 135.94 47.7867 135.471 47.616C135.001 47.4027 134.831 47.168 134.959 46.912C135.129 46.5707 135.321 46.2293 135.535 45.888C135.791 45.504 136.025 45.0987 136.239 44.672L136.943 43.328C137.028 43.1147 137.113 42.9653 137.199 42.88C137.327 42.752 137.433 42.6027 137.519 42.432C137.561 42.3893 137.583 42.2827 137.583 42.112C137.583 41.8987 137.668 41.664 137.839 41.408C138.052 41.1093 138.201 40.832 138.286 40.576C138.329 40.5333 138.372 40.6613 138.415 40.96C138.457 41.2587 138.564 41.2373 138.735 40.896C138.777 40.8533 138.756 40.7893 138.671 40.704C138.628 40.6187 138.607 40.5333 138.607 40.448C138.607 40.3627 138.628 40.32 138.671 40.32C138.756 40.2773 138.799 40.2347 138.799 40.192C138.841 40.064 138.799 40.0213 138.671 40.064C138.585 40.064 138.543 40.0427 138.543 40C138.628 39.872 138.713 39.7867 138.799 39.744C138.927 39.7013 139.012 39.6373 139.055 39.552C139.055 39.4667 139.012 39.424 138.927 39.424C138.884 39.3813 138.884 39.3387 138.927 39.296C139.14 38.6987 139.375 37.9947 139.631 37.184C139.887 36.3733 140.079 35.6267 140.207 34.944C140.207 34.944 140.164 34.9227 140.079 34.88C139.993 34.7947 139.951 34.7093 139.951 34.624L139.503 34.304C138.991 34.7733 138.436 35.1787 137.839 35.52C137.796 35.5627 137.711 35.584 137.583 35.584C137.412 35.584 137.305 35.4987 137.263 35.328C137.22 35.1573 137.284 35.008 137.455 34.88C137.668 34.752 137.839 34.6667 137.967 34.624C138.095 34.5387 138.244 34.4107 138.415 34.24C138.5 34.1547 138.543 34.0693 138.543 33.984C138.585 33.8987 138.628 33.8133 138.671 33.728L138.927 33.408C138.927 33.1947 138.969 33.024 139.055 32.896C139.14 32.8107 139.204 32.768 139.247 32.768C139.289 32.768 139.311 32.768 139.311 32.768V32.64C139.311 32.4693 139.375 32.3627 139.503 32.32C139.673 32.2773 139.759 32.2133 139.759 32.128C139.844 31.5307 140.356 31.0827 141.295 30.784C142.233 30.4853 143.065 30.336 143.791 30.336C144.516 30.336 144.879 30.4427 144.879 30.656C144.879 30.784 144.751 30.9333 144.495 31.104C144.367 31.1893 144.153 31.3813 143.855 31.68C143.556 31.9787 143.279 32.3413 143.023 32.768L142.575 33.536L142.127 34.112C141.828 34.7947 141.401 35.84 140.847 37.248C140.292 38.656 139.716 40.4267 139.119 42.56C139.247 42.3893 139.545 42.0267 140.015 41.472C140.484 40.9173 141.039 40.2773 141.679 39.552C142.319 38.8267 142.937 38.144 143.535 37.504C144.132 36.8213 144.623 36.288 145.007 35.904L145.327 35.712C145.412 35.6267 145.497 35.52 145.583 35.392C145.711 35.2213 145.817 35.0933 145.903 35.008C145.945 34.9653 145.967 35.0507 145.967 35.264C146.009 35.4347 146.052 35.4987 146.095 35.456C146.265 35.328 146.351 35.136 146.351 34.88C146.393 34.624 146.5 34.4533 146.671 34.368C147.14 33.984 147.78 33.4507 148.591 32.768C149.444 32.0427 150.319 31.616 151.215 31.488C151.3 31.4027 151.428 31.3813 151.599 31.424C151.812 31.424 151.961 31.4027 152.047 31.36C152.132 31.36 152.196 31.3387 152.239 31.296C152.281 31.2533 152.388 31.232 152.559 31.232C152.644 31.232 152.815 31.296 153.071 31.424C153.369 31.552 153.54 31.7227 153.583 31.936C153.839 32.1067 153.967 32.3627 153.967 32.704C153.967 33.3013 153.647 33.7493 153.007 34.048C152.793 34.2613 152.559 34.4747 152.303 34.688C152.047 34.8587 151.791 35.0507 151.535 35.264C151.449 35.3493 151.385 35.392 151.343 35.392C151.044 35.648 150.788 35.9253 150.575 36.224C150.361 36.5227 150.255 36.9067 150.255 37.376C150.255 37.4187 150.297 37.4827 150.383 37.568C150.468 37.6107 150.489 37.6533 150.447 37.696C150.575 37.824 150.767 37.9093 151.023 37.952C151.279 37.952 151.535 37.952 151.791 37.952C152.217 37.952 152.857 37.7813 153.711 37.44H153.839C153.881 37.44 153.903 37.4613 153.903 37.504C153.903 37.5893 153.817 37.7387 153.647 37.952C153.476 38.1227 153.284 38.2507 153.071 38.336C152.601 38.5067 152.111 38.6133 151.599 38.656C151.087 38.656 150.724 38.656 150.51 38.656C149.743 38.656 149.252 38.5067 149.039 38.208C148.868 37.9093 148.697 37.5467 148.527 37.12V36.8L148.847 36.48C148.804 36.352 148.74 36.224 148.655 36.096C148.569 35.968 148.527 35.8187 148.527 35.648C148.527 35.2213 148.697 34.7307 149.039 34.176C148.569 34.304 147.972 34.6667 147.247 35.264C146.564 35.8187 145.86 36.48 145.135 37.248C144.409 37.9733 143.748 38.6987 143.151 39.424C142.553 40.1067 142.084 40.6613 141.743 41.088C141.615 41.2587 141.465 41.3653 141.295 41.408C141.167 41.408 141.06 41.472 140.975 41.6C140.932 41.6427 140.975 41.664 141.103 41.664C141.273 41.664 141.337 41.6853 141.295 41.728C140.74 42.5813 140.143 43.52 139.503 44.544C138.905 45.568 138.308 46.5707 137.711 47.552C137.583 47.7653 137.284 47.872 136.815 47.872ZM158.952 48.256C158.909 48.256 158.845 48.2133 158.76 48.128C158.675 48.0853 158.611 48.064 158.568 48.064C158.397 48.1067 158.248 48.128 158.12 48.128C157.992 48.128 157.864 48.128 157.736 48.128C157.693 48.128 157.651 48.1067 157.608 48.064C157.608 48.0213 157.587 48 157.544 48C157.501 48 157.48 48 157.48 48C157.523 48.0427 157.523 48.064 157.48 48.064C157.48 48.064 157.437 48.0427 157.352 48C157.267 47.9573 157.203 47.936 157.16 47.936L157.096 47.872C157.011 47.872 156.947 47.8507 156.904 47.808C156.904 47.7653 156.883 47.744 156.84 47.744L156.776 47.808L156.712 47.744C156.627 47.7013 156.499 47.6587 156.328 47.616C156.2 47.5307 156.093 47.4667 156.008 47.424C155.923 47.424 155.816 47.36 155.688 47.232H155.56C155.475 47.104 155.325 47.0187 155.112 46.976C155.112 46.9333 155.091 46.8907 155.048 46.848H154.984C154.899 46.72 154.835 46.6773 154.792 46.72C154.749 46.6347 154.685 46.5707 154.6 46.528C154.557 46.4427 154.493 46.3787 154.408 46.336C154.408 46.1653 154.365 46.08 154.28 46.08C154.28 45.9947 154.195 45.8667 154.024 45.696C153.896 45.5253 153.811 45.376 153.768 45.248L153.704 45.184C153.533 45.0133 153.405 44.736 153.32 44.352C153.277 44.1813 153.235 44.1173 153.192 44.16C153.192 44.2027 153.171 44.096 153.128 43.84C153.128 43.7973 153.128 43.7333 153.128 43.648C153.171 43.52 153.171 43.4347 153.128 43.392C153.128 43.3493 153.107 43.328 153.064 43.328C153.064 43.2853 153.064 43.2427 153.064 43.2C153.021 43.1573 153 43.136 153 43.136C153.043 43.0933 153.064 43.072 153.064 43.072C153.064 42.9867 153.043 42.944 153 42.944C153 42.9013 153 42.8587 153 42.816V42.688C153 42.4747 153.043 42.3253 153.128 42.24C153.128 42.1547 153.149 42.0907 153.192 42.048C153.235 42.0053 153.256 41.9627 153.256 41.92C153.256 41.8347 153.299 41.792 153.384 41.792C153.469 41.792 153.512 41.7707 153.512 41.728C153.512 41.6427 153.533 41.6 153.576 41.6C153.661 41.5573 153.725 41.5147 153.768 41.472C153.768 41.4293 153.789 41.3867 153.832 41.344C153.917 41.3013 153.96 41.2587 153.96 41.216C154.173 41.088 154.408 41.024 154.664 41.024C155.176 41.024 155.432 41.152 155.432 41.408C155.432 41.4933 155.304 41.6427 155.048 41.856C155.005 41.984 154.984 42.0693 154.984 42.112C155.027 42.112 155.005 42.1547 154.92 42.24C154.963 42.368 154.984 42.5387 154.984 42.752C154.941 42.752 154.92 42.816 154.92 42.944C154.963 43.0293 154.984 43.072 154.984 43.072C154.984 43.1147 155.005 43.2427 155.048 43.456C155.133 43.6693 155.197 43.7973 155.24 43.84C155.24 43.84 155.283 43.9467 155.368 44.16C155.453 44.3307 155.496 44.4373 155.496 44.48V44.608C155.581 44.736 155.624 44.8213 155.624 44.864C155.667 44.864 155.837 44.9493 156.136 45.12C156.179 45.1627 156.264 45.184 156.392 45.184C156.605 45.312 156.755 45.4187 156.84 45.504C156.968 45.5893 157.267 45.6747 157.736 45.76C157.907 45.8027 157.971 45.8453 157.928 45.888C157.928 45.888 158.013 45.888 158.184 45.888C158.184 45.888 158.184 45.9093 158.184 45.952C158.184 45.952 158.205 45.952 158.248 45.952C158.333 45.9093 158.419 45.9093 158.504 45.952C158.589 45.952 158.675 45.9307 158.76 45.888H159.016C159.315 45.888 159.635 45.8453 159.976 45.76L160.936 45.504C161.235 45.4613 161.512 45.376 161.768 45.248C162.024 45.12 162.259 44.992 162.472 44.864C162.515 44.864 162.643 44.8 162.856 44.672C163.069 44.5013 163.325 44.3307 163.624 44.16C163.581 44.032 163.56 43.8613 163.56 43.648C163.56 43.52 163.624 43.456 163.752 43.456C163.88 43.4133 163.965 43.3493 164.008 43.264C163.88 43.1787 163.709 43.136 163.496 43.136C163.325 43.136 163.261 43.072 163.304 42.944C163.133 42.0053 162.877 41.152 162.536 40.384C162.237 39.616 161.875 38.7627 161.448 37.824C161.405 37.696 161.32 37.4827 161.192 37.184C161.064 36.8853 160.979 36.6507 160.936 36.48C160.936 36.4373 160.979 36.4373 161.064 36.48C161.149 36.48 161.171 36.4587 161.128 36.416C161.085 36.2027 161.043 35.9893 161 35.776C161 35.5627 160.979 35.3707 160.936 35.2C160.893 35.1147 160.936 35.0507 161.064 35.008C161.192 34.9653 161.235 34.9013 161.192 34.816C161.149 34.7307 161.064 34.7093 160.936 34.752C160.808 34.7947 160.723 34.7733 160.68 34.688L160.488 33.92C160.488 33.7067 160.445 33.5787 160.36 33.536C160.317 33.4933 160.36 33.408 160.488 33.28C160.573 33.2373 160.616 33.1733 160.616 33.088C160.616 32.96 160.637 32.8747 160.68 32.832C160.893 32.704 160.979 32.5547 160.936 32.384C160.893 32.1707 160.936 31.9787 161.064 31.808C161.192 31.6373 161.299 31.488 161.384 31.36C161.469 31.1893 161.597 31.0827 161.768 31.04C161.896 30.9547 161.939 30.976 161.896 31.104C161.853 31.232 161.853 31.296 161.896 31.296C162.109 31.296 162.195 31.1893 162.152 30.976C162.109 30.7627 162.173 30.5707 162.344 30.4C162.643 30.144 163.091 29.9307 163.688 29.76C164.285 29.5893 164.733 29.4827 165.032 29.44C165.117 29.44 165.181 29.44 165.224 29.44C165.309 29.3973 165.373 29.376 165.416 29.376C165.629 29.376 165.843 29.3973 166.056 29.44C166.312 29.4827 166.547 29.5253 166.76 29.568C166.931 29.6107 167.187 29.7813 167.528 30.08C167.869 30.336 168.125 30.4 168.296 30.272C168.68 29.9307 169.085 29.632 169.512 29.376C169.981 29.12 170.28 29.0133 170.408 29.056C170.749 29.0987 171.048 29.2053 171.304 29.376C171.56 29.504 171.645 29.9307 171.56 30.656C171.517 30.912 171.411 31.1253 171.24 31.296C171.112 31.424 170.984 31.5947 170.856 31.808L170.408 32.448C170.237 32.7467 170.024 33.0453 169.768 33.344C169.555 33.6427 169.363 33.8347 169.192 33.92C169.021 34.0053 168.851 34.1547 168.68 34.368C168.552 34.5387 168.381 34.7093 168.168 34.88C167.955 35.0507 167.72 35.1787 167.464 35.264C167.251 35.3067 167.101 35.3493 167.016 35.392C166.888 35.4347 166.696 35.456 166.44 35.456C166.227 35.4133 166.163 35.328 166.248 35.2C166.333 35.1573 166.355 35.1147 166.312 35.072C166.269 34.9867 166.248 34.9227 166.248 34.88C166.248 34.7947 166.291 34.7307 166.376 34.688C166.504 34.6453 166.589 34.5813 166.632 34.496C166.675 34.4533 166.781 34.304 166.952 34.048C167.165 33.792 167.251 33.6427 167.208 33.6C167.208 33.472 167.251 33.3653 167.336 33.28C167.336 33.1947 167.336 33.1307 167.336 33.088C167.336 33.0027 167.379 32.9387 167.464 32.896C167.635 32.8533 167.72 32.7893 167.72 32.704V31.936C167.72 31.7653 167.699 31.5947 167.656 31.424C167.656 31.2533 167.613 31.104 167.528 30.976C167.187 30.5493 166.632 30.336 165.864 30.336C165.309 30.336 164.776 30.464 164.264 30.72C163.709 30.976 163.24 31.4027 162.856 32C162.557 32.4267 162.408 32.8747 162.408 33.344C162.408 33.6853 162.472 34.0267 162.6 34.368C162.771 34.7093 162.92 35.0293 163.048 35.328C163.176 35.6267 163.347 35.9893 163.56 36.416C163.816 36.8427 164.008 37.184 164.136 37.44C164.349 37.7813 164.584 38.1867 164.84 38.656C165.096 39.0827 165.288 39.488 165.416 39.872C165.459 39.9147 165.416 39.9573 165.288 40C165.203 40 165.181 40.0427 165.224 40.128C165.267 40.2133 165.331 40.256 165.416 40.256C165.501 40.256 165.565 40.2987 165.608 40.384C165.693 40.512 165.693 40.6187 165.608 40.704C165.565 40.7893 165.565 40.9173 165.608 41.088C165.608 41.1307 165.651 41.1733 165.736 41.216C165.821 41.2587 165.864 41.3013 165.864 41.344C166.077 41.8987 166.184 42.3467 166.184 42.688C166.568 42.4747 166.995 42.2187 167.464 41.92C167.933 41.6213 168.189 41.344 168.232 41.088C168.275 41.0027 168.339 40.9813 168.424 41.024C168.552 41.024 168.616 41.0667 168.616 41.152C168.573 41.4507 168.211 41.856 167.528 42.368C166.888 42.88 166.397 43.2427 166.056 43.456C166.099 43.4987 166.077 43.6053 165.992 43.776C165.907 43.9467 165.885 44.0747 165.928 44.16C165.928 44.2027 165.907 44.2667 165.864 44.352C165.821 44.3947 165.779 44.4587 165.736 44.544C165.736 44.7147 165.693 44.8427 165.608 44.928V45.056L165.416 45.184C165.373 45.2267 165.309 45.3333 165.224 45.504C165.181 45.632 165.117 45.7387 165.032 45.824H164.84C164.755 45.9093 164.712 46.016 164.712 46.144C164.627 46.272 164.435 46.4213 164.136 46.592C163.837 46.72 163.645 46.848 163.56 46.976C163.56 46.976 163.539 46.976 163.496 46.976C163.453 46.976 163.389 47.0187 163.304 47.104H163.112C163.069 47.104 163.027 47.1467 162.984 47.232C162.941 47.2747 162.899 47.3173 162.856 47.36C162.728 47.36 162.664 47.4027 162.664 47.488C162.493 47.488 162.365 47.5093 162.28 47.552L161.64 47.68C161.469 47.8507 161.32 47.936 161.192 47.936L161.128 47.872C161.043 47.9573 160.979 48 160.936 48H160.68C160.637 48 160.595 48.0213 160.552 48.064C160.509 48.1067 160.467 48.128 160.424 48.128H160.296C160.253 48.128 160.211 48.128 160.168 48.128C160.168 48.1707 160.125 48.192 160.04 48.192C159.912 48.192 159.72 48.192 159.464 48.192C159.251 48.192 159.08 48.2133 158.952 48.256ZM158.312 47.68C158.312 47.68 158.355 47.68 158.44 47.68C158.568 47.6373 158.653 47.616 158.696 47.616C158.909 47.616 159.101 47.6373 159.272 47.68C159.443 47.68 159.613 47.68 159.784 47.68C159.869 47.68 159.912 47.6373 159.912 47.552H160.04C160.168 47.424 160.232 47.4027 160.232 47.488C160.275 47.5733 160.339 47.5733 160.424 47.488C160.509 47.488 160.552 47.4667 160.552 47.424L160.808 47.296C160.851 47.296 160.872 47.296 160.872 47.296C160.872 47.2533 160.893 47.232 160.936 47.232H161.064C161.149 47.232 161.235 47.1893 161.32 47.104C161.405 47.0187 161.448 46.976 161.448 46.976C161.448 46.976 161.512 46.912 161.64 46.784C161.64 46.784 161.661 46.784 161.704 46.784C161.747 46.7413 161.789 46.72 161.832 46.72C161.917 46.6347 162.003 46.592 162.088 46.592C162.088 46.5493 162.131 46.5067 162.216 46.464C162.301 46.3787 162.344 46.336 162.344 46.336C162.387 46.2933 162.429 46.272 162.472 46.272C162.557 46.2293 162.6 46.1867 162.6 46.144C162.685 46.144 162.856 45.9947 163.112 45.696C163.368 45.3973 163.539 45.0347 163.624 44.608C163.624 44.5227 163.496 44.5867 163.24 44.8C162.984 44.9707 162.856 45.056 162.856 45.056C162.728 45.0987 162.6 45.184 162.472 45.312C162.344 45.3973 162.237 45.44 162.152 45.44C162.109 45.44 162.045 45.4827 161.96 45.568C161.917 45.6107 161.875 45.632 161.832 45.632C161.789 45.632 161.768 45.6533 161.768 45.696C161.768 45.696 161.725 45.6747 161.64 45.632C161.597 45.7173 161.469 45.8027 161.256 45.888C161.043 45.9733 160.893 46.016 160.808 46.016H160.616L160.552 46.08C160.552 46.08 160.531 46.1013 160.488 46.144C160.445 46.144 160.403 46.144 160.36 46.144L159.912 46.208H159.848C159.805 46.208 159.763 46.2293 159.72 46.272C159.549 46.272 159.357 46.2933 159.144 46.336C158.931 46.3787 158.803 46.4 158.76 46.4H158.696C158.696 46.3573 158.675 46.336 158.632 46.336V46.4H158.312C158.184 46.4 158.035 46.3787 157.864 46.336C157.736 46.2507 157.629 46.208 157.544 46.208C157.501 46.208 157.48 46.2293 157.48 46.272C157.48 46.272 157.459 46.272 157.416 46.272H157.288C157.245 46.272 157.224 46.2507 157.224 46.208H156.904C156.904 46.08 156.861 46.0587 156.776 46.144H156.712C156.541 46.144 156.392 46.08 156.264 45.952C156.179 45.824 156.029 45.76 155.816 45.76L155.624 45.568C155.624 45.6107 155.603 45.6533 155.56 45.696C155.56 45.696 155.56 45.7173 155.56 45.76C155.56 45.76 155.581 45.8027 155.624 45.888C155.709 45.9307 155.752 45.9733 155.752 46.016L155.88 46.272L156.136 46.592L156.264 46.72C156.307 46.7627 156.328 46.784 156.328 46.784C156.371 46.784 156.413 46.8267 156.456 46.912C156.541 46.912 156.584 46.976 156.584 47.104C157.309 47.488 157.885 47.68 158.312 47.68Z" fill="black"/>
</svg>
